<?xml version="1.0" encoding="UTF-8" standalone="no"?><svg xmlns="http://www.w3.org/2000/svg" xmlns:xlink="http://www.w3.org/1999/xlink" clip-rule="evenodd" stroke-miterlimit="10" viewBox="0 0 191 149"><desc>SVG generated by Keynote</desc><defs></defs><g transform="matrix(1.00, 0.00, -0.00, -1.00, 0.0, 149.0)"><g><clipPath id="clip0x600000cb6380"><path d="M -6.5 82.2 L 197.7 82.2 L 197.7 155.5 L -6.5 155.5 Z M -6.5 82.2 "></path></clipPath><g clip-path="url(#clip0x600000cb6380)"><text xml:space="preserve" font-family="YanoneKaffeesatz-Regular,Yanone Kaffeesatz" font-size="42.0" fill="#FC4438" transform="matrix(1.00, 0.00, -0.00, -1.00, 6.1, 104.0)">V</text><text xml:space="preserve" font-family="YanoneKaffeesatz-Regular,Yanone Kaffeesatz" font-size="42.0" fill="#FC4438" transform="matrix(1.00, 0.00, -0.00, -1.00, 22.1, 104.0)">a</text><text xml:space="preserve" font-family="YanoneKaffeesatz-Regular,Yanone Kaffeesatz" font-size="42.0" fill="#FC4438" transform="matrix(1.00, 0.00, -0.00, -1.00, 37.0, 104.0)">r</text><text xml:space="preserve" font-family="YanoneKaffeesatz-Regular,Yanone Kaffeesatz" font-size="42.0" fill="#FC4438" transform="matrix(1.00, 0.00, -0.00, -1.00, 48.0, 104.0)">i</text><text xml:space="preserve" font-family="YanoneKaffeesatz-Regular,Yanone Kaffeesatz" font-size="42.0" fill="#FC4438" transform="matrix(1.00, 0.00, -0.00, -1.00, 55.4, 104.0)">a</text><text xml:space="preserve" font-family="YanoneKaffeesatz-Regular,Yanone Kaffeesatz" font-size="42.0" fill="#FC4438" transform="matrix(1.00, 0.00, -0.00, -1.00, 70.2, 104.0)">b</text><text xml:space="preserve" font-family="YanoneKaffeesatz-Regular,Yanone Kaffeesatz" font-size="42.0" fill="#FC4438" transform="matrix(1.00, 0.00, -0.00, -1.00, 86.3, 104.0)">l</text><text xml:space="preserve" font-family="YanoneKaffeesatz-Regular,Yanone Kaffeesatz" font-size="42.0" fill="#FC4438" transform="matrix(1.00, 0.00, -0.00, -1.00, 93.6, 104.0)">e</text><text xml:space="preserve" font-family="YanoneKaffeesatz-Regular,Yanone Kaffeesatz" font-size="42.0" fill="#FC4438" transform="matrix(1.00, 0.00, -0.00, -1.00, 108.8, 104.0)"> </text><text xml:space="preserve" font-family="YanoneKaffeesatz-Regular,Yanone Kaffeesatz" font-size="42.0" fill="#FC4438" transform="matrix(1.00, 0.00, -0.00, -1.00, 115.3, 104.0)">n</text><text xml:space="preserve" font-family="YanoneKaffeesatz-Regular,Yanone Kaffeesatz" font-size="42.0" fill="#FC4438" transform="matrix(1.00, 0.00, -0.00, -1.00, 131.4, 104.0)">a</text><text xml:space="preserve" font-family="YanoneKaffeesatz-Regular,Yanone Kaffeesatz" font-size="42.0" fill="#FC4438" transform="matrix(1.00, 0.00, -0.00, -1.00, 146.3, 104.0)">m</text><text xml:space="preserve" font-family="YanoneKaffeesatz-Regular,Yanone Kaffeesatz" font-size="42.0" fill="#FC4438" transform="matrix(1.00, 0.00, -0.00, -1.00, 169.9, 104.0)">e</text></g></g><g><clipPath id="clip0x600000cb6da0"><path d="M 66.5 0.5 L 91.5 0.5 L 91.5 87.0 L 66.5 87.0 Z M 66.5 0.5 "></path></clipPath><g clip-path="url(#clip0x600000cb6da0)"><path d="M 15.6 72.7 L 15.6 70.9 L 0.0 0.0 " fill="none" stroke="#FC4438" stroke-width="3.00" transform="matrix(1.00, 0.00, 0.00, -1.00, 68.9, 85.7)"></path><path d="M 77.7 13.1 L 86.9 1.6 L 90.6 15.8 Z M 77.7 13.1 " fill="#FC4438"></path></g></g></g></svg>