<?xml version="1.0" encoding="UTF-8" standalone="no"?><svg xmlns="http://www.w3.org/2000/svg" xmlns:xlink="http://www.w3.org/1999/xlink" clip-rule="evenodd" stroke-miterlimit="10" viewBox="0 0 329 145"><desc>SVG generated by Keynote</desc><defs></defs><g transform="matrix(1.00, 0.00, -0.00, -1.00, 0.0, 145.0)"><g><clipPath id="clip0x6080010a7e00"><path d="M -8.2 68.4 L 337.4 68.4 L 337.4 153.2 L -8.2 153.2 Z M -8.2 68.4 "></path></clipPath><g clip-path="url(#clip0x6080010a7e00)"><text xml:space="preserve" font-family="YanoneKaffeesatz-Regular,Yanone Kaffeesatz" font-size="48.0" fill="#FC4438" transform="matrix(1.00, 0.00, -0.00, -1.00, 6.2, 93.3)">F</text><text xml:space="preserve" font-family="YanoneKaffeesatz-Regular,Yanone Kaffeesatz" font-size="48.0" fill="#FC4438" transform="matrix(1.00, 0.00, -0.00, -1.00, 20.2, 93.3)">u</text><text xml:space="preserve" font-family="YanoneKaffeesatz-Regular,Yanone Kaffeesatz" font-size="48.0" fill="#FC4438" transform="matrix(1.00, 0.00, -0.00, -1.00, 38.9, 93.3)">n</text><text xml:space="preserve" font-family="YanoneKaffeesatz-Regular,Yanone Kaffeesatz" font-size="48.0" fill="#FC4438" transform="matrix(1.00, 0.00, -0.00, -1.00, 57.2, 93.3)">c</text><text xml:space="preserve" font-family="YanoneKaffeesatz-Regular,Yanone Kaffeesatz" font-size="48.0" fill="#FC4438" transform="matrix(1.00, 0.00, -0.00, -1.00, 72.5, 93.3)">t</text><text xml:space="preserve" font-family="YanoneKaffeesatz-Regular,Yanone Kaffeesatz" font-size="48.0" fill="#FC4438" transform="matrix(1.00, 0.00, -0.00, -1.00, 86.5, 93.3)">i</text><text xml:space="preserve" font-family="YanoneKaffeesatz-Regular,Yanone Kaffeesatz" font-size="48.0" fill="#FC4438" transform="matrix(1.00, 0.00, -0.00, -1.00, 94.9, 93.3)">o</text><text xml:space="preserve" font-family="YanoneKaffeesatz-Regular,Yanone Kaffeesatz" font-size="48.0" fill="#FC4438" transform="matrix(1.00, 0.00, -0.00, -1.00, 112.6, 93.3)">n</text><text xml:space="preserve" font-family="YanoneKaffeesatz-Regular,Yanone Kaffeesatz" font-size="48.0" fill="#FC4438" transform="matrix(1.00, 0.00, -0.00, -1.00, 126.7, 93.3)">’</text><text xml:space="preserve" font-family="YanoneKaffeesatz-Regular,Yanone Kaffeesatz" font-size="48.0" fill="#FC4438" transform="matrix(1.00, 0.00, -0.00, -1.00, 130.7, 93.3)">s</text><text xml:space="preserve" font-family="YanoneKaffeesatz-Regular,Yanone Kaffeesatz" font-size="48.0" fill="#FC4438" transform="matrix(1.00, 0.00, -0.00, -1.00, 147.3, 93.3)"> </text><text xml:space="preserve" font-family="YanoneKaffeesatz-Regular,Yanone Kaffeesatz" font-size="48.0" fill="#FC4438" transform="matrix(1.00, 0.00, -0.00, -1.00, 154.8, 93.3)">p</text><text xml:space="preserve" font-family="YanoneKaffeesatz-Regular,Yanone Kaffeesatz" font-size="48.0" fill="#FC4438" transform="matrix(1.00, 0.00, -0.00, -1.00, 172.9, 93.3)">a</text><text xml:space="preserve" font-family="YanoneKaffeesatz-Regular,Yanone Kaffeesatz" font-size="48.0" fill="#FC4438" transform="matrix(1.00, 0.00, -0.00, -1.00, 189.9, 93.3)">r</text><text xml:space="preserve" font-family="YanoneKaffeesatz-Regular,Yanone Kaffeesatz" font-size="48.0" fill="#FC4438" transform="matrix(1.00, 0.00, -0.00, -1.00, 202.5, 93.3)">a</text><text xml:space="preserve" font-family="YanoneKaffeesatz-Regular,Yanone Kaffeesatz" font-size="48.0" fill="#FC4438" transform="matrix(1.00, 0.00, -0.00, -1.00, 219.5, 93.3)">m</text><text xml:space="preserve" font-family="YanoneKaffeesatz-Regular,Yanone Kaffeesatz" font-size="48.0" fill="#FC4438" transform="matrix(1.00, 0.00, -0.00, -1.00, 246.5, 93.3)">e</text><text xml:space="preserve" font-family="YanoneKaffeesatz-Regular,Yanone Kaffeesatz" font-size="48.0" fill="#FC4438" transform="matrix(1.00, 0.00, -0.00, -1.00, 263.6, 93.3)">t</text><text xml:space="preserve" font-family="YanoneKaffeesatz-Regular,Yanone Kaffeesatz" font-size="48.0" fill="#FC4438" transform="matrix(1.00, 0.00, -0.00, -1.00, 276.5, 93.3)">e</text><text xml:space="preserve" font-family="YanoneKaffeesatz-Regular,Yanone Kaffeesatz" font-size="48.0" fill="#FC4438" transform="matrix(1.00, 0.00, -0.00, -1.00, 293.8, 93.3)">r</text><text xml:space="preserve" font-family="YanoneKaffeesatz-Regular,Yanone Kaffeesatz" font-size="48.0" fill="#FC4438" transform="matrix(1.00, 0.00, -0.00, -1.00, 306.5, 93.3)">s</text></g></g><g><clipPath id="clip0x6080010a8b20"><path d="M 60.7 0.9 L 102.5 0.9 L 102.5 76.8 L 60.7 76.8 Z M 60.7 0.9 "></path></clipPath><g clip-path="url(#clip0x6080010a8b20)"><path d="M 3.5 65.1 L 4.5 63.7 L 37.1 0.0 " fill="none" stroke="#FC4438" stroke-width="3.00" transform="matrix(1.00, 0.00, 0.00, -1.00, 63.0, 75.1)"></path><path d="M 62.8 17.3 L 62.7 2.5 L 74.6 11.3 L 67.2 11.3 Z M 62.8 17.3 " fill="#FC4438"></path></g></g></g></svg>