<?xml version="1.0" encoding="UTF-8" standalone="no"?><svg xmlns="http://www.w3.org/2000/svg" xmlns:xlink="http://www.w3.org/1999/xlink" clip-rule="evenodd" stroke-miterlimit="10" viewBox="0 0 153 99"><desc>SVG generated by Keynote</desc><defs></defs><g transform="matrix(1.00, 0.00, -0.00, -1.00, 0.0, 99.0)"><g><clipPath id="clip0x600000ebe9c0"><path d="M 92.5 22.9 L 161.3 22.9 L 161.3 107.7 L 92.5 107.7 Z M 92.5 22.9 "></path></clipPath><g clip-path="url(#clip0x600000ebe9c0)"><text xml:space="preserve" font-family="YanoneKaffeesatz-Regular,Yanone Kaffeesatz" font-size="48.0" fill="#FC4438" transform="matrix(1.00, 0.00, -0.00, -1.00, 106.9, 47.8)">1</text><text xml:space="preserve" font-family="YanoneKaffeesatz-Regular,Yanone Kaffeesatz" font-size="48.0" fill="#FC4438" transform="matrix(1.00, 0.00, -0.00, -1.00, 126.9, 47.8)">0</text></g></g><g><clipPath id="clip0x600000ebefc0"><path d="M 0.4 0.8 L 95.9 0.8 L 95.9 49.0 L 0.4 49.0 Z M 0.4 0.8 "></path></clipPath><g clip-path="url(#clip0x600000ebefc0)"><path d="M 85.0 3.1 L 83.3 4.1 L 0.0 43.5 " fill="none" stroke="#FC4438" stroke-width="3.00" transform="matrix(1.00, 0.00, 0.00, -1.00, 2.0, 46.6)"></path><path d="M 85.5 35.5 L 94.6 47.1 L 79.8 47.4 L 85.6 42.9 Z M 85.5 35.5 " fill="#FC4438"></path></g></g></g></svg>