<?xml version="1.0" encoding="UTF-8" standalone="no"?><svg xmlns="http://www.w3.org/2000/svg" xmlns:xlink="http://www.w3.org/1999/xlink" clip-rule="evenodd" stroke-miterlimit="10" viewBox="0 0 1024 768"><desc>SVG generated by Keynote</desc><defs></defs><g transform="matrix(1.00, 0.00, -0.00, -1.00, 0.0, 768.0)"><path d="M 0.0 768.0 L 1024.0 768.0 L 1024.0 0.0 L 0.0 0.0 Z M 0.0 768.0 " fill="#F1F2EC"></path><text xml:space="preserve" font-family="YanoneKaffeesatz-Bold,Yanone Kaffeesatz" font-weight="bold" font-size="42.0" fill="#787878" transform="matrix(1.00, 0.00, -0.00, -1.00, 104.0, 577.1)">h</text><text xml:space="preserve" font-family="YanoneKaffeesatz-Bold,Yanone Kaffeesatz" font-weight="bold" font-size="42.0" fill="#787878" transform="matrix(1.00, 0.00, -0.00, -1.00, 119.2, 577.1)">1</text><text xml:space="preserve" font-family="YanoneKaffeesatz-Regular,Yanone Kaffeesatz" font-size="42.0" fill="#787878" transform="matrix(1.00, 0.00, -0.00, -1.00, 136.0, 577.1)"> </text><text xml:space="preserve" font-family="YanoneKaffeesatz-Regular,Yanone Kaffeesatz" font-size="42.0" fill="#787878" transform="matrix(1.00, 0.00, -0.00, -1.00, 142.6, 577.1)">{</text><text xml:space="preserve" font-family="YanoneKaffeesatz-Regular,Yanone Kaffeesatz" font-size="42.0" fill="#787878" transform="matrix(1.00, 0.00, -0.00, -1.00, 154.1, 577.1)"> </text><text xml:space="preserve" font-family="YanoneKaffeesatz-Regular,Yanone Kaffeesatz" font-size="42.0" fill="#787878" transform="matrix(1.00, 0.00, -0.00, -1.00, 131.0, 528.1)">c</text><text xml:space="preserve" font-family="YanoneKaffeesatz-Regular,Yanone Kaffeesatz" font-size="42.0" fill="#787878" transform="matrix(1.00, 0.00, -0.00, -1.00, 143.6, 528.1)">o</text><text xml:space="preserve" font-family="YanoneKaffeesatz-Regular,Yanone Kaffeesatz" font-size="42.0" fill="#787878" transform="matrix(1.00, 0.00, -0.00, -1.00, 159.1, 528.1)">l</text><text xml:space="preserve" font-family="YanoneKaffeesatz-Regular,Yanone Kaffeesatz" font-size="42.0" fill="#787878" transform="matrix(1.00, 0.00, -0.00, -1.00, 166.4, 528.1)">o</text><text xml:space="preserve" font-family="YanoneKaffeesatz-Regular,Yanone Kaffeesatz" font-size="42.0" fill="#787878" transform="matrix(1.00, 0.00, -0.00, -1.00, 181.8, 528.1)">r</text><text xml:space="preserve" font-family="YanoneKaffeesatz-Regular,Yanone Kaffeesatz" font-size="42.0" fill="#787878" transform="matrix(1.00, 0.00, -0.00, -1.00, 192.9, 528.1)">:</text><text xml:space="preserve" font-family="YanoneKaffeesatz-Regular,Yanone Kaffeesatz" font-size="42.0" fill="#787878" transform="matrix(1.00, 0.00, -0.00, -1.00, 200.6, 528.1)"> </text><text xml:space="preserve" font-family="YanoneKaffeesatz-Regular,Yanone Kaffeesatz" font-size="42.0" fill="#787878" transform="matrix(1.00, 0.00, -0.00, -1.00, 207.1, 528.1)">r</text><text xml:space="preserve" font-family="YanoneKaffeesatz-Regular,Yanone Kaffeesatz" font-size="42.0" fill="#787878" transform="matrix(1.00, 0.00, -0.00, -1.00, 217.3, 528.1)">e</text><text xml:space="preserve" font-family="YanoneKaffeesatz-Regular,Yanone Kaffeesatz" font-size="42.0" fill="#787878" transform="matrix(1.00, 0.00, -0.00, -1.00, 232.5, 528.1)">d</text><text xml:space="preserve" font-family="YanoneKaffeesatz-Regular,Yanone Kaffeesatz" font-size="42.0" fill="#787878" transform="matrix(1.00, 0.00, -0.00, -1.00, 248.7, 528.1)">;</text><text xml:space="preserve" font-family="YanoneKaffeesatz-Regular,Yanone Kaffeesatz" font-size="42.0" fill="#787878" transform="matrix(1.00, 0.00, -0.00, -1.00, 256.4, 528.1)"> </text><text xml:space="preserve" font-family="YanoneKaffeesatz-Regular,Yanone Kaffeesatz" font-size="42.0" fill="#787878" transform="matrix(1.00, 0.00, -0.00, -1.00, 104.0, 479.1)">}</text></g></svg>