<?xml version="1.0" encoding="UTF-8" standalone="no"?><svg xmlns="http://www.w3.org/2000/svg" xmlns:xlink="http://www.w3.org/1999/xlink" clip-rule="evenodd" stroke-miterlimit="10" viewBox="0 0 509 136"><desc>SVG generated by Keynote</desc><defs></defs><g transform="matrix(1.00, 0.00, -0.00, -1.00, 0.0, 136.0)"><g><clipPath id="clip0x600000ab70a0"><path d="M 35.4 69.2 L 515.7 69.2 L 515.7 142.5 L 35.4 142.5 Z M 35.4 69.2 "></path></clipPath><g clip-path="url(#clip0x600000ab70a0)"><text xml:space="preserve" font-family="YanoneKaffeesatz-Regular,Yanone Kaffeesatz" font-size="42.0" fill="#FC4438" transform="matrix(1.00, 0.00, -0.00, -1.00, 58.0, 91.0)">M</text><text xml:space="preserve" font-family="YanoneKaffeesatz-Regular,Yanone Kaffeesatz" font-size="42.0" fill="#FC4438" transform="matrix(1.00, 0.00, -0.00, -1.00, 78.5, 91.0)">o</text><text xml:space="preserve" font-family="YanoneKaffeesatz-Regular,Yanone Kaffeesatz" font-size="42.0" fill="#FC4438" transform="matrix(1.00, 0.00, -0.00, -1.00, 94.0, 91.0)">s</text><text xml:space="preserve" font-family="YanoneKaffeesatz-Regular,Yanone Kaffeesatz" font-size="42.0" fill="#FC4438" transform="matrix(1.00, 0.00, -0.00, -1.00, 108.4, 91.0)">t</text><text xml:space="preserve" font-family="YanoneKaffeesatz-Regular,Yanone Kaffeesatz" font-size="42.0" fill="#FC4438" transform="matrix(1.00, 0.00, -0.00, -1.00, 120.7, 91.0)"> </text><text xml:space="preserve" font-family="YanoneKaffeesatz-Regular,Yanone Kaffeesatz" font-size="42.0" fill="#FC4438" transform="matrix(1.00, 0.00, -0.00, -1.00, 127.3, 91.0)">t</text><text xml:space="preserve" font-family="YanoneKaffeesatz-Regular,Yanone Kaffeesatz" font-size="42.0" fill="#FC4438" transform="matrix(1.00, 0.00, -0.00, -1.00, 139.5, 91.0)">a</text><text xml:space="preserve" font-family="YanoneKaffeesatz-Regular,Yanone Kaffeesatz" font-size="42.0" fill="#FC4438" transform="matrix(1.00, 0.00, -0.00, -1.00, 154.3, 91.0)">g</text><text xml:space="preserve" font-family="YanoneKaffeesatz-Regular,Yanone Kaffeesatz" font-size="42.0" fill="#FC4438" transform="matrix(1.00, 0.00, -0.00, -1.00, 170.9, 91.0)">s</text><text xml:space="preserve" font-family="YanoneKaffeesatz-Regular,Yanone Kaffeesatz" font-size="42.0" fill="#FC4438" transform="matrix(1.00, 0.00, -0.00, -1.00, 185.3, 91.0)"> </text><text xml:space="preserve" font-family="YanoneKaffeesatz-Regular,Yanone Kaffeesatz" font-size="42.0" fill="#FC4438" transform="matrix(1.00, 0.00, -0.00, -1.00, 191.9, 91.0)">c</text><text xml:space="preserve" font-family="YanoneKaffeesatz-Regular,Yanone Kaffeesatz" font-size="42.0" fill="#FC4438" transform="matrix(1.00, 0.00, -0.00, -1.00, 204.6, 91.0)">o</text><text xml:space="preserve" font-family="YanoneKaffeesatz-Regular,Yanone Kaffeesatz" font-size="42.0" fill="#FC4438" transform="matrix(1.00, 0.00, -0.00, -1.00, 220.0, 91.0)">m</text><text xml:space="preserve" font-family="YanoneKaffeesatz-Regular,Yanone Kaffeesatz" font-size="42.0" fill="#FC4438" transform="matrix(1.00, 0.00, -0.00, -1.00, 243.7, 91.0)">e</text><text xml:space="preserve" font-family="YanoneKaffeesatz-Regular,Yanone Kaffeesatz" font-size="42.0" fill="#FC4438" transform="matrix(1.00, 0.00, -0.00, -1.00, 258.8, 91.0)"> </text><text xml:space="preserve" font-family="YanoneKaffeesatz-Regular,Yanone Kaffeesatz" font-size="42.0" fill="#FC4438" transform="matrix(1.00, 0.00, -0.00, -1.00, 265.4, 91.0)">i</text><text xml:space="preserve" font-family="YanoneKaffeesatz-Regular,Yanone Kaffeesatz" font-size="42.0" fill="#FC4438" transform="matrix(1.00, 0.00, -0.00, -1.00, 272.8, 91.0)">n</text><text xml:space="preserve" font-family="YanoneKaffeesatz-Regular,Yanone Kaffeesatz" font-size="42.0" fill="#FC4438" transform="matrix(1.00, 0.00, -0.00, -1.00, 288.8, 91.0)"> </text><text xml:space="preserve" font-family="YanoneKaffeesatz-Regular,Yanone Kaffeesatz" font-size="42.0" fill="#FC4438" transform="matrix(1.00, 0.00, -0.00, -1.00, 295.4, 91.0)">p</text><text xml:space="preserve" font-family="YanoneKaffeesatz-Regular,Yanone Kaffeesatz" font-size="42.0" fill="#FC4438" transform="matrix(1.00, 0.00, -0.00, -1.00, 311.2, 91.0)">a</text><text xml:space="preserve" font-family="YanoneKaffeesatz-Regular,Yanone Kaffeesatz" font-size="42.0" fill="#FC4438" transform="matrix(1.00, 0.00, -0.00, -1.00, 326.1, 91.0)">i</text><text xml:space="preserve" font-family="YanoneKaffeesatz-Regular,Yanone Kaffeesatz" font-size="42.0" fill="#FC4438" transform="matrix(1.00, 0.00, -0.00, -1.00, 333.4, 91.0)">r</text><text xml:space="preserve" font-family="YanoneKaffeesatz-Regular,Yanone Kaffeesatz" font-size="42.0" fill="#FC4438" transform="matrix(1.00, 0.00, -0.00, -1.00, 344.5, 91.0)">s</text><text xml:space="preserve" font-family="YanoneKaffeesatz-Regular,Yanone Kaffeesatz" font-size="42.0" fill="#FC4438" transform="matrix(1.00, 0.00, -0.00, -1.00, 359.0, 91.0)"> </text><text xml:space="preserve" font-family="YanoneKaffeesatz-Regular,Yanone Kaffeesatz" font-size="42.0" fill="#FC4438" transform="matrix(1.00, 0.00, -0.00, -1.00, 365.6, 91.0)">(</text><text xml:space="preserve" font-family="YanoneKaffeesatz-Regular,Yanone Kaffeesatz" font-size="42.0" fill="#FC4438" transform="matrix(1.00, 0.00, -0.00, -1.00, 376.6, 91.0)">e</text><text xml:space="preserve" font-family="YanoneKaffeesatz-Regular,Yanone Kaffeesatz" font-size="42.0" fill="#FC4438" transform="matrix(1.00, 0.00, -0.00, -1.00, 391.7, 91.0)">l</text><text xml:space="preserve" font-family="YanoneKaffeesatz-Regular,Yanone Kaffeesatz" font-size="42.0" fill="#FC4438" transform="matrix(1.00, 0.00, -0.00, -1.00, 399.0, 91.0)">e</text><text xml:space="preserve" font-family="YanoneKaffeesatz-Regular,Yanone Kaffeesatz" font-size="42.0" fill="#FC4438" transform="matrix(1.00, 0.00, -0.00, -1.00, 414.2, 91.0)">m</text><text xml:space="preserve" font-family="YanoneKaffeesatz-Regular,Yanone Kaffeesatz" font-size="42.0" fill="#FC4438" transform="matrix(1.00, 0.00, -0.00, -1.00, 437.8, 91.0)">e</text><text xml:space="preserve" font-family="YanoneKaffeesatz-Regular,Yanone Kaffeesatz" font-size="42.0" fill="#FC4438" transform="matrix(1.00, 0.00, -0.00, -1.00, 453.0, 91.0)">n</text><text xml:space="preserve" font-family="YanoneKaffeesatz-Regular,Yanone Kaffeesatz" font-size="42.0" fill="#FC4438" transform="matrix(1.00, 0.00, -0.00, -1.00, 469.0, 91.0)">t</text><text xml:space="preserve" font-family="YanoneKaffeesatz-Regular,Yanone Kaffeesatz" font-size="42.0" fill="#FC4438" transform="matrix(1.00, 0.00, -0.00, -1.00, 480.9, 91.0)">)</text></g></g><g><clipPath id="clip0x600000ab8360"><path d="M 0.8 0.3 L 79.9 0.3 L 79.9 75.3 L 0.8 75.3 Z M 0.8 0.3 "></path></clipPath><g clip-path="url(#clip0x600000ab8360)"><path d="M 8.5 62.7 L 9.6 61.7 L 75.1 0.0 " fill="none" stroke="#FC4438" stroke-width="3.00" transform="matrix(1.00, 0.00, 0.00, -1.00, 2.8, 73.2)"></path><path d="M 7.9 16.3 L 2.8 2.4 L 17.0 6.7 Z M 7.9 16.3 " fill="#FC4438"></path></g></g><g><clipPath id="clip0x600000ab8660"><path d="M 138.2 1.1 L 191.2 1.1 L 191.2 76.5 L 138.2 76.5 Z M 138.2 1.1 "></path></clipPath><g clip-path="url(#clip0x600000ab8660)"><path d="M 42.1 61.6 L 41.1 60.7 L 0.0 0.0 " fill="none" stroke="#FC4438" stroke-width="3.00" transform="matrix(1.00, 0.00, 0.00, -1.00, 140.4, 74.6)"></path><path d="M 176.2 10.5 L 189.1 3.3 L 187.1 17.9 Z M 176.2 10.5 " fill="#FC4438"></path></g></g></g></svg>