<?xml version="1.0" encoding="UTF-8" standalone="no"?><svg xmlns="http://www.w3.org/2000/svg" xmlns:xlink="http://www.w3.org/1999/xlink" clip-rule="evenodd" stroke-miterlimit="10" viewBox="0 0 224 140"><desc>SVG generated by Keynote</desc><defs></defs><g transform="matrix(1.00, 0.00, -0.00, -1.00, 0.0, 140.0)"><g><clipPath id="clip0x6080010a4bc0"><path d="M -8.8 63.4 L 232.0 63.4 L 232.0 148.2 L -8.8 148.2 Z M -8.8 63.4 "></path></clipPath><g clip-path="url(#clip0x6080010a4bc0)"><text xml:space="preserve" font-family="YanoneKaffeesatz-Regular,Yanone Kaffeesatz" font-size="48.0" fill="#FC4438" transform="matrix(1.00, 0.00, -0.00, -1.00, 5.6, 88.3)">F</text><text xml:space="preserve" font-family="YanoneKaffeesatz-Regular,Yanone Kaffeesatz" font-size="48.0" fill="#FC4438" transform="matrix(1.00, 0.00, -0.00, -1.00, 19.6, 88.3)">u</text><text xml:space="preserve" font-family="YanoneKaffeesatz-Regular,Yanone Kaffeesatz" font-size="48.0" fill="#FC4438" transform="matrix(1.00, 0.00, -0.00, -1.00, 38.3, 88.3)">n</text><text xml:space="preserve" font-family="YanoneKaffeesatz-Regular,Yanone Kaffeesatz" font-size="48.0" fill="#FC4438" transform="matrix(1.00, 0.00, -0.00, -1.00, 56.7, 88.3)">c</text><text xml:space="preserve" font-family="YanoneKaffeesatz-Regular,Yanone Kaffeesatz" font-size="48.0" fill="#FC4438" transform="matrix(1.00, 0.00, -0.00, -1.00, 72.0, 88.3)">t</text><text xml:space="preserve" font-family="YanoneKaffeesatz-Regular,Yanone Kaffeesatz" font-size="48.0" fill="#FC4438" transform="matrix(1.00, 0.00, -0.00, -1.00, 86.0, 88.3)">i</text><text xml:space="preserve" font-family="YanoneKaffeesatz-Regular,Yanone Kaffeesatz" font-size="48.0" fill="#FC4438" transform="matrix(1.00, 0.00, -0.00, -1.00, 94.4, 88.3)">o</text><text xml:space="preserve" font-family="YanoneKaffeesatz-Regular,Yanone Kaffeesatz" font-size="48.0" fill="#FC4438" transform="matrix(1.00, 0.00, -0.00, -1.00, 112.0, 88.3)">n</text><text xml:space="preserve" font-family="YanoneKaffeesatz-Regular,Yanone Kaffeesatz" font-size="48.0" fill="#FC4438" transform="matrix(1.00, 0.00, -0.00, -1.00, 130.4, 88.3)"> </text><text xml:space="preserve" font-family="YanoneKaffeesatz-Regular,Yanone Kaffeesatz" font-size="48.0" fill="#FC4438" transform="matrix(1.00, 0.00, -0.00, -1.00, 137.9, 88.3)">n</text><text xml:space="preserve" font-family="YanoneKaffeesatz-Regular,Yanone Kaffeesatz" font-size="48.0" fill="#FC4438" transform="matrix(1.00, 0.00, -0.00, -1.00, 156.2, 88.3)">a</text><text xml:space="preserve" font-family="YanoneKaffeesatz-Regular,Yanone Kaffeesatz" font-size="48.0" fill="#FC4438" transform="matrix(1.00, 0.00, -0.00, -1.00, 173.2, 88.3)">m</text><text xml:space="preserve" font-family="YanoneKaffeesatz-Regular,Yanone Kaffeesatz" font-size="48.0" fill="#FC4438" transform="matrix(1.00, 0.00, -0.00, -1.00, 200.2, 88.3)">e</text></g></g><g><clipPath id="clip0x6080010a55e0"><path d="M 80.4 0.5 L 113.6 0.5 L 113.6 79.8 L 80.4 79.8 Z M 80.4 0.5 "></path></clipPath><g clip-path="url(#clip0x6080010a55e0)"><path d="M 25.7 68.3 L 24.7 67.0 L 0.0 0.0 " fill="none" stroke="#FC4438" stroke-width="3.00" transform="matrix(1.00, 0.00, 0.00, -1.00, 82.8, 78.3)"></path><path d="M 100.6 12.2 L 111.4 2.1 L 113.0 16.8 L 108.0 11.4 Z M 100.6 12.2 " fill="#FC4438"></path></g></g></g></svg>