<?xml version="1.0" encoding="UTF-8" standalone="no"?><svg xmlns="http://www.w3.org/2000/svg" xmlns:xlink="http://www.w3.org/1999/xlink" clip-rule="evenodd" stroke-miterlimit="10" viewBox="0 0 349 154"><desc>SVG generated by Keynote</desc><defs></defs><g transform="matrix(1.00, 0.00, -0.00, -1.00, 0.0, 154.0)"><g><clipPath id="clip0x600000ca6720"><path d="M 55.8 153.5 L 71.0 153.5 L 70.8 57.5 L 55.6 57.6 Z M 55.8 153.5 "></path></clipPath><g clip-path="url(#clip0x600000ca6720)"><path d="M 0.2 82.3 L 0.2 80.8 L 0.0 0.0 " fill="none" stroke="#6AA7C5" stroke-width="3.00" transform="matrix(1.00, -0.00, -0.00, -1.00, 63.2, 152.5)"></path><path d="M 56.6 71.7 L 63.2 58.5 L 69.8 71.7 Z M 56.6 71.7 " fill="#6AA7C5"></path></g></g><g><clipPath id="clip0x600000ca6d80"><path d="M -7.1 -8.3 L 356.1 -8.3 L 356.1 65.0 L -7.1 65.0 Z M -7.1 -8.3 "></path></clipPath><g clip-path="url(#clip0x600000ca6d80)"><text xml:space="preserve" font-family="YanoneKaffeesatz-Bold,Yanone Kaffeesatz" font-weight="bold" font-size="42.0" fill="#787878" transform="matrix(1.00, 0.00, -0.00, -1.00, 5.0, 13.5)">&lt;</text><text xml:space="preserve" font-family="YanoneKaffeesatz-Bold,Yanone Kaffeesatz" font-weight="bold" font-size="42.0" fill="#787878" transform="matrix(1.00, 0.00, -0.00, -1.00, 21.8, 13.5)">h</text><text xml:space="preserve" font-family="YanoneKaffeesatz-Bold,Yanone Kaffeesatz" font-weight="bold" font-size="42.0" fill="#787878" transform="matrix(1.00, 0.00, -0.00, -1.00, 37.0, 13.5)">1</text><text xml:space="preserve" font-family="YanoneKaffeesatz-Bold,Yanone Kaffeesatz" font-weight="bold" font-size="42.0" fill="#787878" transform="matrix(1.00, 0.00, -0.00, -1.00, 53.8, 13.5)">&gt;</text><text xml:space="preserve" font-family="YanoneKaffeesatz-Regular,Yanone Kaffeesatz" font-size="42.0" fill="#787878" transform="matrix(1.00, 0.00, -0.00, -1.00, 70.6, 13.5)"> </text><text xml:space="preserve" font-family="YanoneKaffeesatz-Regular,Yanone Kaffeesatz" font-size="42.0" fill="#787878" transform="matrix(1.00, 0.00, -0.00, -1.00, 77.2, 13.5)">H</text><text xml:space="preserve" font-family="YanoneKaffeesatz-Regular,Yanone Kaffeesatz" font-size="42.0" fill="#787878" transform="matrix(1.00, 0.00, -0.00, -1.00, 94.3, 13.5)">e</text><text xml:space="preserve" font-family="YanoneKaffeesatz-Regular,Yanone Kaffeesatz" font-size="42.0" fill="#787878" transform="matrix(1.00, 0.00, -0.00, -1.00, 109.5, 13.5)">l</text><text xml:space="preserve" font-family="YanoneKaffeesatz-Regular,Yanone Kaffeesatz" font-size="42.0" fill="#787878" transform="matrix(1.00, 0.00, -0.00, -1.00, 116.8, 13.5)">l</text><text xml:space="preserve" font-family="YanoneKaffeesatz-Regular,Yanone Kaffeesatz" font-size="42.0" fill="#787878" transform="matrix(1.00, 0.00, -0.00, -1.00, 124.0, 13.5)">o</text><text xml:space="preserve" font-family="YanoneKaffeesatz-Regular,Yanone Kaffeesatz" font-size="42.0" fill="#787878" transform="matrix(1.00, 0.00, -0.00, -1.00, 139.5, 13.5)"> </text><text xml:space="preserve" font-family="YanoneKaffeesatz-Regular,Yanone Kaffeesatz" font-size="42.0" fill="#787878" transform="matrix(1.00, 0.00, -0.00, -1.00, 146.1, 13.5)">W</text><text xml:space="preserve" font-family="YanoneKaffeesatz-Regular,Yanone Kaffeesatz" font-size="42.0" fill="#787878" transform="matrix(1.00, 0.00, -0.00, -1.00, 172.1, 13.5)">o</text><text xml:space="preserve" font-family="YanoneKaffeesatz-Regular,Yanone Kaffeesatz" font-size="42.0" fill="#787878" transform="matrix(1.00, 0.00, -0.00, -1.00, 187.5, 13.5)">r</text><text xml:space="preserve" font-family="YanoneKaffeesatz-Regular,Yanone Kaffeesatz" font-size="42.0" fill="#787878" transform="matrix(1.00, 0.00, -0.00, -1.00, 198.6, 13.5)">l</text><text xml:space="preserve" font-family="YanoneKaffeesatz-Regular,Yanone Kaffeesatz" font-size="42.0" fill="#787878" transform="matrix(1.00, 0.00, -0.00, -1.00, 205.8, 13.5)">d</text><text xml:space="preserve" font-family="YanoneKaffeesatz-Regular,Yanone Kaffeesatz" font-size="42.0" fill="#787878" transform="matrix(1.00, 0.00, -0.00, -1.00, 222.1, 13.5)">!</text><text xml:space="preserve" font-family="YanoneKaffeesatz-Regular,Yanone Kaffeesatz" font-size="42.0" fill="#787878" transform="matrix(1.00, 0.00, -0.00, -1.00, 230.2, 13.5)"> </text><text xml:space="preserve" font-family="YanoneKaffeesatz-Bold,Yanone Kaffeesatz" font-weight="bold" font-size="42.0" fill="#787878" transform="matrix(1.00, 0.00, -0.00, -1.00, 236.8, 13.5)">&lt;</text><text xml:space="preserve" font-family="YanoneKaffeesatz-Bold,Yanone Kaffeesatz" font-weight="bold" font-size="42.0" fill="#787878" transform="matrix(1.00, 0.00, -0.00, -1.00, 253.6, 13.5)">/</text><text xml:space="preserve" font-family="YanoneKaffeesatz-Bold,Yanone Kaffeesatz" font-weight="bold" font-size="42.0" fill="#787878" transform="matrix(1.00, 0.00, -0.00, -1.00, 269.1, 13.5)">h</text><text xml:space="preserve" font-family="YanoneKaffeesatz-Bold,Yanone Kaffeesatz" font-weight="bold" font-size="42.0" fill="#787878" transform="matrix(1.00, 0.00, -0.00, -1.00, 284.3, 13.5)">1</text><text xml:space="preserve" font-family="YanoneKaffeesatz-Bold,Yanone Kaffeesatz" font-weight="bold" font-size="42.0" fill="#787878" transform="matrix(1.00, 0.00, -0.00, -1.00, 301.1, 13.5)">&gt;</text></g></g></g></svg>