<?xml version="1.0" encoding="UTF-8" standalone="no"?><svg xmlns="http://www.w3.org/2000/svg" xmlns:xlink="http://www.w3.org/1999/xlink" clip-rule="evenodd" stroke-miterlimit="10" viewBox="0 0 1024 768"><desc>SVG generated by Keynote</desc><defs></defs><g transform="matrix(1.00, 0.00, -0.00, -1.00, 0.0, 768.0)"><path d="M 0.0 768.0 L 1024.0 768.0 L 1024.0 0.0 L 0.0 0.0 Z M 0.0 768.0 " fill="#F1F2EC"></path><text xml:space="preserve" font-family="YanoneKaffeesatz-Bold,Yanone Kaffeesatz" font-weight="bold" font-size="42.0" fill="#787878" transform="matrix(1.00, 0.00, -0.00, -1.00, 104.0, 577.1)">h</text><text xml:space="preserve" font-family="YanoneKaffeesatz-Bold,Yanone Kaffeesatz" font-weight="bold" font-size="42.0" fill="#787878" transform="matrix(1.00, 0.00, -0.00, -1.00, 119.2, 577.1)">1</text><text xml:space="preserve" font-family="YanoneKaffeesatz-Regular,Yanone Kaffeesatz" font-size="42.0" fill="#787878" transform="matrix(1.00, 0.00, -0.00, -1.00, 136.0, 577.1)"> </text><text xml:space="preserve" font-family="YanoneKaffeesatz-Regular,Yanone Kaffeesatz" font-size="42.0" fill="#787878" transform="matrix(1.00, 0.00, -0.00, -1.00, 142.6, 577.1)">{</text><text xml:space="preserve" font-family="YanoneKaffeesatz-Regular,Yanone Kaffeesatz" font-size="42.0" fill="#787878" transform="matrix(1.00, 0.00, -0.00, -1.00, 154.1, 577.1)"> </text><text xml:space="preserve" font-family="YanoneKaffeesatz-Regular,Yanone Kaffeesatz" font-size="42.0" fill="#787878" transform="matrix(1.00, 0.00, -0.00, -1.00, 131.0, 528.1)">c</text><text xml:space="preserve" font-family="YanoneKaffeesatz-Regular,Yanone Kaffeesatz" font-size="42.0" fill="#787878" transform="matrix(1.00, 0.00, -0.00, -1.00, 143.6, 528.1)">o</text><text xml:space="preserve" font-family="YanoneKaffeesatz-Regular,Yanone Kaffeesatz" font-size="42.0" fill="#787878" transform="matrix(1.00, 0.00, -0.00, -1.00, 159.1, 528.1)">l</text><text xml:space="preserve" font-family="YanoneKaffeesatz-Regular,Yanone Kaffeesatz" font-size="42.0" fill="#787878" transform="matrix(1.00, 0.00, -0.00, -1.00, 166.4, 528.1)">o</text><text xml:space="preserve" font-family="YanoneKaffeesatz-Regular,Yanone Kaffeesatz" font-size="42.0" fill="#787878" transform="matrix(1.00, 0.00, -0.00, -1.00, 181.8, 528.1)">r</text><text xml:space="preserve" font-family="YanoneKaffeesatz-Regular,Yanone Kaffeesatz" font-size="42.0" fill="#787878" transform="matrix(1.00, 0.00, -0.00, -1.00, 192.9, 528.1)">:</text><text xml:space="preserve" font-family="YanoneKaffeesatz-Regular,Yanone Kaffeesatz" font-size="42.0" fill="#787878" transform="matrix(1.00, 0.00, -0.00, -1.00, 200.6, 528.1)"> </text><text xml:space="preserve" font-family="YanoneKaffeesatz-Regular,Yanone Kaffeesatz" font-size="42.0" fill="#787878" transform="matrix(1.00, 0.00, -0.00, -1.00, 207.1, 528.1)">r</text><text xml:space="preserve" font-family="YanoneKaffeesatz-Regular,Yanone Kaffeesatz" font-size="42.0" fill="#787878" transform="matrix(1.00, 0.00, -0.00, -1.00, 217.3, 528.1)">e</text><text xml:space="preserve" font-family="YanoneKaffeesatz-Regular,Yanone Kaffeesatz" font-size="42.0" fill="#787878" transform="matrix(1.00, 0.00, -0.00, -1.00, 232.5, 528.1)">d</text><text xml:space="preserve" font-family="YanoneKaffeesatz-Regular,Yanone Kaffeesatz" font-size="42.0" fill="#787878" transform="matrix(1.00, 0.00, -0.00, -1.00, 248.7, 528.1)">;</text><text xml:space="preserve" font-family="YanoneKaffeesatz-Regular,Yanone Kaffeesatz" font-size="42.0" fill="#787878" transform="matrix(1.00, 0.00, -0.00, -1.00, 256.4, 528.1)"> </text><text xml:space="preserve" font-family="YanoneKaffeesatz-Regular,Yanone Kaffeesatz" font-size="42.0" fill="#787878" transform="matrix(1.00, 0.00, -0.00, -1.00, 104.0, 479.1)">}</text><g><clipPath id="clip0x600000ca9ae0"><path d="M 154.8 460.5 L 170.0 460.5 L 169.8 364.5 L 154.6 364.6 Z M 154.8 460.5 "></path></clipPath><g clip-path="url(#clip0x600000ca9ae0)"><path d="M 0.2 82.3 L 0.2 80.8 L 0.0 0.0 " fill="none" stroke="#6AA7C5" stroke-width="3.00" transform="matrix(1.00, -0.00, -0.00, -1.00, 162.2, 459.5)"></path><path d="M 155.6 378.7 L 162.2 365.5 L 168.8 378.7 Z M 155.6 378.7 " fill="#6AA7C5"></path></g></g><g><clipPath id="clip0x600000ca9de0"><path d="M 91.9 298.7 L 455.1 298.7 L 455.1 372.0 L 91.9 372.0 Z M 91.9 298.7 "></path></clipPath><g clip-path="url(#clip0x600000ca9de0)"><text xml:space="preserve" font-family="YanoneKaffeesatz-Bold,Yanone Kaffeesatz" font-weight="bold" font-size="42.0" fill="#787878" transform="matrix(1.00, 0.00, -0.00, -1.00, 104.0, 320.5)">&lt;</text><text xml:space="preserve" font-family="YanoneKaffeesatz-Bold,Yanone Kaffeesatz" font-weight="bold" font-size="42.0" fill="#787878" transform="matrix(1.00, 0.00, -0.00, -1.00, 120.8, 320.5)">h</text><text xml:space="preserve" font-family="YanoneKaffeesatz-Bold,Yanone Kaffeesatz" font-weight="bold" font-size="42.0" fill="#787878" transform="matrix(1.00, 0.00, -0.00, -1.00, 136.0, 320.5)">1</text><text xml:space="preserve" font-family="YanoneKaffeesatz-Bold,Yanone Kaffeesatz" font-weight="bold" font-size="42.0" fill="#787878" transform="matrix(1.00, 0.00, -0.00, -1.00, 152.8, 320.5)">&gt;</text><text xml:space="preserve" font-family="YanoneKaffeesatz-Regular,Yanone Kaffeesatz" font-size="42.0" fill="#787878" transform="matrix(1.00, 0.00, -0.00, -1.00, 169.6, 320.5)"> </text><text xml:space="preserve" font-family="YanoneKaffeesatz-Regular,Yanone Kaffeesatz" font-size="42.0" fill="#787878" transform="matrix(1.00, 0.00, -0.00, -1.00, 176.2, 320.5)">H</text><text xml:space="preserve" font-family="YanoneKaffeesatz-Regular,Yanone Kaffeesatz" font-size="42.0" fill="#787878" transform="matrix(1.00, 0.00, -0.00, -1.00, 193.3, 320.5)">e</text><text xml:space="preserve" font-family="YanoneKaffeesatz-Regular,Yanone Kaffeesatz" font-size="42.0" fill="#787878" transform="matrix(1.00, 0.00, -0.00, -1.00, 208.5, 320.5)">l</text><text xml:space="preserve" font-family="YanoneKaffeesatz-Regular,Yanone Kaffeesatz" font-size="42.0" fill="#787878" transform="matrix(1.00, 0.00, -0.00, -1.00, 215.8, 320.5)">l</text><text xml:space="preserve" font-family="YanoneKaffeesatz-Regular,Yanone Kaffeesatz" font-size="42.0" fill="#787878" transform="matrix(1.00, 0.00, -0.00, -1.00, 223.0, 320.5)">o</text><text xml:space="preserve" font-family="YanoneKaffeesatz-Regular,Yanone Kaffeesatz" font-size="42.0" fill="#787878" transform="matrix(1.00, 0.00, -0.00, -1.00, 238.5, 320.5)"> </text><text xml:space="preserve" font-family="YanoneKaffeesatz-Regular,Yanone Kaffeesatz" font-size="42.0" fill="#787878" transform="matrix(1.00, 0.00, -0.00, -1.00, 245.1, 320.5)">W</text><text xml:space="preserve" font-family="YanoneKaffeesatz-Regular,Yanone Kaffeesatz" font-size="42.0" fill="#787878" transform="matrix(1.00, 0.00, -0.00, -1.00, 271.1, 320.5)">o</text><text xml:space="preserve" font-family="YanoneKaffeesatz-Regular,Yanone Kaffeesatz" font-size="42.0" fill="#787878" transform="matrix(1.00, 0.00, -0.00, -1.00, 286.5, 320.5)">r</text><text xml:space="preserve" font-family="YanoneKaffeesatz-Regular,Yanone Kaffeesatz" font-size="42.0" fill="#787878" transform="matrix(1.00, 0.00, -0.00, -1.00, 297.6, 320.5)">l</text><text xml:space="preserve" font-family="YanoneKaffeesatz-Regular,Yanone Kaffeesatz" font-size="42.0" fill="#787878" transform="matrix(1.00, 0.00, -0.00, -1.00, 304.8, 320.5)">d</text><text xml:space="preserve" font-family="YanoneKaffeesatz-Regular,Yanone Kaffeesatz" font-size="42.0" fill="#787878" transform="matrix(1.00, 0.00, -0.00, -1.00, 321.1, 320.5)">!</text><text xml:space="preserve" font-family="YanoneKaffeesatz-Regular,Yanone Kaffeesatz" font-size="42.0" fill="#787878" transform="matrix(1.00, 0.00, -0.00, -1.00, 329.2, 320.5)"> </text><text xml:space="preserve" font-family="YanoneKaffeesatz-Bold,Yanone Kaffeesatz" font-weight="bold" font-size="42.0" fill="#787878" transform="matrix(1.00, 0.00, -0.00, -1.00, 335.8, 320.5)">&lt;</text><text xml:space="preserve" font-family="YanoneKaffeesatz-Bold,Yanone Kaffeesatz" font-weight="bold" font-size="42.0" fill="#787878" transform="matrix(1.00, 0.00, -0.00, -1.00, 352.6, 320.5)">/</text><text xml:space="preserve" font-family="YanoneKaffeesatz-Bold,Yanone Kaffeesatz" font-weight="bold" font-size="42.0" fill="#787878" transform="matrix(1.00, 0.00, -0.00, -1.00, 368.1, 320.5)">h</text><text xml:space="preserve" font-family="YanoneKaffeesatz-Bold,Yanone Kaffeesatz" font-weight="bold" font-size="42.0" fill="#787878" transform="matrix(1.00, 0.00, -0.00, -1.00, 383.3, 320.5)">1</text><text xml:space="preserve" font-family="YanoneKaffeesatz-Bold,Yanone Kaffeesatz" font-weight="bold" font-size="42.0" fill="#787878" transform="matrix(1.00, 0.00, -0.00, -1.00, 400.1, 320.5)">&gt;</text></g></g><g><clipPath id="clip0x600000caa860"><path d="M 91.9 148.7 L 415.1 148.7 L 415.1 222.0 L 91.9 222.0 Z M 91.9 148.7 "></path></clipPath><g clip-path="url(#clip0x600000caa860)"><text xml:space="preserve" font-family="YanoneKaffeesatz-Regular,Yanone Kaffeesatz" font-size="42.0" fill="#FC4438" transform="matrix(1.00, 0.00, -0.00, -1.00, 104.0, 170.5)">H</text><text xml:space="preserve" font-family="YanoneKaffeesatz-Regular,Yanone Kaffeesatz" font-size="42.0" fill="#FC4438" transform="matrix(1.00, 0.00, -0.00, -1.00, 121.2, 170.5)">e</text><text xml:space="preserve" font-family="YanoneKaffeesatz-Regular,Yanone Kaffeesatz" font-size="42.0" fill="#FC4438" transform="matrix(1.00, 0.00, -0.00, -1.00, 136.3, 170.5)">l</text><text xml:space="preserve" font-family="YanoneKaffeesatz-Regular,Yanone Kaffeesatz" font-size="42.0" fill="#FC4438" transform="matrix(1.00, 0.00, -0.00, -1.00, 143.6, 170.5)">l</text><text xml:space="preserve" font-family="YanoneKaffeesatz-Regular,Yanone Kaffeesatz" font-size="42.0" fill="#FC4438" transform="matrix(1.00, 0.00, -0.00, -1.00, 150.9, 170.5)">o</text><text xml:space="preserve" font-family="YanoneKaffeesatz-Regular,Yanone Kaffeesatz" font-size="42.0" fill="#FC4438" transform="matrix(1.00, 0.00, -0.00, -1.00, 166.3, 170.5)"> </text><text xml:space="preserve" font-family="YanoneKaffeesatz-Regular,Yanone Kaffeesatz" font-size="42.0" fill="#FC4438" transform="matrix(1.00, 0.00, -0.00, -1.00, 172.9, 170.5)">W</text><text xml:space="preserve" font-family="YanoneKaffeesatz-Regular,Yanone Kaffeesatz" font-size="42.0" fill="#FC4438" transform="matrix(1.00, 0.00, -0.00, -1.00, 198.9, 170.5)">o</text><text xml:space="preserve" font-family="YanoneKaffeesatz-Regular,Yanone Kaffeesatz" font-size="42.0" fill="#FC4438" transform="matrix(1.00, 0.00, -0.00, -1.00, 214.4, 170.5)">r</text><text xml:space="preserve" font-family="YanoneKaffeesatz-Regular,Yanone Kaffeesatz" font-size="42.0" fill="#FC4438" transform="matrix(1.00, 0.00, -0.00, -1.00, 225.4, 170.5)">l</text><text xml:space="preserve" font-family="YanoneKaffeesatz-Regular,Yanone Kaffeesatz" font-size="42.0" fill="#FC4438" transform="matrix(1.00, 0.00, -0.00, -1.00, 232.7, 170.5)">d</text><text xml:space="preserve" font-family="YanoneKaffeesatz-Regular,Yanone Kaffeesatz" font-size="42.0" fill="#FC4438" transform="matrix(1.00, 0.00, -0.00, -1.00, 248.9, 170.5)">!</text></g></g><g><clipPath id="clip0x600000caaec0"><path d="M 154.8 305.0 L 170.0 305.0 L 169.8 209.0 L 154.6 209.1 Z M 154.8 305.0 "></path></clipPath><g clip-path="url(#clip0x600000caaec0)"><path d="M 0.2 82.3 L 0.2 80.8 L 0.0 0.0 " fill="none" stroke="#6AA7C5" stroke-width="3.00" transform="matrix(1.00, -0.00, -0.00, -1.00, 162.2, 304.0)"></path><path d="M 155.6 223.2 L 162.2 210.0 L 168.8 223.2 Z M 155.6 223.2 " fill="#6AA7C5"></path></g></g></g></svg>