<?xml version="1.0" encoding="UTF-8" standalone="no"?><svg xmlns="http://www.w3.org/2000/svg" xmlns:xlink="http://www.w3.org/1999/xlink" clip-rule="evenodd" stroke-miterlimit="10" viewBox="0 0 424 52"><desc>SVG generated by Keynote</desc><defs></defs><g transform="matrix(1.00, 0.00, -0.00, -1.00, 0.0, 52.0)"><text xml:space="preserve" font-family="YanoneKaffeesatz-Regular,Yanone Kaffeesatz" font-size="64.0" fill="#787878" transform="matrix(1.00, 0.00, -0.00, -1.00, 1.1, 3.2)">A</text><text xml:space="preserve" font-family="YanoneKaffeesatz-Regular,Yanone Kaffeesatz" font-size="64.0" fill="#787878" transform="matrix(1.00, 0.00, -0.00, -1.00, 29.1, 3.2)"> </text><text xml:space="preserve" font-family="YanoneKaffeesatz-Regular,Yanone Kaffeesatz" font-size="64.0" fill="#787878" transform="matrix(1.00, 0.00, -0.00, -1.00, 39.1, 3.2)">s</text><text xml:space="preserve" font-family="YanoneKaffeesatz-Regular,Yanone Kaffeesatz" font-size="64.0" fill="#787878" transform="matrix(1.00, 0.00, -0.00, -1.00, 61.2, 3.2)">e</text><text xml:space="preserve" font-family="YanoneKaffeesatz-Regular,Yanone Kaffeesatz" font-size="64.0" fill="#787878" transform="matrix(1.00, 0.00, -0.00, -1.00, 84.3, 3.2)">r</text><text xml:space="preserve" font-family="YanoneKaffeesatz-Regular,Yanone Kaffeesatz" font-size="64.0" fill="#787878" transform="matrix(1.00, 0.00, -0.00, -1.00, 101.1, 3.2)">i</text><text xml:space="preserve" font-family="YanoneKaffeesatz-Regular,Yanone Kaffeesatz" font-size="64.0" fill="#787878" transform="matrix(1.00, 0.00, -0.00, -1.00, 112.3, 3.2)">e</text><text xml:space="preserve" font-family="YanoneKaffeesatz-Regular,Yanone Kaffeesatz" font-size="64.0" fill="#787878" transform="matrix(1.00, 0.00, -0.00, -1.00, 135.4, 3.2)">s</text><text xml:space="preserve" font-family="YanoneKaffeesatz-Regular,Yanone Kaffeesatz" font-size="64.0" fill="#787878" transform="matrix(1.00, 0.00, -0.00, -1.00, 157.5, 3.2)"> </text><text xml:space="preserve" font-family="YanoneKaffeesatz-Regular,Yanone Kaffeesatz" font-size="64.0" fill="#787878" transform="matrix(1.00, 0.00, -0.00, -1.00, 167.6, 3.2)">o</text><text xml:space="preserve" font-family="YanoneKaffeesatz-Regular,Yanone Kaffeesatz" font-size="64.0" fill="#787878" transform="matrix(1.00, 0.00, -0.00, -1.00, 190.5, 3.2)">f</text><text xml:space="preserve" font-family="YanoneKaffeesatz-Regular,Yanone Kaffeesatz" font-size="64.0" fill="#787878" transform="matrix(1.00, 0.00, -0.00, -1.00, 206.8, 3.2)"> </text><text xml:space="preserve" font-family="YanoneKaffeesatz-Regular,Yanone Kaffeesatz" font-size="64.0" fill="#787878" transform="matrix(1.00, 0.00, -0.00, -1.00, 216.8, 3.2)">c</text><text xml:space="preserve" font-family="YanoneKaffeesatz-Regular,Yanone Kaffeesatz" font-size="64.0" fill="#787878" transform="matrix(1.00, 0.00, -0.00, -1.00, 236.9, 3.2)">h</text><text xml:space="preserve" font-family="YanoneKaffeesatz-Regular,Yanone Kaffeesatz" font-size="64.0" fill="#787878" transform="matrix(1.00, 0.00, -0.00, -1.00, 261.2, 3.2)">a</text><text xml:space="preserve" font-family="YanoneKaffeesatz-Regular,Yanone Kaffeesatz" font-size="64.0" fill="#787878" transform="matrix(1.00, 0.00, -0.00, -1.00, 283.8, 3.2)">r</text><text xml:space="preserve" font-family="YanoneKaffeesatz-Regular,Yanone Kaffeesatz" font-size="64.0" fill="#787878" transform="matrix(1.00, 0.00, -0.00, -1.00, 300.7, 3.2)">a</text><text xml:space="preserve" font-family="YanoneKaffeesatz-Regular,Yanone Kaffeesatz" font-size="64.0" fill="#787878" transform="matrix(1.00, 0.00, -0.00, -1.00, 323.3, 3.2)">c</text><text xml:space="preserve" font-family="YanoneKaffeesatz-Regular,Yanone Kaffeesatz" font-size="64.0" fill="#787878" transform="matrix(1.00, 0.00, -0.00, -1.00, 343.7, 3.2)">t</text><text xml:space="preserve" font-family="YanoneKaffeesatz-Regular,Yanone Kaffeesatz" font-size="64.0" fill="#787878" transform="matrix(1.00, 0.00, -0.00, -1.00, 360.9, 3.2)">e</text><text xml:space="preserve" font-family="YanoneKaffeesatz-Regular,Yanone Kaffeesatz" font-size="64.0" fill="#787878" transform="matrix(1.00, 0.00, -0.00, -1.00, 384.0, 3.2)">r</text><text xml:space="preserve" font-family="YanoneKaffeesatz-Regular,Yanone Kaffeesatz" font-size="64.0" fill="#787878" transform="matrix(1.00, 0.00, -0.00, -1.00, 400.8, 3.2)">s</text></g></svg>