<?xml version="1.0" encoding="UTF-8" standalone="no"?><svg xmlns="http://www.w3.org/2000/svg" xmlns:xlink="http://www.w3.org/1999/xlink" clip-rule="evenodd" stroke-miterlimit="10" viewBox="0 0 1024 768"><desc>SVG generated by Keynote</desc><defs></defs><g transform="matrix(1.00, 0.00, -0.00, -1.00, 0.0, 768.0)"><path d="M 0.0 768.0 L 1024.0 768.0 L 1024.0 0.0 L 0.0 0.0 Z M 0.0 768.0 " fill="#F1F2EC"></path><text xml:space="preserve" font-family="YanoneKaffeesatz-Regular,Yanone Kaffeesatz" font-size="72.0" fill="#787878" transform="matrix(1.00, 0.00, -0.00, -1.00, 104.0, 334.5)">v</text><text xml:space="preserve" font-family="YanoneKaffeesatz-Regular,Yanone Kaffeesatz" font-size="72.0" fill="#787878" transform="matrix(1.00, 0.00, -0.00, -1.00, 128.0, 334.5)">a</text><text xml:space="preserve" font-family="YanoneKaffeesatz-Regular,Yanone Kaffeesatz" font-size="72.0" fill="#787878" transform="matrix(1.00, 0.00, -0.00, -1.00, 153.5, 334.5)">r</text><text xml:space="preserve" font-family="YanoneKaffeesatz-Regular,Yanone Kaffeesatz" font-size="72.0" fill="#787878" transform="matrix(1.00, 0.00, -0.00, -1.00, 172.4, 334.5)"> </text><text xml:space="preserve" font-family="YanoneKaffeesatz-Regular,Yanone Kaffeesatz" font-size="72.0" fill="#787878" transform="matrix(1.00, 0.00, -0.00, -1.00, 183.7, 334.5)">x</text><text xml:space="preserve" font-family="YanoneKaffeesatz-Regular,Yanone Kaffeesatz" font-size="72.0" fill="#787878" transform="matrix(1.00, 0.00, -0.00, -1.00, 213.2, 334.5)"> </text><text xml:space="preserve" font-family="YanoneKaffeesatz-Regular,Yanone Kaffeesatz" font-size="72.0" fill="#787878" transform="matrix(1.00, 0.00, -0.00, -1.00, 224.5, 334.5)">=</text><text xml:space="preserve" font-family="YanoneKaffeesatz-Regular,Yanone Kaffeesatz" font-size="72.0" fill="#787878" transform="matrix(1.00, 0.00, -0.00, -1.00, 254.6, 334.5)"> </text><text xml:space="preserve" font-family="YanoneKaffeesatz-Regular,Yanone Kaffeesatz" font-size="72.0" fill="#787878" transform="matrix(1.00, 0.00, -0.00, -1.00, 265.9, 334.5)">5</text><text xml:space="preserve" font-family="YanoneKaffeesatz-Regular,Yanone Kaffeesatz" font-size="72.0" fill="#787878" transform="matrix(1.00, 0.00, -0.00, -1.00, 295.9, 334.5)">;</text><g><clipPath id="clip0x600000cb9a40"><path d="M 98.5 457.2 L 394.6 457.2 L 394.6 530.5 L 98.5 530.5 Z M 98.5 457.2 "></path></clipPath><g clip-path="url(#clip0x600000cb9a40)"><text xml:space="preserve" font-family="YanoneKaffeesatz-Regular,Yanone Kaffeesatz" font-size="42.0" fill="#FC4438" transform="matrix(1.00, 0.00, -0.00, -1.00, 111.2, 479.0)">A</text><text xml:space="preserve" font-family="YanoneKaffeesatz-Regular,Yanone Kaffeesatz" font-size="42.0" fill="#FC4438" transform="matrix(1.00, 0.00, -0.00, -1.00, 129.5, 479.0)">s</text><text xml:space="preserve" font-family="YanoneKaffeesatz-Regular,Yanone Kaffeesatz" font-size="42.0" fill="#FC4438" transform="matrix(1.00, 0.00, -0.00, -1.00, 144.0, 479.0)">s</text><text xml:space="preserve" font-family="YanoneKaffeesatz-Regular,Yanone Kaffeesatz" font-size="42.0" fill="#FC4438" transform="matrix(1.00, 0.00, -0.00, -1.00, 158.5, 479.0)">i</text><text xml:space="preserve" font-family="YanoneKaffeesatz-Regular,Yanone Kaffeesatz" font-size="42.0" fill="#FC4438" transform="matrix(1.00, 0.00, -0.00, -1.00, 165.9, 479.0)">g</text><text xml:space="preserve" font-family="YanoneKaffeesatz-Regular,Yanone Kaffeesatz" font-size="42.0" fill="#FC4438" transform="matrix(1.00, 0.00, -0.00, -1.00, 182.4, 479.0)">n</text><text xml:space="preserve" font-family="YanoneKaffeesatz-Regular,Yanone Kaffeesatz" font-size="42.0" fill="#FC4438" transform="matrix(1.00, 0.00, -0.00, -1.00, 198.4, 479.0)">m</text><text xml:space="preserve" font-family="YanoneKaffeesatz-Regular,Yanone Kaffeesatz" font-size="42.0" fill="#FC4438" transform="matrix(1.00, 0.00, -0.00, -1.00, 222.1, 479.0)">e</text><text xml:space="preserve" font-family="YanoneKaffeesatz-Regular,Yanone Kaffeesatz" font-size="42.0" fill="#FC4438" transform="matrix(1.00, 0.00, -0.00, -1.00, 237.2, 479.0)">n</text><text xml:space="preserve" font-family="YanoneKaffeesatz-Regular,Yanone Kaffeesatz" font-size="42.0" fill="#FC4438" transform="matrix(1.00, 0.00, -0.00, -1.00, 253.3, 479.0)">t</text><text xml:space="preserve" font-family="YanoneKaffeesatz-Regular,Yanone Kaffeesatz" font-size="42.0" fill="#FC4438" transform="matrix(1.00, 0.00, -0.00, -1.00, 265.5, 479.0)"> </text><text xml:space="preserve" font-family="YanoneKaffeesatz-Regular,Yanone Kaffeesatz" font-size="42.0" fill="#FC4438" transform="matrix(1.00, 0.00, -0.00, -1.00, 272.1, 479.0)">o</text><text xml:space="preserve" font-family="YanoneKaffeesatz-Regular,Yanone Kaffeesatz" font-size="42.0" fill="#FC4438" transform="matrix(1.00, 0.00, -0.00, -1.00, 287.5, 479.0)">p</text><text xml:space="preserve" font-family="YanoneKaffeesatz-Regular,Yanone Kaffeesatz" font-size="42.0" fill="#FC4438" transform="matrix(1.00, 0.00, -0.00, -1.00, 303.6, 479.0)">e</text><text xml:space="preserve" font-family="YanoneKaffeesatz-Regular,Yanone Kaffeesatz" font-size="42.0" fill="#FC4438" transform="matrix(1.00, 0.00, -0.00, -1.00, 318.8, 479.0)">r</text><text xml:space="preserve" font-family="YanoneKaffeesatz-Regular,Yanone Kaffeesatz" font-size="42.0" fill="#FC4438" transform="matrix(1.00, 0.00, -0.00, -1.00, 329.8, 479.0)">a</text><text xml:space="preserve" font-family="YanoneKaffeesatz-Regular,Yanone Kaffeesatz" font-size="42.0" fill="#FC4438" transform="matrix(1.00, 0.00, -0.00, -1.00, 344.0, 479.0)">t</text><text xml:space="preserve" font-family="YanoneKaffeesatz-Regular,Yanone Kaffeesatz" font-size="42.0" fill="#FC4438" transform="matrix(1.00, 0.00, -0.00, -1.00, 355.5, 479.0)">o</text><text xml:space="preserve" font-family="YanoneKaffeesatz-Regular,Yanone Kaffeesatz" font-size="42.0" fill="#FC4438" transform="matrix(1.00, 0.00, -0.00, -1.00, 371.0, 479.0)">r</text></g></g><g><clipPath id="clip0x600000cba340"><path d="M 231.3 461.7 L 246.5 461.6 L 246.0 377.8 L 230.8 377.9 Z M 231.3 461.7 "></path></clipPath><g clip-path="url(#clip0x600000cba340)"><path d="M 0.4 70.1 L 0.4 68.6 L 0.0 0.0 " fill="none" stroke="#FC4438" stroke-width="3.00" transform="matrix(1.00, -0.01, -0.01, -1.00, 238.5, 460.6)"></path><path d="M 231.9 392.0 L 238.5 378.8 L 245.1 392.0 Z M 231.9 392.0 " fill="#FC4438"></path></g></g></g></svg>