<?xml version="1.0" encoding="UTF-8" standalone="no"?><svg xmlns="http://www.w3.org/2000/svg" xmlns:xlink="http://www.w3.org/1999/xlink" clip-rule="evenodd" stroke-miterlimit="10" viewBox="0 0 479 57"><desc>SVG generated by Keynote</desc><defs></defs><g transform="matrix(1.00, 0.00, -0.00, -1.00, 0.0, 57.0)"><text xml:space="preserve" font-family="YanoneKaffeesatz-Regular,Yanone Kaffeesatz" font-size="72.0" fill="#787878" transform="matrix(1.00, 0.00, -0.00, -1.00, -1.0, 2.5)">I</text><text xml:space="preserve" font-family="YanoneKaffeesatz-Regular,Yanone Kaffeesatz" font-size="72.0" fill="#787878" transform="matrix(1.00, 0.00, -0.00, -1.00, 11.1, 2.5)">n</text><text xml:space="preserve" font-family="YanoneKaffeesatz-Regular,Yanone Kaffeesatz" font-size="72.0" fill="#787878" transform="matrix(1.00, 0.00, -0.00, -1.00, 38.6, 2.5)">t</text><text xml:space="preserve" font-family="YanoneKaffeesatz-Regular,Yanone Kaffeesatz" font-size="72.0" fill="#787878" transform="matrix(1.00, 0.00, -0.00, -1.00, 57.9, 2.5)">e</text><text xml:space="preserve" font-family="YanoneKaffeesatz-Regular,Yanone Kaffeesatz" font-size="72.0" fill="#787878" transform="matrix(1.00, 0.00, -0.00, -1.00, 83.9, 2.5)">r</text><text xml:space="preserve" font-family="YanoneKaffeesatz-Regular,Yanone Kaffeesatz" font-size="72.0" fill="#787878" transform="matrix(1.00, 0.00, -0.00, -1.00, 102.9, 2.5)">a</text><text xml:space="preserve" font-family="YanoneKaffeesatz-Regular,Yanone Kaffeesatz" font-size="72.0" fill="#787878" transform="matrix(1.00, 0.00, -0.00, -1.00, 128.4, 2.5)">c</text><text xml:space="preserve" font-family="YanoneKaffeesatz-Regular,Yanone Kaffeesatz" font-size="72.0" fill="#787878" transform="matrix(1.00, 0.00, -0.00, -1.00, 151.3, 2.5)">t</text><text xml:space="preserve" font-family="YanoneKaffeesatz-Regular,Yanone Kaffeesatz" font-size="72.0" fill="#787878" transform="matrix(1.00, 0.00, -0.00, -1.00, 172.3, 2.5)"> </text><text xml:space="preserve" font-family="YanoneKaffeesatz-Regular,Yanone Kaffeesatz" font-size="72.0" fill="#787878" transform="matrix(1.00, 0.00, -0.00, -1.00, 183.6, 2.5)">w</text><text xml:space="preserve" font-family="YanoneKaffeesatz-Regular,Yanone Kaffeesatz" font-size="72.0" fill="#787878" transform="matrix(1.00, 0.00, -0.00, -1.00, 222.5, 2.5)">i</text><text xml:space="preserve" font-family="YanoneKaffeesatz-Regular,Yanone Kaffeesatz" font-size="72.0" fill="#787878" transform="matrix(1.00, 0.00, -0.00, -1.00, 235.1, 2.5)">t</text><text xml:space="preserve" font-family="YanoneKaffeesatz-Regular,Yanone Kaffeesatz" font-size="72.0" fill="#787878" transform="matrix(1.00, 0.00, -0.00, -1.00, 256.0, 2.5)">h</text><text xml:space="preserve" font-family="YanoneKaffeesatz-Regular,Yanone Kaffeesatz" font-size="72.0" fill="#787878" transform="matrix(1.00, 0.00, -0.00, -1.00, 283.4, 2.5)"> </text><text xml:space="preserve" font-family="YanoneKaffeesatz-Regular,Yanone Kaffeesatz" font-size="72.0" fill="#787878" transform="matrix(1.00, 0.00, -0.00, -1.00, 294.7, 2.5)">t</text><text xml:space="preserve" font-family="YanoneKaffeesatz-Regular,Yanone Kaffeesatz" font-size="72.0" fill="#787878" transform="matrix(1.00, 0.00, -0.00, -1.00, 315.6, 2.5)">h</text><text xml:space="preserve" font-family="YanoneKaffeesatz-Regular,Yanone Kaffeesatz" font-size="72.0" fill="#787878" transform="matrix(1.00, 0.00, -0.00, -1.00, 343.0, 2.5)">e</text><text xml:space="preserve" font-family="YanoneKaffeesatz-Regular,Yanone Kaffeesatz" font-size="72.0" fill="#787878" transform="matrix(1.00, 0.00, -0.00, -1.00, 369.0, 2.5)"> </text><text xml:space="preserve" font-family="YanoneKaffeesatz-Regular,Yanone Kaffeesatz" font-size="72.0" fill="#787878" transform="matrix(1.00, 0.00, -0.00, -1.00, 380.3, 2.5)">u</text><text xml:space="preserve" font-family="YanoneKaffeesatz-Regular,Yanone Kaffeesatz" font-size="72.0" fill="#787878" transform="matrix(1.00, 0.00, -0.00, -1.00, 408.4, 2.5)">s</text><text xml:space="preserve" font-family="YanoneKaffeesatz-Regular,Yanone Kaffeesatz" font-size="72.0" fill="#787878" transform="matrix(1.00, 0.00, -0.00, -1.00, 433.2, 2.5)">e</text><text xml:space="preserve" font-family="YanoneKaffeesatz-Regular,Yanone Kaffeesatz" font-size="72.0" fill="#787878" transform="matrix(1.00, 0.00, -0.00, -1.00, 459.2, 2.5)">r</text></g></svg>