<?xml version="1.0" encoding="UTF-8" standalone="no"?><svg xmlns="http://www.w3.org/2000/svg" xmlns:xlink="http://www.w3.org/1999/xlink" clip-rule="evenodd" stroke-miterlimit="10" viewBox="0 0 1024 768"><desc>SVG generated by Keynote</desc><defs></defs><g transform="matrix(1.00, 0.00, -0.00, -1.00, 0.0, 768.0)"><path d="M 0.0 768.0 L 1024.0 768.0 L 1024.0 0.0 L 0.0 0.0 Z M 0.0 768.0 " fill="#F1F2EC"></path><text xml:space="preserve" font-family="YanoneKaffeesatz-Regular,Yanone Kaffeesatz" font-size="72.0" fill="#787878" transform="matrix(1.00, 0.00, -0.00, -1.00, 104.0, 639.5)">I</text><text xml:space="preserve" font-family="YanoneKaffeesatz-Regular,Yanone Kaffeesatz" font-size="72.0" fill="#787878" transform="matrix(1.00, 0.00, -0.00, -1.00, 116.1, 639.5)">n</text><text xml:space="preserve" font-family="YanoneKaffeesatz-Regular,Yanone Kaffeesatz" font-size="72.0" fill="#787878" transform="matrix(1.00, 0.00, -0.00, -1.00, 143.6, 639.5)">t</text><text xml:space="preserve" font-family="YanoneKaffeesatz-Regular,Yanone Kaffeesatz" font-size="72.0" fill="#787878" transform="matrix(1.00, 0.00, -0.00, -1.00, 162.9, 639.5)">e</text><text xml:space="preserve" font-family="YanoneKaffeesatz-Regular,Yanone Kaffeesatz" font-size="72.0" fill="#787878" transform="matrix(1.00, 0.00, -0.00, -1.00, 188.9, 639.5)">r</text><text xml:space="preserve" font-family="YanoneKaffeesatz-Regular,Yanone Kaffeesatz" font-size="72.0" fill="#787878" transform="matrix(1.00, 0.00, -0.00, -1.00, 207.9, 639.5)">a</text><text xml:space="preserve" font-family="YanoneKaffeesatz-Regular,Yanone Kaffeesatz" font-size="72.0" fill="#787878" transform="matrix(1.00, 0.00, -0.00, -1.00, 233.4, 639.5)">c</text><text xml:space="preserve" font-family="YanoneKaffeesatz-Regular,Yanone Kaffeesatz" font-size="72.0" fill="#787878" transform="matrix(1.00, 0.00, -0.00, -1.00, 256.3, 639.5)">t</text><text xml:space="preserve" font-family="YanoneKaffeesatz-Regular,Yanone Kaffeesatz" font-size="72.0" fill="#787878" transform="matrix(1.00, 0.00, -0.00, -1.00, 277.3, 639.5)"> </text><text xml:space="preserve" font-family="YanoneKaffeesatz-Regular,Yanone Kaffeesatz" font-size="72.0" fill="#787878" transform="matrix(1.00, 0.00, -0.00, -1.00, 288.6, 639.5)">w</text><text xml:space="preserve" font-family="YanoneKaffeesatz-Regular,Yanone Kaffeesatz" font-size="72.0" fill="#787878" transform="matrix(1.00, 0.00, -0.00, -1.00, 327.5, 639.5)">i</text><text xml:space="preserve" font-family="YanoneKaffeesatz-Regular,Yanone Kaffeesatz" font-size="72.0" fill="#787878" transform="matrix(1.00, 0.00, -0.00, -1.00, 340.1, 639.5)">t</text><text xml:space="preserve" font-family="YanoneKaffeesatz-Regular,Yanone Kaffeesatz" font-size="72.0" fill="#787878" transform="matrix(1.00, 0.00, -0.00, -1.00, 361.0, 639.5)">h</text><text xml:space="preserve" font-family="YanoneKaffeesatz-Regular,Yanone Kaffeesatz" font-size="72.0" fill="#787878" transform="matrix(1.00, 0.00, -0.00, -1.00, 388.4, 639.5)"> </text><text xml:space="preserve" font-family="YanoneKaffeesatz-Regular,Yanone Kaffeesatz" font-size="72.0" fill="#787878" transform="matrix(1.00, 0.00, -0.00, -1.00, 399.7, 639.5)">t</text><text xml:space="preserve" font-family="YanoneKaffeesatz-Regular,Yanone Kaffeesatz" font-size="72.0" fill="#787878" transform="matrix(1.00, 0.00, -0.00, -1.00, 420.6, 639.5)">h</text><text xml:space="preserve" font-family="YanoneKaffeesatz-Regular,Yanone Kaffeesatz" font-size="72.0" fill="#787878" transform="matrix(1.00, 0.00, -0.00, -1.00, 448.0, 639.5)">e</text><text xml:space="preserve" font-family="YanoneKaffeesatz-Regular,Yanone Kaffeesatz" font-size="72.0" fill="#787878" transform="matrix(1.00, 0.00, -0.00, -1.00, 474.0, 639.5)"> </text><text xml:space="preserve" font-family="YanoneKaffeesatz-Regular,Yanone Kaffeesatz" font-size="72.0" fill="#787878" transform="matrix(1.00, 0.00, -0.00, -1.00, 485.3, 639.5)">u</text><text xml:space="preserve" font-family="YanoneKaffeesatz-Regular,Yanone Kaffeesatz" font-size="72.0" fill="#787878" transform="matrix(1.00, 0.00, -0.00, -1.00, 513.4, 639.5)">s</text><text xml:space="preserve" font-family="YanoneKaffeesatz-Regular,Yanone Kaffeesatz" font-size="72.0" fill="#787878" transform="matrix(1.00, 0.00, -0.00, -1.00, 538.2, 639.5)">e</text><text xml:space="preserve" font-family="YanoneKaffeesatz-Regular,Yanone Kaffeesatz" font-size="72.0" fill="#787878" transform="matrix(1.00, 0.00, -0.00, -1.00, 564.2, 639.5)">r</text><text xml:space="preserve" font-family="YanoneKaffeesatz-Regular,Yanone Kaffeesatz" font-size="72.0" fill="#787878" transform="matrix(1.00, 0.00, -0.00, -1.00, 492.8, 484.5)">C</text><text xml:space="preserve" font-family="YanoneKaffeesatz-Regular,Yanone Kaffeesatz" font-size="72.0" fill="#787878" transform="matrix(1.00, 0.00, -0.00, -1.00, 516.2, 484.5)">o</text><text xml:space="preserve" font-family="YanoneKaffeesatz-Regular,Yanone Kaffeesatz" font-size="72.0" fill="#787878" transform="matrix(1.00, 0.00, -0.00, -1.00, 542.7, 484.5)">n</text><text xml:space="preserve" font-family="YanoneKaffeesatz-Regular,Yanone Kaffeesatz" font-size="72.0" fill="#787878" transform="matrix(1.00, 0.00, -0.00, -1.00, 570.2, 484.5)">t</text><text xml:space="preserve" font-family="YanoneKaffeesatz-Regular,Yanone Kaffeesatz" font-size="72.0" fill="#787878" transform="matrix(1.00, 0.00, -0.00, -1.00, 591.1, 484.5)">r</text><text xml:space="preserve" font-family="YanoneKaffeesatz-Regular,Yanone Kaffeesatz" font-size="72.0" fill="#787878" transform="matrix(1.00, 0.00, -0.00, -1.00, 608.6, 484.5)">o</text><text xml:space="preserve" font-family="YanoneKaffeesatz-Regular,Yanone Kaffeesatz" font-size="72.0" fill="#787878" transform="matrix(1.00, 0.00, -0.00, -1.00, 635.1, 484.5)">l</text><text xml:space="preserve" font-family="YanoneKaffeesatz-Regular,Yanone Kaffeesatz" font-size="72.0" fill="#787878" transform="matrix(1.00, 0.00, -0.00, -1.00, 647.6, 484.5)"> </text><text xml:space="preserve" font-family="YanoneKaffeesatz-Regular,Yanone Kaffeesatz" font-size="72.0" fill="#787878" transform="matrix(1.00, 0.00, -0.00, -1.00, 658.9, 484.5)">t</text><text xml:space="preserve" font-family="YanoneKaffeesatz-Regular,Yanone Kaffeesatz" font-size="72.0" fill="#787878" transform="matrix(1.00, 0.00, -0.00, -1.00, 679.8, 484.5)">h</text><text xml:space="preserve" font-family="YanoneKaffeesatz-Regular,Yanone Kaffeesatz" font-size="72.0" fill="#787878" transform="matrix(1.00, 0.00, -0.00, -1.00, 707.2, 484.5)">e</text><text xml:space="preserve" font-family="YanoneKaffeesatz-Regular,Yanone Kaffeesatz" font-size="72.0" fill="#787878" transform="matrix(1.00, 0.00, -0.00, -1.00, 733.2, 484.5)"> </text><text xml:space="preserve" font-family="YanoneKaffeesatz-Regular,Yanone Kaffeesatz" font-size="72.0" fill="#787878" transform="matrix(1.00, 0.00, -0.00, -1.00, 744.5, 484.5)">b</text><text xml:space="preserve" font-family="YanoneKaffeesatz-Regular,Yanone Kaffeesatz" font-size="72.0" fill="#787878" transform="matrix(1.00, 0.00, -0.00, -1.00, 772.1, 484.5)">r</text><text xml:space="preserve" font-family="YanoneKaffeesatz-Regular,Yanone Kaffeesatz" font-size="72.0" fill="#787878" transform="matrix(1.00, 0.00, -0.00, -1.00, 789.5, 484.5)">o</text><text xml:space="preserve" font-family="YanoneKaffeesatz-Regular,Yanone Kaffeesatz" font-size="72.0" fill="#787878" transform="matrix(1.00, 0.00, -0.00, -1.00, 815.3, 484.5)">w</text><text xml:space="preserve" font-family="YanoneKaffeesatz-Regular,Yanone Kaffeesatz" font-size="72.0" fill="#787878" transform="matrix(1.00, 0.00, -0.00, -1.00, 853.5, 484.5)">s</text><text xml:space="preserve" font-family="YanoneKaffeesatz-Regular,Yanone Kaffeesatz" font-size="72.0" fill="#787878" transform="matrix(1.00, 0.00, -0.00, -1.00, 878.3, 484.5)">e</text><text xml:space="preserve" font-family="YanoneKaffeesatz-Regular,Yanone Kaffeesatz" font-size="72.0" fill="#787878" transform="matrix(1.00, 0.00, -0.00, -1.00, 904.3, 484.5)">r</text><text xml:space="preserve" font-family="YanoneKaffeesatz-Regular,Yanone Kaffeesatz" font-size="72.0" fill="#787878" transform="matrix(1.00, 0.00, -0.00, -1.00, 104.8, 329.5)">C</text><text xml:space="preserve" font-family="YanoneKaffeesatz-Regular,Yanone Kaffeesatz" font-size="72.0" fill="#787878" transform="matrix(1.00, 0.00, -0.00, -1.00, 128.1, 329.5)">o</text><text xml:space="preserve" font-family="YanoneKaffeesatz-Regular,Yanone Kaffeesatz" font-size="72.0" fill="#787878" transform="matrix(1.00, 0.00, -0.00, -1.00, 154.6, 329.5)">m</text><text xml:space="preserve" font-family="YanoneKaffeesatz-Regular,Yanone Kaffeesatz" font-size="72.0" fill="#787878" transform="matrix(1.00, 0.00, -0.00, -1.00, 195.1, 329.5)">m</text><text xml:space="preserve" font-family="YanoneKaffeesatz-Regular,Yanone Kaffeesatz" font-size="72.0" fill="#787878" transform="matrix(1.00, 0.00, -0.00, -1.00, 235.7, 329.5)">u</text><text xml:space="preserve" font-family="YanoneKaffeesatz-Regular,Yanone Kaffeesatz" font-size="72.0" fill="#787878" transform="matrix(1.00, 0.00, -0.00, -1.00, 263.7, 329.5)">n</text><text xml:space="preserve" font-family="YanoneKaffeesatz-Regular,Yanone Kaffeesatz" font-size="72.0" fill="#787878" transform="matrix(1.00, 0.00, -0.00, -1.00, 291.3, 329.5)">i</text><text xml:space="preserve" font-family="YanoneKaffeesatz-Regular,Yanone Kaffeesatz" font-size="72.0" fill="#787878" transform="matrix(1.00, 0.00, -0.00, -1.00, 303.9, 329.5)">c</text><text xml:space="preserve" font-family="YanoneKaffeesatz-Regular,Yanone Kaffeesatz" font-size="72.0" fill="#787878" transform="matrix(1.00, 0.00, -0.00, -1.00, 326.4, 329.5)">a</text><text xml:space="preserve" font-family="YanoneKaffeesatz-Regular,Yanone Kaffeesatz" font-size="72.0" fill="#787878" transform="matrix(1.00, 0.00, -0.00, -1.00, 350.7, 329.5)">t</text><text xml:space="preserve" font-family="YanoneKaffeesatz-Regular,Yanone Kaffeesatz" font-size="72.0" fill="#787878" transform="matrix(1.00, 0.00, -0.00, -1.00, 369.9, 329.5)">e</text><text xml:space="preserve" font-family="YanoneKaffeesatz-Regular,Yanone Kaffeesatz" font-size="72.0" fill="#787878" transform="matrix(1.00, 0.00, -0.00, -1.00, 395.9, 329.5)"> </text><text xml:space="preserve" font-family="YanoneKaffeesatz-Regular,Yanone Kaffeesatz" font-size="72.0" fill="#787878" transform="matrix(1.00, 0.00, -0.00, -1.00, 407.2, 329.5)">a</text><text xml:space="preserve" font-family="YanoneKaffeesatz-Regular,Yanone Kaffeesatz" font-size="72.0" fill="#787878" transform="matrix(1.00, 0.00, -0.00, -1.00, 432.7, 329.5)">s</text><text xml:space="preserve" font-family="YanoneKaffeesatz-Regular,Yanone Kaffeesatz" font-size="72.0" fill="#787878" transform="matrix(1.00, 0.00, -0.00, -1.00, 457.3, 329.5)">y</text><text xml:space="preserve" font-family="YanoneKaffeesatz-Regular,Yanone Kaffeesatz" font-size="72.0" fill="#787878" transform="matrix(1.00, 0.00, -0.00, -1.00, 482.9, 329.5)">n</text><text xml:space="preserve" font-family="YanoneKaffeesatz-Regular,Yanone Kaffeesatz" font-size="72.0" fill="#787878" transform="matrix(1.00, 0.00, -0.00, -1.00, 510.4, 329.5)">c</text><text xml:space="preserve" font-family="YanoneKaffeesatz-Regular,Yanone Kaffeesatz" font-size="72.0" fill="#787878" transform="matrix(1.00, 0.00, -0.00, -1.00, 533.0, 329.5)">h</text><text xml:space="preserve" font-family="YanoneKaffeesatz-Regular,Yanone Kaffeesatz" font-size="72.0" fill="#787878" transform="matrix(1.00, 0.00, -0.00, -1.00, 560.3, 329.5)">r</text><text xml:space="preserve" font-family="YanoneKaffeesatz-Regular,Yanone Kaffeesatz" font-size="72.0" fill="#787878" transform="matrix(1.00, 0.00, -0.00, -1.00, 577.8, 329.5)">o</text><text xml:space="preserve" font-family="YanoneKaffeesatz-Regular,Yanone Kaffeesatz" font-size="72.0" fill="#787878" transform="matrix(1.00, 0.00, -0.00, -1.00, 604.3, 329.5)">n</text><text xml:space="preserve" font-family="YanoneKaffeesatz-Regular,Yanone Kaffeesatz" font-size="72.0" fill="#787878" transform="matrix(1.00, 0.00, -0.00, -1.00, 631.8, 329.5)">o</text><text xml:space="preserve" font-family="YanoneKaffeesatz-Regular,Yanone Kaffeesatz" font-size="72.0" fill="#787878" transform="matrix(1.00, 0.00, -0.00, -1.00, 658.3, 329.5)">u</text><text xml:space="preserve" font-family="YanoneKaffeesatz-Regular,Yanone Kaffeesatz" font-size="72.0" fill="#787878" transform="matrix(1.00, 0.00, -0.00, -1.00, 686.4, 329.5)">s</text><text xml:space="preserve" font-family="YanoneKaffeesatz-Regular,Yanone Kaffeesatz" font-size="72.0" fill="#787878" transform="matrix(1.00, 0.00, -0.00, -1.00, 711.2, 329.5)">l</text><text xml:space="preserve" font-family="YanoneKaffeesatz-Regular,Yanone Kaffeesatz" font-size="72.0" fill="#787878" transform="matrix(1.00, 0.00, -0.00, -1.00, 723.7, 329.5)">y</text><text xml:space="preserve" font-family="YanoneKaffeesatz-Regular,Yanone Kaffeesatz" font-size="72.0" fill="#787878" transform="matrix(1.00, 0.00, -0.00, -1.00, 405.7, 174.5)">A</text><text xml:space="preserve" font-family="YanoneKaffeesatz-Regular,Yanone Kaffeesatz" font-size="72.0" fill="#787878" transform="matrix(1.00, 0.00, -0.00, -1.00, 437.2, 174.5)">l</text><text xml:space="preserve" font-family="YanoneKaffeesatz-Regular,Yanone Kaffeesatz" font-size="72.0" fill="#787878" transform="matrix(1.00, 0.00, -0.00, -1.00, 449.6, 174.5)">t</text><text xml:space="preserve" font-family="YanoneKaffeesatz-Regular,Yanone Kaffeesatz" font-size="72.0" fill="#787878" transform="matrix(1.00, 0.00, -0.00, -1.00, 468.9, 174.5)">e</text><text xml:space="preserve" font-family="YanoneKaffeesatz-Regular,Yanone Kaffeesatz" font-size="72.0" fill="#787878" transform="matrix(1.00, 0.00, -0.00, -1.00, 494.9, 174.5)">r</text><text xml:space="preserve" font-family="YanoneKaffeesatz-Regular,Yanone Kaffeesatz" font-size="72.0" fill="#787878" transform="matrix(1.00, 0.00, -0.00, -1.00, 513.8, 174.5)"> </text><text xml:space="preserve" font-family="YanoneKaffeesatz-Regular,Yanone Kaffeesatz" font-size="72.0" fill="#787878" transform="matrix(1.00, 0.00, -0.00, -1.00, 525.2, 174.5)">w</text><text xml:space="preserve" font-family="YanoneKaffeesatz-Regular,Yanone Kaffeesatz" font-size="72.0" fill="#787878" transform="matrix(1.00, 0.00, -0.00, -1.00, 562.3, 174.5)">e</text><text xml:space="preserve" font-family="YanoneKaffeesatz-Regular,Yanone Kaffeesatz" font-size="72.0" fill="#787878" transform="matrix(1.00, 0.00, -0.00, -1.00, 588.3, 174.5)">b</text><text xml:space="preserve" font-family="YanoneKaffeesatz-Regular,Yanone Kaffeesatz" font-size="72.0" fill="#787878" transform="matrix(1.00, 0.00, -0.00, -1.00, 615.9, 174.5)"> </text><text xml:space="preserve" font-family="YanoneKaffeesatz-Regular,Yanone Kaffeesatz" font-size="72.0" fill="#787878" transform="matrix(1.00, 0.00, -0.00, -1.00, 627.2, 174.5)">p</text><text xml:space="preserve" font-family="YanoneKaffeesatz-Regular,Yanone Kaffeesatz" font-size="72.0" fill="#787878" transform="matrix(1.00, 0.00, -0.00, -1.00, 654.2, 174.5)">a</text><text xml:space="preserve" font-family="YanoneKaffeesatz-Regular,Yanone Kaffeesatz" font-size="72.0" fill="#787878" transform="matrix(1.00, 0.00, -0.00, -1.00, 679.7, 174.5)">g</text><text xml:space="preserve" font-family="YanoneKaffeesatz-Regular,Yanone Kaffeesatz" font-size="72.0" fill="#787878" transform="matrix(1.00, 0.00, -0.00, -1.00, 707.7, 174.5)">e</text><text xml:space="preserve" font-family="YanoneKaffeesatz-Regular,Yanone Kaffeesatz" font-size="72.0" fill="#787878" transform="matrix(1.00, 0.00, -0.00, -1.00, 733.7, 174.5)"> </text><text xml:space="preserve" font-family="YanoneKaffeesatz-Regular,Yanone Kaffeesatz" font-size="72.0" fill="#787878" transform="matrix(1.00, 0.00, -0.00, -1.00, 745.0, 174.5)">c</text><text xml:space="preserve" font-family="YanoneKaffeesatz-Regular,Yanone Kaffeesatz" font-size="72.0" fill="#787878" transform="matrix(1.00, 0.00, -0.00, -1.00, 766.6, 174.5)">o</text><text xml:space="preserve" font-family="YanoneKaffeesatz-Regular,Yanone Kaffeesatz" font-size="72.0" fill="#787878" transform="matrix(1.00, 0.00, -0.00, -1.00, 793.1, 174.5)">n</text><text xml:space="preserve" font-family="YanoneKaffeesatz-Regular,Yanone Kaffeesatz" font-size="72.0" fill="#787878" transform="matrix(1.00, 0.00, -0.00, -1.00, 820.6, 174.5)">t</text><text xml:space="preserve" font-family="YanoneKaffeesatz-Regular,Yanone Kaffeesatz" font-size="72.0" fill="#787878" transform="matrix(1.00, 0.00, -0.00, -1.00, 839.9, 174.5)">e</text><text xml:space="preserve" font-family="YanoneKaffeesatz-Regular,Yanone Kaffeesatz" font-size="72.0" fill="#787878" transform="matrix(1.00, 0.00, -0.00, -1.00, 865.9, 174.5)">n</text><text xml:space="preserve" font-family="YanoneKaffeesatz-Regular,Yanone Kaffeesatz" font-size="72.0" fill="#787878" transform="matrix(1.00, 0.00, -0.00, -1.00, 893.4, 174.5)">t</text></g></svg>