<?xml version="1.0" encoding="UTF-8" standalone="no"?><svg xmlns="http://www.w3.org/2000/svg" xmlns:xlink="http://www.w3.org/1999/xlink" clip-rule="evenodd" stroke-miterlimit="10" viewBox="0 0 313 147"><desc>SVG generated by Keynote</desc><defs></defs><g transform="matrix(1.00, 0.00, -0.00, -1.00, 0.0, 147.0)"><g><clipPath id="clip0x608000ea9480"><path d="M -8.0 70.4 L 321.1 70.4 L 321.1 155.2 L -8.0 155.2 Z M -8.0 70.4 "></path></clipPath><g clip-path="url(#clip0x608000ea9480)"><text xml:space="preserve" font-family="YanoneKaffeesatz-Regular,Yanone Kaffeesatz" font-size="48.0" fill="#FC4438" transform="matrix(1.00, 0.00, -0.00, -1.00, 6.4, 95.3)">V</text><text xml:space="preserve" font-family="YanoneKaffeesatz-Regular,Yanone Kaffeesatz" font-size="48.0" fill="#FC4438" transform="matrix(1.00, 0.00, -0.00, -1.00, 24.7, 95.3)">a</text><text xml:space="preserve" font-family="YanoneKaffeesatz-Regular,Yanone Kaffeesatz" font-size="48.0" fill="#FC4438" transform="matrix(1.00, 0.00, -0.00, -1.00, 41.7, 95.3)">l</text><text xml:space="preserve" font-family="YanoneKaffeesatz-Regular,Yanone Kaffeesatz" font-size="48.0" fill="#FC4438" transform="matrix(1.00, 0.00, -0.00, -1.00, 50.0, 95.3)">u</text><text xml:space="preserve" font-family="YanoneKaffeesatz-Regular,Yanone Kaffeesatz" font-size="48.0" fill="#FC4438" transform="matrix(1.00, 0.00, -0.00, -1.00, 68.7, 95.3)">e</text><text xml:space="preserve" font-family="YanoneKaffeesatz-Regular,Yanone Kaffeesatz" font-size="48.0" fill="#FC4438" transform="matrix(1.00, 0.00, -0.00, -1.00, 86.1, 95.3)"> </text><text xml:space="preserve" font-family="YanoneKaffeesatz-Regular,Yanone Kaffeesatz" font-size="48.0" fill="#FC4438" transform="matrix(1.00, 0.00, -0.00, -1.00, 93.6, 95.3)">t</text><text xml:space="preserve" font-family="YanoneKaffeesatz-Regular,Yanone Kaffeesatz" font-size="48.0" fill="#FC4438" transform="matrix(1.00, 0.00, -0.00, -1.00, 106.7, 95.3)">o</text><text xml:space="preserve" font-family="YanoneKaffeesatz-Regular,Yanone Kaffeesatz" font-size="48.0" fill="#FC4438" transform="matrix(1.00, 0.00, -0.00, -1.00, 124.4, 95.3)"> </text><text xml:space="preserve" font-family="YanoneKaffeesatz-Regular,Yanone Kaffeesatz" font-size="48.0" fill="#FC4438" transform="matrix(1.00, 0.00, -0.00, -1.00, 131.9, 95.3)">b</text><text xml:space="preserve" font-family="YanoneKaffeesatz-Regular,Yanone Kaffeesatz" font-size="48.0" fill="#FC4438" transform="matrix(1.00, 0.00, -0.00, -1.00, 150.3, 95.3)">e</text><text xml:space="preserve" font-family="YanoneKaffeesatz-Regular,Yanone Kaffeesatz" font-size="48.0" fill="#FC4438" transform="matrix(1.00, 0.00, -0.00, -1.00, 167.7, 95.3)"> </text><text xml:space="preserve" font-family="YanoneKaffeesatz-Regular,Yanone Kaffeesatz" font-size="48.0" fill="#FC4438" transform="matrix(1.00, 0.00, -0.00, -1.00, 175.2, 95.3)">a</text><text xml:space="preserve" font-family="YanoneKaffeesatz-Regular,Yanone Kaffeesatz" font-size="48.0" fill="#FC4438" transform="matrix(1.00, 0.00, -0.00, -1.00, 192.2, 95.3)">s</text><text xml:space="preserve" font-family="YanoneKaffeesatz-Regular,Yanone Kaffeesatz" font-size="48.0" fill="#FC4438" transform="matrix(1.00, 0.00, -0.00, -1.00, 208.7, 95.3)">s</text><text xml:space="preserve" font-family="YanoneKaffeesatz-Regular,Yanone Kaffeesatz" font-size="48.0" fill="#FC4438" transform="matrix(1.00, 0.00, -0.00, -1.00, 225.3, 95.3)">i</text><text xml:space="preserve" font-family="YanoneKaffeesatz-Regular,Yanone Kaffeesatz" font-size="48.0" fill="#FC4438" transform="matrix(1.00, 0.00, -0.00, -1.00, 233.7, 95.3)">g</text><text xml:space="preserve" font-family="YanoneKaffeesatz-Regular,Yanone Kaffeesatz" font-size="48.0" fill="#FC4438" transform="matrix(1.00, 0.00, -0.00, -1.00, 252.6, 95.3)">n</text><text xml:space="preserve" font-family="YanoneKaffeesatz-Regular,Yanone Kaffeesatz" font-size="48.0" fill="#FC4438" transform="matrix(1.00, 0.00, -0.00, -1.00, 270.9, 95.3)">e</text><text xml:space="preserve" font-family="YanoneKaffeesatz-Regular,Yanone Kaffeesatz" font-size="48.0" fill="#FC4438" transform="matrix(1.00, 0.00, -0.00, -1.00, 288.2, 95.3)">d</text></g></g><g><clipPath id="clip0x608000eaa140"><path d="M 158.2 0.6 L 178.6 0.6 L 178.6 83.4 L 158.2 83.4 Z M 158.2 0.6 "></path></clipPath><g clip-path="url(#clip0x608000eaa140)"><path d="M 1.7 69.2 L 1.7 67.3 L 12.3 0.0 " fill="none" stroke="#FC4438" stroke-width="3.00" transform="matrix(1.00, 0.00, 0.00, -1.00, 163.8, 82.2)"></path><path d="M 159.2 15.5 L 163.7 1.4 L 172.3 13.5 Z M 159.2 15.5 " fill="#FC4438"></path></g></g></g></svg>