<?xml version="1.0" encoding="UTF-8" standalone="no"?><svg xmlns="http://www.w3.org/2000/svg" xmlns:xlink="http://www.w3.org/1999/xlink" clip-rule="evenodd" stroke-miterlimit="10" viewBox="0 0 1024 768"><desc>SVG generated by Keynote</desc><defs></defs><g transform="matrix(1.00, 0.00, -0.00, -1.00, 0.0, 768.0)"><path d="M 0.0 768.0 L 1024.0 768.0 L 1024.0 0.0 L 0.0 0.0 Z M 0.0 768.0 " fill="#F1F2EC"></path><text xml:space="preserve" font-family="YanoneKaffeesatz-Regular,Yanone Kaffeesatz" font-size="144.0" fill="#FC4438" transform="matrix(1.00, 0.00, -0.00, -1.00, 104.0, 308.0)">F</text><text xml:space="preserve" font-family="YanoneKaffeesatz-Regular,Yanone Kaffeesatz" font-size="144.0" fill="#FC4438" transform="matrix(1.00, 0.00, -0.00, -1.00, 146.0, 308.0)">u</text><text xml:space="preserve" font-family="YanoneKaffeesatz-Regular,Yanone Kaffeesatz" font-size="144.0" fill="#FC4438" transform="matrix(1.00, 0.00, -0.00, -1.00, 202.2, 308.0)">n</text><text xml:space="preserve" font-family="YanoneKaffeesatz-Regular,Yanone Kaffeesatz" font-size="144.0" fill="#FC4438" transform="matrix(1.00, 0.00, -0.00, -1.00, 257.2, 308.0)">c</text><text xml:space="preserve" font-family="YanoneKaffeesatz-Regular,Yanone Kaffeesatz" font-size="144.0" fill="#FC4438" transform="matrix(1.00, 0.00, -0.00, -1.00, 303.2, 308.0)">t</text><text xml:space="preserve" font-family="YanoneKaffeesatz-Regular,Yanone Kaffeesatz" font-size="144.0" fill="#FC4438" transform="matrix(1.00, 0.00, -0.00, -1.00, 345.1, 308.0)">i</text><text xml:space="preserve" font-family="YanoneKaffeesatz-Regular,Yanone Kaffeesatz" font-size="144.0" fill="#FC4438" transform="matrix(1.00, 0.00, -0.00, -1.00, 370.3, 308.0)">o</text><text xml:space="preserve" font-family="YanoneKaffeesatz-Regular,Yanone Kaffeesatz" font-size="144.0" fill="#FC4438" transform="matrix(1.00, 0.00, -0.00, -1.00, 423.2, 308.0)">n</text></g></svg>