<?xml version="1.0" encoding="UTF-8" standalone="no"?><svg xmlns="http://www.w3.org/2000/svg" xmlns:xlink="http://www.w3.org/1999/xlink" clip-rule="evenodd" stroke-miterlimit="10" viewBox="0 0 1024 768"><desc>SVG generated by Keynote</desc><defs></defs><g transform="matrix(1.00, 0.00, -0.00, -1.00, 0.0, 768.0)"><path d="M 0.0 768.0 L 1024.0 768.0 L 1024.0 0.0 L 0.0 0.0 Z M 0.0 768.0 " fill="#F1F2EC"></path><text xml:space="preserve" font-family="YanoneKaffeesatz-Regular,Yanone Kaffeesatz" font-size="72.0" fill="#787878" transform="matrix(1.00, 0.00, -0.00, -1.00, 122.2, 399.5)">A</text><text xml:space="preserve" font-family="YanoneKaffeesatz-Regular,Yanone Kaffeesatz" font-size="72.0" fill="#787878" transform="matrix(1.00, 0.00, -0.00, -1.00, 153.6, 399.5)"> </text><text xml:space="preserve" font-family="YanoneKaffeesatz-Regular,Yanone Kaffeesatz" font-size="72.0" fill="#787878" transform="matrix(1.00, 0.00, -0.00, -1.00, 164.9, 399.5)">l</text><text xml:space="preserve" font-family="YanoneKaffeesatz-Regular,Yanone Kaffeesatz" font-size="72.0" fill="#787878" transform="matrix(1.00, 0.00, -0.00, -1.00, 177.4, 399.5)">a</text><text xml:space="preserve" font-family="YanoneKaffeesatz-Regular,Yanone Kaffeesatz" font-size="72.0" fill="#787878" transform="matrix(1.00, 0.00, -0.00, -1.00, 202.9, 399.5)">n</text><text xml:space="preserve" font-family="YanoneKaffeesatz-Regular,Yanone Kaffeesatz" font-size="72.0" fill="#787878" transform="matrix(1.00, 0.00, -0.00, -1.00, 230.4, 399.5)">g</text><text xml:space="preserve" font-family="YanoneKaffeesatz-Regular,Yanone Kaffeesatz" font-size="72.0" fill="#787878" transform="matrix(1.00, 0.00, -0.00, -1.00, 258.7, 399.5)">u</text><text xml:space="preserve" font-family="YanoneKaffeesatz-Regular,Yanone Kaffeesatz" font-size="72.0" fill="#787878" transform="matrix(1.00, 0.00, -0.00, -1.00, 286.8, 399.5)">a</text><text xml:space="preserve" font-family="YanoneKaffeesatz-Regular,Yanone Kaffeesatz" font-size="72.0" fill="#787878" transform="matrix(1.00, 0.00, -0.00, -1.00, 312.2, 399.5)">g</text><text xml:space="preserve" font-family="YanoneKaffeesatz-Regular,Yanone Kaffeesatz" font-size="72.0" fill="#787878" transform="matrix(1.00, 0.00, -0.00, -1.00, 340.2, 399.5)">e</text><text xml:space="preserve" font-family="YanoneKaffeesatz-Regular,Yanone Kaffeesatz" font-size="72.0" fill="#787878" transform="matrix(1.00, 0.00, -0.00, -1.00, 366.2, 399.5)"> </text><text xml:space="preserve" font-family="YanoneKaffeesatz-Regular,Yanone Kaffeesatz" font-size="72.0" fill="#787878" transform="matrix(1.00, 0.00, -0.00, -1.00, 377.5, 399.5)">t</text><text xml:space="preserve" font-family="YanoneKaffeesatz-Regular,Yanone Kaffeesatz" font-size="72.0" fill="#787878" transform="matrix(1.00, 0.00, -0.00, -1.00, 397.2, 399.5)">o</text><text xml:space="preserve" font-family="YanoneKaffeesatz-Regular,Yanone Kaffeesatz" font-size="72.0" fill="#787878" transform="matrix(1.00, 0.00, -0.00, -1.00, 423.7, 399.5)"> </text><text xml:space="preserve" font-family="YanoneKaffeesatz-Regular,Yanone Kaffeesatz" font-size="72.0" fill="#787878" transform="matrix(1.00, 0.00, -0.00, -1.00, 435.0, 399.5)">c</text><text xml:space="preserve" font-family="YanoneKaffeesatz-Regular,Yanone Kaffeesatz" font-size="72.0" fill="#787878" transform="matrix(1.00, 0.00, -0.00, -1.00, 457.5, 399.5)">r</text><text xml:space="preserve" font-family="YanoneKaffeesatz-Regular,Yanone Kaffeesatz" font-size="72.0" fill="#787878" transform="matrix(1.00, 0.00, -0.00, -1.00, 475.0, 399.5)">e</text><text xml:space="preserve" font-family="YanoneKaffeesatz-Regular,Yanone Kaffeesatz" font-size="72.0" fill="#787878" transform="matrix(1.00, 0.00, -0.00, -1.00, 501.0, 399.5)">a</text><text xml:space="preserve" font-family="YanoneKaffeesatz-Regular,Yanone Kaffeesatz" font-size="72.0" fill="#787878" transform="matrix(1.00, 0.00, -0.00, -1.00, 525.2, 399.5)">t</text><text xml:space="preserve" font-family="YanoneKaffeesatz-Regular,Yanone Kaffeesatz" font-size="72.0" fill="#787878" transform="matrix(1.00, 0.00, -0.00, -1.00, 544.5, 399.5)">e</text><text xml:space="preserve" font-family="YanoneKaffeesatz-Regular,Yanone Kaffeesatz" font-size="72.0" fill="#787878" transform="matrix(1.00, 0.00, -0.00, -1.00, 570.5, 399.5)"> </text><text xml:space="preserve" font-family="YanoneKaffeesatz-Regular,Yanone Kaffeesatz" font-size="72.0" fill="#787878" transform="matrix(1.00, 0.00, -0.00, -1.00, 581.8, 399.5)">w</text><text xml:space="preserve" font-family="YanoneKaffeesatz-Regular,Yanone Kaffeesatz" font-size="72.0" fill="#787878" transform="matrix(1.00, 0.00, -0.00, -1.00, 619.0, 399.5)">e</text><text xml:space="preserve" font-family="YanoneKaffeesatz-Regular,Yanone Kaffeesatz" font-size="72.0" fill="#787878" transform="matrix(1.00, 0.00, -0.00, -1.00, 645.0, 399.5)">b</text><text xml:space="preserve" font-family="YanoneKaffeesatz-Regular,Yanone Kaffeesatz" font-size="72.0" fill="#787878" transform="matrix(1.00, 0.00, -0.00, -1.00, 672.5, 399.5)"> </text><text xml:space="preserve" font-family="YanoneKaffeesatz-Regular,Yanone Kaffeesatz" font-size="72.0" fill="#787878" transform="matrix(1.00, 0.00, -0.00, -1.00, 683.8, 399.5)">p</text><text xml:space="preserve" font-family="YanoneKaffeesatz-Regular,Yanone Kaffeesatz" font-size="72.0" fill="#787878" transform="matrix(1.00, 0.00, -0.00, -1.00, 710.9, 399.5)">a</text><text xml:space="preserve" font-family="YanoneKaffeesatz-Regular,Yanone Kaffeesatz" font-size="72.0" fill="#787878" transform="matrix(1.00, 0.00, -0.00, -1.00, 736.4, 399.5)">g</text><text xml:space="preserve" font-family="YanoneKaffeesatz-Regular,Yanone Kaffeesatz" font-size="72.0" fill="#787878" transform="matrix(1.00, 0.00, -0.00, -1.00, 764.3, 399.5)">e</text><text xml:space="preserve" font-family="YanoneKaffeesatz-Regular,Yanone Kaffeesatz" font-size="72.0" fill="#787878" transform="matrix(1.00, 0.00, -0.00, -1.00, 790.3, 399.5)">s</text><text xml:space="preserve" font-family="YanoneKaffeesatz-Regular,Yanone Kaffeesatz" font-size="72.0" fill="#787878" transform="matrix(1.00, 0.00, -0.00, -1.00, 815.2, 399.5)"> </text><text xml:space="preserve" font-family="YanoneKaffeesatz-Regular,Yanone Kaffeesatz" font-size="72.0" fill="#787878" transform="matrix(1.00, 0.00, -0.00, -1.00, 826.5, 399.5)">t</text><text xml:space="preserve" font-family="YanoneKaffeesatz-Regular,Yanone Kaffeesatz" font-size="72.0" fill="#787878" transform="matrix(1.00, 0.00, -0.00, -1.00, 847.4, 399.5)">h</text><text xml:space="preserve" font-family="YanoneKaffeesatz-Regular,Yanone Kaffeesatz" font-size="72.0" fill="#787878" transform="matrix(1.00, 0.00, -0.00, -1.00, 874.8, 399.5)">a</text><text xml:space="preserve" font-family="YanoneKaffeesatz-Regular,Yanone Kaffeesatz" font-size="72.0" fill="#787878" transform="matrix(1.00, 0.00, -0.00, -1.00, 899.0, 399.5)">t</text><text xml:space="preserve" font-family="YanoneKaffeesatz-Regular,Yanone Kaffeesatz" font-size="72.0" fill="#787878" transform="matrix(1.00, 0.00, -0.00, -1.00, 920.0, 399.5)"> </text><text xml:space="preserve" font-family="YanoneKaffeesatz-Regular,Yanone Kaffeesatz" font-size="72.0" fill="#787878" transform="matrix(1.00, 0.00, -0.00, -1.00, 282.1, 314.5)">c</text><text xml:space="preserve" font-family="YanoneKaffeesatz-Regular,Yanone Kaffeesatz" font-size="72.0" fill="#787878" transform="matrix(1.00, 0.00, -0.00, -1.00, 304.6, 314.5)">a</text><text xml:space="preserve" font-family="YanoneKaffeesatz-Regular,Yanone Kaffeesatz" font-size="72.0" fill="#787878" transform="matrix(1.00, 0.00, -0.00, -1.00, 330.1, 314.5)">n</text><text xml:space="preserve" font-family="YanoneKaffeesatz-Regular,Yanone Kaffeesatz" font-size="72.0" fill="#787878" transform="matrix(1.00, 0.00, -0.00, -1.00, 357.6, 314.5)"> </text><text xml:space="preserve" font-family="YanoneKaffeesatz-Regular,Yanone Kaffeesatz" font-size="72.0" fill="#787878" transform="matrix(1.00, 0.00, -0.00, -1.00, 368.9, 314.5)">b</text><text xml:space="preserve" font-family="YanoneKaffeesatz-Regular,Yanone Kaffeesatz" font-size="72.0" fill="#787878" transform="matrix(1.00, 0.00, -0.00, -1.00, 396.5, 314.5)">e</text><text xml:space="preserve" font-family="YanoneKaffeesatz-Regular,Yanone Kaffeesatz" font-size="72.0" fill="#787878" transform="matrix(1.00, 0.00, -0.00, -1.00, 422.5, 314.5)"> </text><text xml:space="preserve" font-family="YanoneKaffeesatz-Regular,Yanone Kaffeesatz" font-size="72.0" fill="#787878" transform="matrix(1.00, 0.00, -0.00, -1.00, 433.8, 314.5)">d</text><text xml:space="preserve" font-family="YanoneKaffeesatz-Regular,Yanone Kaffeesatz" font-size="72.0" fill="#787878" transform="matrix(1.00, 0.00, -0.00, -1.00, 461.6, 314.5)">i</text><text xml:space="preserve" font-family="YanoneKaffeesatz-Regular,Yanone Kaffeesatz" font-size="72.0" fill="#787878" transform="matrix(1.00, 0.00, -0.00, -1.00, 474.2, 314.5)">s</text><text xml:space="preserve" font-family="YanoneKaffeesatz-Regular,Yanone Kaffeesatz" font-size="72.0" fill="#787878" transform="matrix(1.00, 0.00, -0.00, -1.00, 499.0, 314.5)">p</text><text xml:space="preserve" font-family="YanoneKaffeesatz-Regular,Yanone Kaffeesatz" font-size="72.0" fill="#787878" transform="matrix(1.00, 0.00, -0.00, -1.00, 526.6, 314.5)">l</text><text xml:space="preserve" font-family="YanoneKaffeesatz-Regular,Yanone Kaffeesatz" font-size="72.0" fill="#787878" transform="matrix(1.00, 0.00, -0.00, -1.00, 539.0, 314.5)">a</text><text xml:space="preserve" font-family="YanoneKaffeesatz-Regular,Yanone Kaffeesatz" font-size="72.0" fill="#787878" transform="matrix(1.00, 0.00, -0.00, -1.00, 564.0, 314.5)">y</text><text xml:space="preserve" font-family="YanoneKaffeesatz-Regular,Yanone Kaffeesatz" font-size="72.0" fill="#787878" transform="matrix(1.00, 0.00, -0.00, -1.00, 587.9, 314.5)">e</text><text xml:space="preserve" font-family="YanoneKaffeesatz-Regular,Yanone Kaffeesatz" font-size="72.0" fill="#787878" transform="matrix(1.00, 0.00, -0.00, -1.00, 613.9, 314.5)">d</text><text xml:space="preserve" font-family="YanoneKaffeesatz-Regular,Yanone Kaffeesatz" font-size="72.0" fill="#787878" transform="matrix(1.00, 0.00, -0.00, -1.00, 641.7, 314.5)"> </text><text xml:space="preserve" font-family="YanoneKaffeesatz-Regular,Yanone Kaffeesatz" font-size="72.0" fill="#787878" transform="matrix(1.00, 0.00, -0.00, -1.00, 653.0, 314.5)">i</text><text xml:space="preserve" font-family="YanoneKaffeesatz-Regular,Yanone Kaffeesatz" font-size="72.0" fill="#787878" transform="matrix(1.00, 0.00, -0.00, -1.00, 665.6, 314.5)">n</text><text xml:space="preserve" font-family="YanoneKaffeesatz-Regular,Yanone Kaffeesatz" font-size="72.0" fill="#787878" transform="matrix(1.00, 0.00, -0.00, -1.00, 693.1, 314.5)"> </text><text xml:space="preserve" font-family="YanoneKaffeesatz-Regular,Yanone Kaffeesatz" font-size="72.0" fill="#787878" transform="matrix(1.00, 0.00, -0.00, -1.00, 704.4, 314.5)">a</text><text xml:space="preserve" font-family="YanoneKaffeesatz-Regular,Yanone Kaffeesatz" font-size="72.0" fill="#787878" transform="matrix(1.00, 0.00, -0.00, -1.00, 729.9, 314.5)"> </text><text xml:space="preserve" font-family="YanoneKaffeesatz-Regular,Yanone Kaffeesatz" font-size="72.0" fill="#787878" transform="matrix(1.00, 0.00, -0.00, -1.00, 741.2, 314.5)">b</text><text xml:space="preserve" font-family="YanoneKaffeesatz-Regular,Yanone Kaffeesatz" font-size="72.0" fill="#787878" transform="matrix(1.00, 0.00, -0.00, -1.00, 768.8, 314.5)">r</text><text xml:space="preserve" font-family="YanoneKaffeesatz-Regular,Yanone Kaffeesatz" font-size="72.0" fill="#787878" transform="matrix(1.00, 0.00, -0.00, -1.00, 786.3, 314.5)">o</text><text xml:space="preserve" font-family="YanoneKaffeesatz-Regular,Yanone Kaffeesatz" font-size="72.0" fill="#787878" transform="matrix(1.00, 0.00, -0.00, -1.00, 812.1, 314.5)">w</text><text xml:space="preserve" font-family="YanoneKaffeesatz-Regular,Yanone Kaffeesatz" font-size="72.0" fill="#787878" transform="matrix(1.00, 0.00, -0.00, -1.00, 850.2, 314.5)">s</text><text xml:space="preserve" font-family="YanoneKaffeesatz-Regular,Yanone Kaffeesatz" font-size="72.0" fill="#787878" transform="matrix(1.00, 0.00, -0.00, -1.00, 875.1, 314.5)">e</text><text xml:space="preserve" font-family="YanoneKaffeesatz-Regular,Yanone Kaffeesatz" font-size="72.0" fill="#787878" transform="matrix(1.00, 0.00, -0.00, -1.00, 901.1, 314.5)">r</text></g></svg>