<?xml version="1.0" encoding="UTF-8" standalone="no"?><svg xmlns="http://www.w3.org/2000/svg" xmlns:xlink="http://www.w3.org/1999/xlink" clip-rule="evenodd" stroke-miterlimit="10" viewBox="0 0 508 94"><desc>SVG generated by Keynote</desc><defs></defs><g transform="matrix(1.00, 0.00, -0.00, -1.00, 0.0, 94.0)"><text xml:space="preserve" font-family="YanoneKaffeesatz-Regular,Yanone Kaffeesatz" font-size="96.0" fill="#7A7A7A" transform="matrix(1.00, 0.00, -0.00, -1.00, 1.2, 21.1)">W</text><text xml:space="preserve" font-family="YanoneKaffeesatz-Regular,Yanone Kaffeesatz" font-size="96.0" fill="#7A7A7A" transform="matrix(1.00, 0.00, -0.00, -1.00, 60.3, 21.1)">e</text><text xml:space="preserve" font-family="YanoneKaffeesatz-Regular,Yanone Kaffeesatz" font-size="96.0" fill="#7A7A7A" transform="matrix(1.00, 0.00, -0.00, -1.00, 95.0, 21.1)">b</text><text xml:space="preserve" font-family="YanoneKaffeesatz-Regular,Yanone Kaffeesatz" font-size="96.0" fill="#7A7A7A" transform="matrix(1.00, 0.00, -0.00, -1.00, 131.8, 21.1)"> </text><text xml:space="preserve" font-family="YanoneKaffeesatz-Regular,Yanone Kaffeesatz" font-size="96.0" fill="#7A7A7A" transform="matrix(1.00, 0.00, -0.00, -1.00, 146.8, 21.1)">A</text><text xml:space="preserve" font-family="YanoneKaffeesatz-Regular,Yanone Kaffeesatz" font-size="96.0" fill="#7A7A7A" transform="matrix(1.00, 0.00, -0.00, -1.00, 188.8, 21.1)">p</text><text xml:space="preserve" font-family="YanoneKaffeesatz-Regular,Yanone Kaffeesatz" font-size="96.0" fill="#7A7A7A" transform="matrix(1.00, 0.00, -0.00, -1.00, 225.5, 21.1)">p</text><text xml:space="preserve" font-family="YanoneKaffeesatz-Regular,Yanone Kaffeesatz" font-size="96.0" fill="#7A7A7A" transform="matrix(1.00, 0.00, -0.00, -1.00, 262.3, 21.1)">l</text><text xml:space="preserve" font-family="YanoneKaffeesatz-Regular,Yanone Kaffeesatz" font-size="96.0" fill="#7A7A7A" transform="matrix(1.00, 0.00, -0.00, -1.00, 278.9, 21.1)">i</text><text xml:space="preserve" font-family="YanoneKaffeesatz-Regular,Yanone Kaffeesatz" font-size="96.0" fill="#7A7A7A" transform="matrix(1.00, 0.00, -0.00, -1.00, 295.7, 21.1)">c</text><text xml:space="preserve" font-family="YanoneKaffeesatz-Regular,Yanone Kaffeesatz" font-size="96.0" fill="#7A7A7A" transform="matrix(1.00, 0.00, -0.00, -1.00, 325.8, 21.1)">a</text><text xml:space="preserve" font-family="YanoneKaffeesatz-Regular,Yanone Kaffeesatz" font-size="96.0" fill="#7A7A7A" transform="matrix(1.00, 0.00, -0.00, -1.00, 358.1, 21.1)">t</text><text xml:space="preserve" font-family="YanoneKaffeesatz-Regular,Yanone Kaffeesatz" font-size="96.0" fill="#7A7A7A" transform="matrix(1.00, 0.00, -0.00, -1.00, 386.1, 21.1)">i</text><text xml:space="preserve" font-family="YanoneKaffeesatz-Regular,Yanone Kaffeesatz" font-size="96.0" fill="#7A7A7A" transform="matrix(1.00, 0.00, -0.00, -1.00, 402.9, 21.1)">o</text><text xml:space="preserve" font-family="YanoneKaffeesatz-Regular,Yanone Kaffeesatz" font-size="96.0" fill="#7A7A7A" transform="matrix(1.00, 0.00, -0.00, -1.00, 438.2, 21.1)">n</text><text xml:space="preserve" font-family="YanoneKaffeesatz-Regular,Yanone Kaffeesatz" font-size="96.0" fill="#7A7A7A" transform="matrix(1.00, 0.00, -0.00, -1.00, 474.9, 21.1)">s</text></g></svg>