<?xml version="1.0" encoding="UTF-8" standalone="no"?><svg xmlns="http://www.w3.org/2000/svg" xmlns:xlink="http://www.w3.org/1999/xlink" clip-rule="evenodd" stroke-miterlimit="10" viewBox="0 0 1024 768"><desc>SVG generated by Keynote</desc><defs></defs><g transform="matrix(1.00, 0.00, -0.00, -1.00, 0.0, 768.0)"><path d="M 0.0 768.0 L 1024.0 768.0 L 1024.0 0.0 L 0.0 0.0 Z M 0.0 768.0 " fill="#F1F2EC"></path><text xml:space="preserve" font-family="YanoneKaffeesatz-Regular,Yanone Kaffeesatz" font-size="96.0" fill="#7A7A7A" transform="matrix(1.00, 0.00, -0.00, -1.00, 246.2, 420.1)">W</text><text xml:space="preserve" font-family="YanoneKaffeesatz-Regular,Yanone Kaffeesatz" font-size="96.0" fill="#7A7A7A" transform="matrix(1.00, 0.00, -0.00, -1.00, 305.3, 420.1)">e</text><text xml:space="preserve" font-family="YanoneKaffeesatz-Regular,Yanone Kaffeesatz" font-size="96.0" fill="#7A7A7A" transform="matrix(1.00, 0.00, -0.00, -1.00, 340.0, 420.1)">b</text><text xml:space="preserve" font-family="YanoneKaffeesatz-Regular,Yanone Kaffeesatz" font-size="96.0" fill="#7A7A7A" transform="matrix(1.00, 0.00, -0.00, -1.00, 376.8, 420.1)"> </text><text xml:space="preserve" font-family="YanoneKaffeesatz-Regular,Yanone Kaffeesatz" font-size="96.0" fill="#7A7A7A" transform="matrix(1.00, 0.00, -0.00, -1.00, 391.8, 420.1)">A</text><text xml:space="preserve" font-family="YanoneKaffeesatz-Regular,Yanone Kaffeesatz" font-size="96.0" fill="#7A7A7A" transform="matrix(1.00, 0.00, -0.00, -1.00, 433.8, 420.1)">p</text><text xml:space="preserve" font-family="YanoneKaffeesatz-Regular,Yanone Kaffeesatz" font-size="96.0" fill="#7A7A7A" transform="matrix(1.00, 0.00, -0.00, -1.00, 470.5, 420.1)">p</text><text xml:space="preserve" font-family="YanoneKaffeesatz-Regular,Yanone Kaffeesatz" font-size="96.0" fill="#7A7A7A" transform="matrix(1.00, 0.00, -0.00, -1.00, 507.3, 420.1)">l</text><text xml:space="preserve" font-family="YanoneKaffeesatz-Regular,Yanone Kaffeesatz" font-size="96.0" fill="#7A7A7A" transform="matrix(1.00, 0.00, -0.00, -1.00, 523.9, 420.1)">i</text><text xml:space="preserve" font-family="YanoneKaffeesatz-Regular,Yanone Kaffeesatz" font-size="96.0" fill="#7A7A7A" transform="matrix(1.00, 0.00, -0.00, -1.00, 540.7, 420.1)">c</text><text xml:space="preserve" font-family="YanoneKaffeesatz-Regular,Yanone Kaffeesatz" font-size="96.0" fill="#7A7A7A" transform="matrix(1.00, 0.00, -0.00, -1.00, 570.8, 420.1)">a</text><text xml:space="preserve" font-family="YanoneKaffeesatz-Regular,Yanone Kaffeesatz" font-size="96.0" fill="#7A7A7A" transform="matrix(1.00, 0.00, -0.00, -1.00, 603.1, 420.1)">t</text><text xml:space="preserve" font-family="YanoneKaffeesatz-Regular,Yanone Kaffeesatz" font-size="96.0" fill="#7A7A7A" transform="matrix(1.00, 0.00, -0.00, -1.00, 631.1, 420.1)">i</text><text xml:space="preserve" font-family="YanoneKaffeesatz-Regular,Yanone Kaffeesatz" font-size="96.0" fill="#7A7A7A" transform="matrix(1.00, 0.00, -0.00, -1.00, 647.9, 420.1)">o</text><text xml:space="preserve" font-family="YanoneKaffeesatz-Regular,Yanone Kaffeesatz" font-size="96.0" fill="#7A7A7A" transform="matrix(1.00, 0.00, -0.00, -1.00, 683.2, 420.1)">n</text><text xml:space="preserve" font-family="YanoneKaffeesatz-Regular,Yanone Kaffeesatz" font-size="96.0" fill="#7A7A7A" transform="matrix(1.00, 0.00, -0.00, -1.00, 719.9, 420.1)">s</text><text xml:space="preserve" font-family="YanoneKaffeesatz-Regular,Yanone Kaffeesatz" font-size="96.0" fill="#FC4438" transform="matrix(1.00, 0.00, -0.00, -1.00, 148.3, 269.1)">H</text><text xml:space="preserve" font-family="YanoneKaffeesatz-Regular,Yanone Kaffeesatz" font-size="96.0" fill="#FC4438" transform="matrix(1.00, 0.00, -0.00, -1.00, 187.5, 269.1)">T</text><text xml:space="preserve" font-family="YanoneKaffeesatz-Regular,Yanone Kaffeesatz" font-size="96.0" fill="#FC4438" transform="matrix(1.00, 0.00, -0.00, -1.00, 223.3, 269.1)">M</text><text xml:space="preserve" font-family="YanoneKaffeesatz-Regular,Yanone Kaffeesatz" font-size="96.0" fill="#FC4438" transform="matrix(1.00, 0.00, -0.00, -1.00, 270.3, 269.1)">L</text><text xml:space="preserve" font-family="YanoneKaffeesatz-Regular,Yanone Kaffeesatz" font-size="96.0" fill="#FC4438" transform="matrix(1.00, 0.00, -0.00, -1.00, 387.6, 269.1)">C</text><text xml:space="preserve" font-family="YanoneKaffeesatz-Regular,Yanone Kaffeesatz" font-size="96.0" fill="#FC4438" transform="matrix(1.00, 0.00, -0.00, -1.00, 419.6, 269.1)">S</text><text xml:space="preserve" font-family="YanoneKaffeesatz-Regular,Yanone Kaffeesatz" font-size="96.0" fill="#FC4438" transform="matrix(1.00, 0.00, -0.00, -1.00, 454.0, 269.1)">S</text><text xml:space="preserve" font-family="YanoneKaffeesatz-Regular,Yanone Kaffeesatz" font-size="96.0" fill="#FC4438" transform="matrix(1.00, 0.00, -0.00, -1.00, 578.7, 269.1)">J</text><text xml:space="preserve" font-family="YanoneKaffeesatz-Regular,Yanone Kaffeesatz" font-size="96.0" fill="#FC4438" transform="matrix(1.00, 0.00, -0.00, -1.00, 608.1, 269.1)">a</text><text xml:space="preserve" font-family="YanoneKaffeesatz-Regular,Yanone Kaffeesatz" font-size="96.0" fill="#FC4438" transform="matrix(1.00, 0.00, -0.00, -1.00, 642.1, 269.1)">v</text><text xml:space="preserve" font-family="YanoneKaffeesatz-Regular,Yanone Kaffeesatz" font-size="96.0" fill="#FC4438" transform="matrix(1.00, 0.00, -0.00, -1.00, 674.1, 269.1)">a</text><text xml:space="preserve" font-family="YanoneKaffeesatz-Regular,Yanone Kaffeesatz" font-size="96.0" fill="#FC4438" transform="matrix(1.00, 0.00, -0.00, -1.00, 708.1, 269.1)">S</text><text xml:space="preserve" font-family="YanoneKaffeesatz-Regular,Yanone Kaffeesatz" font-size="96.0" fill="#FC4438" transform="matrix(1.00, 0.00, -0.00, -1.00, 742.4, 269.1)">c</text><text xml:space="preserve" font-family="YanoneKaffeesatz-Regular,Yanone Kaffeesatz" font-size="96.0" fill="#FC4438" transform="matrix(1.00, 0.00, -0.00, -1.00, 772.5, 269.1)">r</text><text xml:space="preserve" font-family="YanoneKaffeesatz-Regular,Yanone Kaffeesatz" font-size="96.0" fill="#FC4438" transform="matrix(1.00, 0.00, -0.00, -1.00, 797.7, 269.1)">i</text><text xml:space="preserve" font-family="YanoneKaffeesatz-Regular,Yanone Kaffeesatz" font-size="96.0" fill="#FC4438" transform="matrix(1.00, 0.00, -0.00, -1.00, 814.5, 269.1)">p</text><text xml:space="preserve" font-family="YanoneKaffeesatz-Regular,Yanone Kaffeesatz" font-size="96.0" fill="#FC4438" transform="matrix(1.00, 0.00, -0.00, -1.00, 850.3, 269.1)">t</text></g></svg>