<?xml version="1.0" encoding="UTF-8" standalone="no"?><svg xmlns="http://www.w3.org/2000/svg" xmlns:xlink="http://www.w3.org/1999/xlink" clip-rule="evenodd" stroke-miterlimit="10" viewBox="0 0 261 149"><desc>SVG generated by Keynote</desc><defs></defs><g transform="matrix(1.00, 0.00, -0.00, -1.00, 0.0, 149.0)"><g><clipPath id="clip0x608000cbfc20"><path d="M -6.8 82.2 L 268.0 82.2 L 268.0 155.5 L -6.8 155.5 Z M -6.8 82.2 "></path></clipPath><g clip-path="url(#clip0x608000cbfc20)"><text xml:space="preserve" font-family="YanoneKaffeesatz-Regular,Yanone Kaffeesatz" font-size="42.0" fill="#FC4438" transform="matrix(1.00, 0.00, -0.00, -1.00, 5.9, 104.0)">D</text><text xml:space="preserve" font-family="YanoneKaffeesatz-Regular,Yanone Kaffeesatz" font-size="42.0" fill="#FC4438" transform="matrix(1.00, 0.00, -0.00, -1.00, 22.4, 104.0)">e</text><text xml:space="preserve" font-family="YanoneKaffeesatz-Regular,Yanone Kaffeesatz" font-size="42.0" fill="#FC4438" transform="matrix(1.00, 0.00, -0.00, -1.00, 37.5, 104.0)">c</text><text xml:space="preserve" font-family="YanoneKaffeesatz-Regular,Yanone Kaffeesatz" font-size="42.0" fill="#FC4438" transform="matrix(1.00, 0.00, -0.00, -1.00, 50.7, 104.0)">l</text><text xml:space="preserve" font-family="YanoneKaffeesatz-Regular,Yanone Kaffeesatz" font-size="42.0" fill="#FC4438" transform="matrix(1.00, 0.00, -0.00, -1.00, 57.9, 104.0)">a</text><text xml:space="preserve" font-family="YanoneKaffeesatz-Regular,Yanone Kaffeesatz" font-size="42.0" fill="#FC4438" transform="matrix(1.00, 0.00, -0.00, -1.00, 72.8, 104.0)">r</text><text xml:space="preserve" font-family="YanoneKaffeesatz-Regular,Yanone Kaffeesatz" font-size="42.0" fill="#FC4438" transform="matrix(1.00, 0.00, -0.00, -1.00, 83.0, 104.0)">e</text><text xml:space="preserve" font-family="YanoneKaffeesatz-Regular,Yanone Kaffeesatz" font-size="42.0" fill="#FC4438" transform="matrix(1.00, 0.00, -0.00, -1.00, 98.1, 104.0)"> </text><text xml:space="preserve" font-family="YanoneKaffeesatz-Regular,Yanone Kaffeesatz" font-size="42.0" fill="#FC4438" transform="matrix(1.00, 0.00, -0.00, -1.00, 104.7, 104.0)">t</text><text xml:space="preserve" font-family="YanoneKaffeesatz-Regular,Yanone Kaffeesatz" font-size="42.0" fill="#FC4438" transform="matrix(1.00, 0.00, -0.00, -1.00, 117.0, 104.0)">h</text><text xml:space="preserve" font-family="YanoneKaffeesatz-Regular,Yanone Kaffeesatz" font-size="42.0" fill="#FC4438" transform="matrix(1.00, 0.00, -0.00, -1.00, 132.9, 104.0)">e</text><text xml:space="preserve" font-family="YanoneKaffeesatz-Regular,Yanone Kaffeesatz" font-size="42.0" fill="#FC4438" transform="matrix(1.00, 0.00, -0.00, -1.00, 148.1, 104.0)"> </text><text xml:space="preserve" font-family="YanoneKaffeesatz-Regular,Yanone Kaffeesatz" font-size="42.0" fill="#FC4438" transform="matrix(1.00, 0.00, -0.00, -1.00, 154.7, 104.0)">v</text><text xml:space="preserve" font-family="YanoneKaffeesatz-Regular,Yanone Kaffeesatz" font-size="42.0" fill="#FC4438" transform="matrix(1.00, 0.00, -0.00, -1.00, 168.7, 104.0)">a</text><text xml:space="preserve" font-family="YanoneKaffeesatz-Regular,Yanone Kaffeesatz" font-size="42.0" fill="#FC4438" transform="matrix(1.00, 0.00, -0.00, -1.00, 183.5, 104.0)">r</text><text xml:space="preserve" font-family="YanoneKaffeesatz-Regular,Yanone Kaffeesatz" font-size="42.0" fill="#FC4438" transform="matrix(1.00, 0.00, -0.00, -1.00, 194.6, 104.0)">i</text><text xml:space="preserve" font-family="YanoneKaffeesatz-Regular,Yanone Kaffeesatz" font-size="42.0" fill="#FC4438" transform="matrix(1.00, 0.00, -0.00, -1.00, 201.9, 104.0)">a</text><text xml:space="preserve" font-family="YanoneKaffeesatz-Regular,Yanone Kaffeesatz" font-size="42.0" fill="#FC4438" transform="matrix(1.00, 0.00, -0.00, -1.00, 216.8, 104.0)">b</text><text xml:space="preserve" font-family="YanoneKaffeesatz-Regular,Yanone Kaffeesatz" font-size="42.0" fill="#FC4438" transform="matrix(1.00, 0.00, -0.00, -1.00, 232.9, 104.0)">l</text><text xml:space="preserve" font-family="YanoneKaffeesatz-Regular,Yanone Kaffeesatz" font-size="42.0" fill="#FC4438" transform="matrix(1.00, 0.00, -0.00, -1.00, 240.1, 104.0)">e</text></g></g><g><clipPath id="clip0x608000ea0900"><path d="M 45.5 0.5 L 70.5 0.5 L 70.5 87.0 L 45.5 87.0 Z M 45.5 0.5 "></path></clipPath><g clip-path="url(#clip0x608000ea0900)"><path d="M 15.6 72.7 L 15.6 70.9 L 0.0 0.0 " fill="none" stroke="#FC4438" stroke-width="3.00" transform="matrix(1.00, 0.00, 0.00, -1.00, 47.9, 85.7)"></path><path d="M 56.7 13.1 L 65.9 1.6 L 69.6 15.8 Z M 56.7 13.1 " fill="#FC4438"></path></g></g></g></svg>