<?xml version="1.0" encoding="UTF-8" standalone="no"?><svg xmlns="http://www.w3.org/2000/svg" xmlns:xlink="http://www.w3.org/1999/xlink" clip-rule="evenodd" stroke-miterlimit="10" viewBox="0 0 1024 768"><desc>SVG generated by Keynote</desc><defs></defs><g transform="matrix(1.00, 0.00, -0.00, -1.00, 0.0, 768.0)"><path d="M 0.0 768.0 L 1024.0 768.0 L 1024.0 0.0 L 0.0 0.0 Z M 0.0 768.0 " fill="#F1F2EC"></path><text xml:space="preserve" font-family="YanoneKaffeesatz-Regular,Yanone Kaffeesatz" font-size="72.0" fill="#787878" transform="matrix(1.00, 0.00, -0.00, -1.00, 104.0, 334.5)">v</text><text xml:space="preserve" font-family="YanoneKaffeesatz-Regular,Yanone Kaffeesatz" font-size="72.0" fill="#787878" transform="matrix(1.00, 0.00, -0.00, -1.00, 128.0, 334.5)">a</text><text xml:space="preserve" font-family="YanoneKaffeesatz-Regular,Yanone Kaffeesatz" font-size="72.0" fill="#787878" transform="matrix(1.00, 0.00, -0.00, -1.00, 153.5, 334.5)">r</text><text xml:space="preserve" font-family="YanoneKaffeesatz-Regular,Yanone Kaffeesatz" font-size="72.0" fill="#787878" transform="matrix(1.00, 0.00, -0.00, -1.00, 172.4, 334.5)"> </text><text xml:space="preserve" font-family="YanoneKaffeesatz-Regular,Yanone Kaffeesatz" font-size="72.0" fill="#787878" transform="matrix(1.00, 0.00, -0.00, -1.00, 183.7, 334.5)">x</text><text xml:space="preserve" font-family="YanoneKaffeesatz-Regular,Yanone Kaffeesatz" font-size="72.0" fill="#787878" transform="matrix(1.00, 0.00, -0.00, -1.00, 213.2, 334.5)"> </text><text xml:space="preserve" font-family="YanoneKaffeesatz-Regular,Yanone Kaffeesatz" font-size="72.0" fill="#787878" transform="matrix(1.00, 0.00, -0.00, -1.00, 224.5, 334.5)">=</text><text xml:space="preserve" font-family="YanoneKaffeesatz-Regular,Yanone Kaffeesatz" font-size="72.0" fill="#787878" transform="matrix(1.00, 0.00, -0.00, -1.00, 254.6, 334.5)"> </text><text xml:space="preserve" font-family="YanoneKaffeesatz-Regular,Yanone Kaffeesatz" font-size="72.0" fill="#787878" transform="matrix(1.00, 0.00, -0.00, -1.00, 265.9, 334.5)">5</text><text xml:space="preserve" font-family="YanoneKaffeesatz-Regular,Yanone Kaffeesatz" font-size="72.0" fill="#787878" transform="matrix(1.00, 0.00, -0.00, -1.00, 295.9, 334.5)">;</text><g><clipPath id="clip0x608000ea1980"><path d="M 69.2 462.2 L 344.0 462.2 L 344.0 535.5 L 69.2 535.5 Z M 69.2 462.2 "></path></clipPath><g clip-path="url(#clip0x608000ea1980)"><text xml:space="preserve" font-family="YanoneKaffeesatz-Regular,Yanone Kaffeesatz" font-size="42.0" fill="#FC4438" transform="matrix(1.00, 0.00, -0.00, -1.00, 81.9, 484.0)">D</text><text xml:space="preserve" font-family="YanoneKaffeesatz-Regular,Yanone Kaffeesatz" font-size="42.0" fill="#FC4438" transform="matrix(1.00, 0.00, -0.00, -1.00, 98.4, 484.0)">e</text><text xml:space="preserve" font-family="YanoneKaffeesatz-Regular,Yanone Kaffeesatz" font-size="42.0" fill="#FC4438" transform="matrix(1.00, 0.00, -0.00, -1.00, 113.5, 484.0)">c</text><text xml:space="preserve" font-family="YanoneKaffeesatz-Regular,Yanone Kaffeesatz" font-size="42.0" fill="#FC4438" transform="matrix(1.00, 0.00, -0.00, -1.00, 126.7, 484.0)">l</text><text xml:space="preserve" font-family="YanoneKaffeesatz-Regular,Yanone Kaffeesatz" font-size="42.0" fill="#FC4438" transform="matrix(1.00, 0.00, -0.00, -1.00, 133.9, 484.0)">a</text><text xml:space="preserve" font-family="YanoneKaffeesatz-Regular,Yanone Kaffeesatz" font-size="42.0" fill="#FC4438" transform="matrix(1.00, 0.00, -0.00, -1.00, 148.8, 484.0)">r</text><text xml:space="preserve" font-family="YanoneKaffeesatz-Regular,Yanone Kaffeesatz" font-size="42.0" fill="#FC4438" transform="matrix(1.00, 0.00, -0.00, -1.00, 159.0, 484.0)">e</text><text xml:space="preserve" font-family="YanoneKaffeesatz-Regular,Yanone Kaffeesatz" font-size="42.0" fill="#FC4438" transform="matrix(1.00, 0.00, -0.00, -1.00, 174.1, 484.0)"> </text><text xml:space="preserve" font-family="YanoneKaffeesatz-Regular,Yanone Kaffeesatz" font-size="42.0" fill="#FC4438" transform="matrix(1.00, 0.00, -0.00, -1.00, 180.7, 484.0)">t</text><text xml:space="preserve" font-family="YanoneKaffeesatz-Regular,Yanone Kaffeesatz" font-size="42.0" fill="#FC4438" transform="matrix(1.00, 0.00, -0.00, -1.00, 193.0, 484.0)">h</text><text xml:space="preserve" font-family="YanoneKaffeesatz-Regular,Yanone Kaffeesatz" font-size="42.0" fill="#FC4438" transform="matrix(1.00, 0.00, -0.00, -1.00, 208.9, 484.0)">e</text><text xml:space="preserve" font-family="YanoneKaffeesatz-Regular,Yanone Kaffeesatz" font-size="42.0" fill="#FC4438" transform="matrix(1.00, 0.00, -0.00, -1.00, 224.1, 484.0)"> </text><text xml:space="preserve" font-family="YanoneKaffeesatz-Regular,Yanone Kaffeesatz" font-size="42.0" fill="#FC4438" transform="matrix(1.00, 0.00, -0.00, -1.00, 230.7, 484.0)">v</text><text xml:space="preserve" font-family="YanoneKaffeesatz-Regular,Yanone Kaffeesatz" font-size="42.0" fill="#FC4438" transform="matrix(1.00, 0.00, -0.00, -1.00, 244.7, 484.0)">a</text><text xml:space="preserve" font-family="YanoneKaffeesatz-Regular,Yanone Kaffeesatz" font-size="42.0" fill="#FC4438" transform="matrix(1.00, 0.00, -0.00, -1.00, 259.5, 484.0)">r</text><text xml:space="preserve" font-family="YanoneKaffeesatz-Regular,Yanone Kaffeesatz" font-size="42.0" fill="#FC4438" transform="matrix(1.00, 0.00, -0.00, -1.00, 270.6, 484.0)">i</text><text xml:space="preserve" font-family="YanoneKaffeesatz-Regular,Yanone Kaffeesatz" font-size="42.0" fill="#FC4438" transform="matrix(1.00, 0.00, -0.00, -1.00, 277.9, 484.0)">a</text><text xml:space="preserve" font-family="YanoneKaffeesatz-Regular,Yanone Kaffeesatz" font-size="42.0" fill="#FC4438" transform="matrix(1.00, 0.00, -0.00, -1.00, 292.8, 484.0)">b</text><text xml:space="preserve" font-family="YanoneKaffeesatz-Regular,Yanone Kaffeesatz" font-size="42.0" fill="#FC4438" transform="matrix(1.00, 0.00, -0.00, -1.00, 308.9, 484.0)">l</text><text xml:space="preserve" font-family="YanoneKaffeesatz-Regular,Yanone Kaffeesatz" font-size="42.0" fill="#FC4438" transform="matrix(1.00, 0.00, -0.00, -1.00, 316.1, 484.0)">e</text></g></g><g><clipPath id="clip0x608000ea22e0"><path d="M 121.5 380.5 L 146.5 380.5 L 146.5 467.0 L 121.5 467.0 Z M 121.5 380.5 "></path></clipPath><g clip-path="url(#clip0x608000ea22e0)"><path d="M 15.6 72.7 L 15.6 70.9 L 0.0 0.0 " fill="none" stroke="#FC4438" stroke-width="3.00" transform="matrix(1.00, 0.00, 0.00, -1.00, 123.9, 465.7)"></path><path d="M 132.7 393.1 L 141.9 381.6 L 145.6 395.8 Z M 132.7 393.1 " fill="#FC4438"></path></g></g></g></svg>