<?xml version="1.0" encoding="UTF-8" standalone="no"?><svg xmlns="http://www.w3.org/2000/svg" xmlns:xlink="http://www.w3.org/1999/xlink" clip-rule="evenodd" stroke-miterlimit="10" viewBox="0 0 1024 768"><desc>SVG generated by Keynote</desc><defs></defs><g transform="matrix(1.00, 0.00, -0.00, -1.00, 0.0, 768.0)"><path d="M 0.0 768.0 L 1024.0 768.0 L 1024.0 0.0 L 0.0 0.0 Z M 0.0 768.0 " fill="#F1F2EC"></path><text xml:space="preserve" font-family="YanoneKaffeesatz-Regular,Yanone Kaffeesatz" font-size="144.0" fill="#FC4438" transform="matrix(1.00, 0.00, -0.00, -1.00, 104.0, 308.0)">F</text><text xml:space="preserve" font-family="YanoneKaffeesatz-Regular,Yanone Kaffeesatz" font-size="144.0" fill="#FC4438" transform="matrix(1.00, 0.00, -0.00, -1.00, 146.0, 308.0)">u</text><text xml:space="preserve" font-family="YanoneKaffeesatz-Regular,Yanone Kaffeesatz" font-size="144.0" fill="#FC4438" transform="matrix(1.00, 0.00, -0.00, -1.00, 202.2, 308.0)">n</text><text xml:space="preserve" font-family="YanoneKaffeesatz-Regular,Yanone Kaffeesatz" font-size="144.0" fill="#FC4438" transform="matrix(1.00, 0.00, -0.00, -1.00, 257.2, 308.0)">c</text><text xml:space="preserve" font-family="YanoneKaffeesatz-Regular,Yanone Kaffeesatz" font-size="144.0" fill="#FC4438" transform="matrix(1.00, 0.00, -0.00, -1.00, 303.2, 308.0)">t</text><text xml:space="preserve" font-family="YanoneKaffeesatz-Regular,Yanone Kaffeesatz" font-size="144.0" fill="#FC4438" transform="matrix(1.00, 0.00, -0.00, -1.00, 345.1, 308.0)">i</text><text xml:space="preserve" font-family="YanoneKaffeesatz-Regular,Yanone Kaffeesatz" font-size="144.0" fill="#FC4438" transform="matrix(1.00, 0.00, -0.00, -1.00, 370.3, 308.0)">o</text><text xml:space="preserve" font-family="YanoneKaffeesatz-Regular,Yanone Kaffeesatz" font-size="144.0" fill="#FC4438" transform="matrix(1.00, 0.00, -0.00, -1.00, 423.2, 308.0)">n</text><text xml:space="preserve" font-family="YanoneKaffeesatz-Regular,Yanone Kaffeesatz" font-size="64.0" fill="#787878" transform="matrix(1.00, 0.00, -0.00, -1.00, 102.1, 241.7)">A</text><text xml:space="preserve" font-family="YanoneKaffeesatz-Regular,Yanone Kaffeesatz" font-size="64.0" fill="#787878" transform="matrix(1.00, 0.00, -0.00, -1.00, 130.1, 241.7)"> </text><text xml:space="preserve" font-family="YanoneKaffeesatz-Regular,Yanone Kaffeesatz" font-size="64.0" fill="#787878" transform="matrix(1.00, 0.00, -0.00, -1.00, 140.1, 241.7)">s</text><text xml:space="preserve" font-family="YanoneKaffeesatz-Regular,Yanone Kaffeesatz" font-size="64.0" fill="#787878" transform="matrix(1.00, 0.00, -0.00, -1.00, 162.2, 241.7)">e</text><text xml:space="preserve" font-family="YanoneKaffeesatz-Regular,Yanone Kaffeesatz" font-size="64.0" fill="#787878" transform="matrix(1.00, 0.00, -0.00, -1.00, 185.0, 241.7)">t</text><text xml:space="preserve" font-family="YanoneKaffeesatz-Regular,Yanone Kaffeesatz" font-size="64.0" fill="#787878" transform="matrix(1.00, 0.00, -0.00, -1.00, 203.7, 241.7)"> </text><text xml:space="preserve" font-family="YanoneKaffeesatz-Regular,Yanone Kaffeesatz" font-size="64.0" fill="#787878" transform="matrix(1.00, 0.00, -0.00, -1.00, 213.7, 241.7)">o</text><text xml:space="preserve" font-family="YanoneKaffeesatz-Regular,Yanone Kaffeesatz" font-size="64.0" fill="#787878" transform="matrix(1.00, 0.00, -0.00, -1.00, 236.6, 241.7)">f</text><text xml:space="preserve" font-family="YanoneKaffeesatz-Regular,Yanone Kaffeesatz" font-size="64.0" fill="#787878" transform="matrix(1.00, 0.00, -0.00, -1.00, 252.9, 241.7)"> </text><text xml:space="preserve" font-family="YanoneKaffeesatz-Regular,Yanone Kaffeesatz" font-size="64.0" fill="#787878" transform="matrix(1.00, 0.00, -0.00, -1.00, 263.0, 241.7)">s</text><text xml:space="preserve" font-family="YanoneKaffeesatz-Regular,Yanone Kaffeesatz" font-size="64.0" fill="#787878" transform="matrix(1.00, 0.00, -0.00, -1.00, 285.1, 241.7)">t</text><text xml:space="preserve" font-family="YanoneKaffeesatz-Regular,Yanone Kaffeesatz" font-size="64.0" fill="#787878" transform="matrix(1.00, 0.00, -0.00, -1.00, 303.7, 241.7)">a</text><text xml:space="preserve" font-family="YanoneKaffeesatz-Regular,Yanone Kaffeesatz" font-size="64.0" fill="#787878" transform="matrix(1.00, 0.00, -0.00, -1.00, 325.3, 241.7)">t</text><text xml:space="preserve" font-family="YanoneKaffeesatz-Regular,Yanone Kaffeesatz" font-size="64.0" fill="#787878" transform="matrix(1.00, 0.00, -0.00, -1.00, 342.4, 241.7)">e</text><text xml:space="preserve" font-family="YanoneKaffeesatz-Regular,Yanone Kaffeesatz" font-size="64.0" fill="#787878" transform="matrix(1.00, 0.00, -0.00, -1.00, 365.5, 241.7)">m</text><text xml:space="preserve" font-family="YanoneKaffeesatz-Regular,Yanone Kaffeesatz" font-size="64.0" fill="#787878" transform="matrix(1.00, 0.00, -0.00, -1.00, 401.5, 241.7)">e</text><text xml:space="preserve" font-family="YanoneKaffeesatz-Regular,Yanone Kaffeesatz" font-size="64.0" fill="#787878" transform="matrix(1.00, 0.00, -0.00, -1.00, 424.6, 241.7)">n</text><text xml:space="preserve" font-family="YanoneKaffeesatz-Regular,Yanone Kaffeesatz" font-size="64.0" fill="#787878" transform="matrix(1.00, 0.00, -0.00, -1.00, 449.1, 241.7)">t</text><text xml:space="preserve" font-family="YanoneKaffeesatz-Regular,Yanone Kaffeesatz" font-size="64.0" fill="#787878" transform="matrix(1.00, 0.00, -0.00, -1.00, 467.7, 241.7)">s</text><text xml:space="preserve" font-family="YanoneKaffeesatz-Regular,Yanone Kaffeesatz" font-size="64.0" fill="#787878" transform="matrix(1.00, 0.00, -0.00, -1.00, 489.8, 241.7)"> </text><text xml:space="preserve" font-family="YanoneKaffeesatz-Regular,Yanone Kaffeesatz" font-size="64.0" fill="#787878" transform="matrix(1.00, 0.00, -0.00, -1.00, 499.8, 241.7)">t</text><text xml:space="preserve" font-family="YanoneKaffeesatz-Regular,Yanone Kaffeesatz" font-size="64.0" fill="#787878" transform="matrix(1.00, 0.00, -0.00, -1.00, 518.5, 241.7)">h</text><text xml:space="preserve" font-family="YanoneKaffeesatz-Regular,Yanone Kaffeesatz" font-size="64.0" fill="#787878" transform="matrix(1.00, 0.00, -0.00, -1.00, 542.8, 241.7)">a</text><text xml:space="preserve" font-family="YanoneKaffeesatz-Regular,Yanone Kaffeesatz" font-size="64.0" fill="#787878" transform="matrix(1.00, 0.00, -0.00, -1.00, 564.4, 241.7)">t</text><text xml:space="preserve" font-family="YanoneKaffeesatz-Regular,Yanone Kaffeesatz" font-size="64.0" fill="#787878" transform="matrix(1.00, 0.00, -0.00, -1.00, 583.0, 241.7)"> </text><text xml:space="preserve" font-family="YanoneKaffeesatz-Regular,Yanone Kaffeesatz" font-size="64.0" fill="#787878" transform="matrix(1.00, 0.00, -0.00, -1.00, 593.0, 241.7)">w</text><text xml:space="preserve" font-family="YanoneKaffeesatz-Regular,Yanone Kaffeesatz" font-size="64.0" fill="#787878" transform="matrix(1.00, 0.00, -0.00, -1.00, 627.6, 241.7)">i</text><text xml:space="preserve" font-family="YanoneKaffeesatz-Regular,Yanone Kaffeesatz" font-size="64.0" fill="#787878" transform="matrix(1.00, 0.00, -0.00, -1.00, 638.8, 241.7)">l</text><text xml:space="preserve" font-family="YanoneKaffeesatz-Regular,Yanone Kaffeesatz" font-size="64.0" fill="#787878" transform="matrix(1.00, 0.00, -0.00, -1.00, 649.9, 241.7)">l</text><text xml:space="preserve" font-family="YanoneKaffeesatz-Regular,Yanone Kaffeesatz" font-size="64.0" fill="#787878" transform="matrix(1.00, 0.00, -0.00, -1.00, 660.9, 241.7)"> </text><text xml:space="preserve" font-family="YanoneKaffeesatz-Regular,Yanone Kaffeesatz" font-size="64.0" fill="#787878" transform="matrix(1.00, 0.00, -0.00, -1.00, 671.0, 241.7)">b</text><text xml:space="preserve" font-family="YanoneKaffeesatz-Regular,Yanone Kaffeesatz" font-size="64.0" fill="#787878" transform="matrix(1.00, 0.00, -0.00, -1.00, 695.5, 241.7)">e</text><text xml:space="preserve" font-family="YanoneKaffeesatz-Regular,Yanone Kaffeesatz" font-size="64.0" fill="#787878" transform="matrix(1.00, 0.00, -0.00, -1.00, 718.6, 241.7)"> </text><text xml:space="preserve" font-family="YanoneKaffeesatz-Regular,Yanone Kaffeesatz" font-size="64.0" fill="#787878" transform="matrix(1.00, 0.00, -0.00, -1.00, 102.1, 165.7)">e</text><text xml:space="preserve" font-family="YanoneKaffeesatz-Regular,Yanone Kaffeesatz" font-size="64.0" fill="#787878" transform="matrix(1.00, 0.00, -0.00, -1.00, 124.7, 165.7)">x</text><text xml:space="preserve" font-family="YanoneKaffeesatz-Regular,Yanone Kaffeesatz" font-size="64.0" fill="#787878" transform="matrix(1.00, 0.00, -0.00, -1.00, 149.6, 165.7)">e</text><text xml:space="preserve" font-family="YanoneKaffeesatz-Regular,Yanone Kaffeesatz" font-size="64.0" fill="#787878" transform="matrix(1.00, 0.00, -0.00, -1.00, 172.7, 165.7)">c</text><text xml:space="preserve" font-family="YanoneKaffeesatz-Regular,Yanone Kaffeesatz" font-size="64.0" fill="#787878" transform="matrix(1.00, 0.00, -0.00, -1.00, 192.8, 165.7)">u</text><text xml:space="preserve" font-family="YanoneKaffeesatz-Regular,Yanone Kaffeesatz" font-size="64.0" fill="#787878" transform="matrix(1.00, 0.00, -0.00, -1.00, 217.7, 165.7)">t</text><text xml:space="preserve" font-family="YanoneKaffeesatz-Regular,Yanone Kaffeesatz" font-size="64.0" fill="#787878" transform="matrix(1.00, 0.00, -0.00, -1.00, 234.9, 165.7)">e</text><text xml:space="preserve" font-family="YanoneKaffeesatz-Regular,Yanone Kaffeesatz" font-size="64.0" fill="#787878" transform="matrix(1.00, 0.00, -0.00, -1.00, 258.0, 165.7)">d</text><text xml:space="preserve" font-family="YanoneKaffeesatz-Regular,Yanone Kaffeesatz" font-size="64.0" fill="#787878" transform="matrix(1.00, 0.00, -0.00, -1.00, 282.7, 165.7)"> </text><text xml:space="preserve" font-family="YanoneKaffeesatz-Regular,Yanone Kaffeesatz" font-size="64.0" fill="#787878" transform="matrix(1.00, 0.00, -0.00, -1.00, 292.7, 165.7)">w</text><text xml:space="preserve" font-family="YanoneKaffeesatz-Regular,Yanone Kaffeesatz" font-size="64.0" fill="#787878" transform="matrix(1.00, 0.00, -0.00, -1.00, 327.3, 165.7)">h</text><text xml:space="preserve" font-family="YanoneKaffeesatz-Regular,Yanone Kaffeesatz" font-size="64.0" fill="#787878" transform="matrix(1.00, 0.00, -0.00, -1.00, 351.6, 165.7)">e</text><text xml:space="preserve" font-family="YanoneKaffeesatz-Regular,Yanone Kaffeesatz" font-size="64.0" fill="#787878" transform="matrix(1.00, 0.00, -0.00, -1.00, 374.7, 165.7)">n</text><text xml:space="preserve" font-family="YanoneKaffeesatz-Regular,Yanone Kaffeesatz" font-size="64.0" fill="#787878" transform="matrix(1.00, 0.00, -0.00, -1.00, 399.2, 165.7)"> </text><text xml:space="preserve" font-family="YanoneKaffeesatz-Regular,Yanone Kaffeesatz" font-size="64.0" fill="#787878" transform="matrix(1.00, 0.00, -0.00, -1.00, 409.2, 165.7)">c</text><text xml:space="preserve" font-family="YanoneKaffeesatz-Regular,Yanone Kaffeesatz" font-size="64.0" fill="#787878" transform="matrix(1.00, 0.00, -0.00, -1.00, 429.3, 165.7)">a</text><text xml:space="preserve" font-family="YanoneKaffeesatz-Regular,Yanone Kaffeesatz" font-size="64.0" fill="#787878" transform="matrix(1.00, 0.00, -0.00, -1.00, 451.9, 165.7)">l</text><text xml:space="preserve" font-family="YanoneKaffeesatz-Regular,Yanone Kaffeesatz" font-size="64.0" fill="#787878" transform="matrix(1.00, 0.00, -0.00, -1.00, 463.0, 165.7)">l</text><text xml:space="preserve" font-family="YanoneKaffeesatz-Regular,Yanone Kaffeesatz" font-size="64.0" fill="#787878" transform="matrix(1.00, 0.00, -0.00, -1.00, 474.1, 165.7)">e</text><text xml:space="preserve" font-family="YanoneKaffeesatz-Regular,Yanone Kaffeesatz" font-size="64.0" fill="#787878" transform="matrix(1.00, 0.00, -0.00, -1.00, 497.2, 165.7)">d</text></g></svg>