<?xml version="1.0" encoding="UTF-8" standalone="no"?><svg xmlns="http://www.w3.org/2000/svg" xmlns:xlink="http://www.w3.org/1999/xlink" clip-rule="evenodd" stroke-miterlimit="10" viewBox="0 0 1024 768"><desc>SVG generated by Keynote</desc><defs></defs><g transform="matrix(1.00, 0.00, -0.00, -1.00, 0.0, 768.0)"><path d="M 0.0 768.0 L 1024.0 768.0 L 1024.0 0.0 L 0.0 0.0 Z M 0.0 768.0 " fill="#F1F2EC"></path><text xml:space="preserve" font-family="YanoneKaffeesatz-Regular,Yanone Kaffeesatz" font-size="144.0" fill="#787878" transform="matrix(1.00, 0.00, -0.00, -1.00, 104.0, 329.0)">J</text><text xml:space="preserve" font-family="YanoneKaffeesatz-Regular,Yanone Kaffeesatz" font-size="144.0" fill="#787878" transform="matrix(1.00, 0.00, -0.00, -1.00, 148.1, 329.0)">a</text><text xml:space="preserve" font-family="YanoneKaffeesatz-Regular,Yanone Kaffeesatz" font-size="144.0" fill="#787878" transform="matrix(1.00, 0.00, -0.00, -1.00, 199.0, 329.0)">v</text><text xml:space="preserve" font-family="YanoneKaffeesatz-Regular,Yanone Kaffeesatz" font-size="144.0" fill="#787878" transform="matrix(1.00, 0.00, -0.00, -1.00, 247.0, 329.0)">a</text><text xml:space="preserve" font-family="YanoneKaffeesatz-Regular,Yanone Kaffeesatz" font-size="144.0" fill="#787878" transform="matrix(1.00, 0.00, -0.00, -1.00, 298.0, 329.0)">S</text><text xml:space="preserve" font-family="YanoneKaffeesatz-Regular,Yanone Kaffeesatz" font-size="144.0" fill="#787878" transform="matrix(1.00, 0.00, -0.00, -1.00, 349.5, 329.0)">c</text><text xml:space="preserve" font-family="YanoneKaffeesatz-Regular,Yanone Kaffeesatz" font-size="144.0" fill="#787878" transform="matrix(1.00, 0.00, -0.00, -1.00, 394.6, 329.0)">r</text><text xml:space="preserve" font-family="YanoneKaffeesatz-Regular,Yanone Kaffeesatz" font-size="144.0" fill="#787878" transform="matrix(1.00, 0.00, -0.00, -1.00, 432.5, 329.0)">i</text><text xml:space="preserve" font-family="YanoneKaffeesatz-Regular,Yanone Kaffeesatz" font-size="144.0" fill="#787878" transform="matrix(1.00, 0.00, -0.00, -1.00, 457.7, 329.0)">p</text><text xml:space="preserve" font-family="YanoneKaffeesatz-Regular,Yanone Kaffeesatz" font-size="144.0" fill="#787878" transform="matrix(1.00, 0.00, -0.00, -1.00, 511.4, 329.0)">t</text><text xml:space="preserve" font-family="YanoneKaffeesatz-Regular,Yanone Kaffeesatz" font-size="144.0" fill="#787878" transform="matrix(1.00, 0.00, -0.00, -1.00, 553.3, 329.0)"> </text><text xml:space="preserve" font-family="YanoneKaffeesatz-Regular,Yanone Kaffeesatz" font-size="144.0" fill="#787878" transform="matrix(1.00, 0.00, -0.00, -1.00, 575.9, 329.0)">1</text><text xml:space="preserve" font-family="YanoneKaffeesatz-Regular,Yanone Kaffeesatz" font-size="144.0" fill="#787878" transform="matrix(1.00, 0.00, -0.00, -1.00, 635.9, 329.0)">0</text><text xml:space="preserve" font-family="YanoneKaffeesatz-Regular,Yanone Kaffeesatz" font-size="144.0" fill="#787878" transform="matrix(1.00, 0.00, -0.00, -1.00, 696.0, 329.0)">1</text></g></svg>