<?xml version="1.0" encoding="UTF-8" standalone="no"?><svg xmlns="http://www.w3.org/2000/svg" xmlns:xlink="http://www.w3.org/1999/xlink" clip-rule="evenodd" stroke-miterlimit="10" viewBox="0 0 1024 768"><desc>SVG generated by Keynote</desc><defs></defs><g transform="matrix(1.00, 0.00, -0.00, -1.00, 0.0, 768.0)"><path d="M 0.0 768.0 L 1024.0 768.0 L 1024.0 0.0 L 0.0 0.0 Z M 0.0 768.0 " fill="#F1F2EC"></path><text xml:space="preserve" font-family="YanoneKaffeesatz-Regular,Yanone Kaffeesatz" font-size="72.0" fill="#787878" transform="matrix(1.00, 0.00, -0.00, -1.00, 104.0, 419.5)">v</text><text xml:space="preserve" font-family="YanoneKaffeesatz-Regular,Yanone Kaffeesatz" font-size="72.0" fill="#787878" transform="matrix(1.00, 0.00, -0.00, -1.00, 128.0, 419.5)">a</text><text xml:space="preserve" font-family="YanoneKaffeesatz-Regular,Yanone Kaffeesatz" font-size="72.0" fill="#787878" transform="matrix(1.00, 0.00, -0.00, -1.00, 153.5, 419.5)">r</text><text xml:space="preserve" font-family="YanoneKaffeesatz-Regular,Yanone Kaffeesatz" font-size="72.0" fill="#787878" transform="matrix(1.00, 0.00, -0.00, -1.00, 172.4, 419.5)"> </text><text xml:space="preserve" font-family="YanoneKaffeesatz-Regular,Yanone Kaffeesatz" font-size="72.0" fill="#787878" transform="matrix(1.00, 0.00, -0.00, -1.00, 183.7, 419.5)">g</text><text xml:space="preserve" font-family="YanoneKaffeesatz-Regular,Yanone Kaffeesatz" font-size="72.0" fill="#787878" transform="matrix(1.00, 0.00, -0.00, -1.00, 212.0, 419.5)">r</text><text xml:space="preserve" font-family="YanoneKaffeesatz-Regular,Yanone Kaffeesatz" font-size="72.0" fill="#787878" transform="matrix(1.00, 0.00, -0.00, -1.00, 229.4, 419.5)">e</text><text xml:space="preserve" font-family="YanoneKaffeesatz-Regular,Yanone Kaffeesatz" font-size="72.0" fill="#787878" transform="matrix(1.00, 0.00, -0.00, -1.00, 254.7, 419.5)">e</text><text xml:space="preserve" font-family="YanoneKaffeesatz-Regular,Yanone Kaffeesatz" font-size="72.0" fill="#787878" transform="matrix(1.00, 0.00, -0.00, -1.00, 280.4, 419.5)">t</text><text xml:space="preserve" font-family="YanoneKaffeesatz-Regular,Yanone Kaffeesatz" font-size="72.0" fill="#787878" transform="matrix(1.00, 0.00, -0.00, -1.00, 301.4, 419.5)">i</text><text xml:space="preserve" font-family="YanoneKaffeesatz-Regular,Yanone Kaffeesatz" font-size="72.0" fill="#787878" transform="matrix(1.00, 0.00, -0.00, -1.00, 314.0, 419.5)">n</text><text xml:space="preserve" font-family="YanoneKaffeesatz-Regular,Yanone Kaffeesatz" font-size="72.0" fill="#787878" transform="matrix(1.00, 0.00, -0.00, -1.00, 341.5, 419.5)">g</text><text xml:space="preserve" font-family="YanoneKaffeesatz-Regular,Yanone Kaffeesatz" font-size="72.0" fill="#787878" transform="matrix(1.00, 0.00, -0.00, -1.00, 369.8, 419.5)"> </text><text xml:space="preserve" font-family="YanoneKaffeesatz-Regular,Yanone Kaffeesatz" font-size="72.0" fill="#787878" transform="matrix(1.00, 0.00, -0.00, -1.00, 381.1, 419.5)">=</text><text xml:space="preserve" font-family="YanoneKaffeesatz-Regular,Yanone Kaffeesatz" font-size="72.0" fill="#787878" transform="matrix(1.00, 0.00, -0.00, -1.00, 411.1, 419.5)"> </text><text xml:space="preserve" font-family="YanoneKaffeesatz-Regular,Yanone Kaffeesatz" font-size="72.0" fill="#787878" transform="matrix(1.00, 0.00, -0.00, -1.00, 422.4, 419.5)">“</text><text xml:space="preserve" font-family="YanoneKaffeesatz-Regular,Yanone Kaffeesatz" font-size="72.0" fill="#787878" transform="matrix(1.00, 0.00, -0.00, -1.00, 445.8, 419.5)">H</text><text xml:space="preserve" font-family="YanoneKaffeesatz-Regular,Yanone Kaffeesatz" font-size="72.0" fill="#787878" transform="matrix(1.00, 0.00, -0.00, -1.00, 475.2, 419.5)">e</text><text xml:space="preserve" font-family="YanoneKaffeesatz-Regular,Yanone Kaffeesatz" font-size="72.0" fill="#787878" transform="matrix(1.00, 0.00, -0.00, -1.00, 501.2, 419.5)">l</text><text xml:space="preserve" font-family="YanoneKaffeesatz-Regular,Yanone Kaffeesatz" font-size="72.0" fill="#787878" transform="matrix(1.00, 0.00, -0.00, -1.00, 513.7, 419.5)">l</text><text xml:space="preserve" font-family="YanoneKaffeesatz-Regular,Yanone Kaffeesatz" font-size="72.0" fill="#787878" transform="matrix(1.00, 0.00, -0.00, -1.00, 526.1, 419.5)">o</text><text xml:space="preserve" font-family="YanoneKaffeesatz-Regular,Yanone Kaffeesatz" font-size="72.0" fill="#787878" transform="matrix(1.00, 0.00, -0.00, -1.00, 552.6, 419.5)"> </text><text xml:space="preserve" font-family="YanoneKaffeesatz-Regular,Yanone Kaffeesatz" font-size="72.0" fill="#787878" transform="matrix(1.00, 0.00, -0.00, -1.00, 563.9, 419.5)">W</text><text xml:space="preserve" font-family="YanoneKaffeesatz-Regular,Yanone Kaffeesatz" font-size="72.0" fill="#787878" transform="matrix(1.00, 0.00, -0.00, -1.00, 608.5, 419.5)">o</text><text xml:space="preserve" font-family="YanoneKaffeesatz-Regular,Yanone Kaffeesatz" font-size="72.0" fill="#787878" transform="matrix(1.00, 0.00, -0.00, -1.00, 635.0, 419.5)">r</text><text xml:space="preserve" font-family="YanoneKaffeesatz-Regular,Yanone Kaffeesatz" font-size="72.0" fill="#787878" transform="matrix(1.00, 0.00, -0.00, -1.00, 653.9, 419.5)">l</text><text xml:space="preserve" font-family="YanoneKaffeesatz-Regular,Yanone Kaffeesatz" font-size="72.0" fill="#787878" transform="matrix(1.00, 0.00, -0.00, -1.00, 666.4, 419.5)">d</text><text xml:space="preserve" font-family="YanoneKaffeesatz-Regular,Yanone Kaffeesatz" font-size="72.0" fill="#787878" transform="matrix(1.00, 0.00, -0.00, -1.00, 694.2, 419.5)">”</text><text xml:space="preserve" font-family="YanoneKaffeesatz-Regular,Yanone Kaffeesatz" font-size="72.0" fill="#787878" transform="matrix(1.00, 0.00, -0.00, -1.00, 717.6, 419.5)">;</text><text xml:space="preserve" font-family="YanoneKaffeesatz-Regular,Yanone Kaffeesatz" font-size="72.0" fill="#787878" transform="matrix(1.00, 0.00, -0.00, -1.00, 730.8, 419.5)"> </text><text xml:space="preserve" font-family="YanoneKaffeesatz-Regular,Yanone Kaffeesatz" font-size="72.0" fill="#787878" transform="matrix(1.00, 0.00, -0.00, -1.00, 104.0, 334.5)">v</text><text xml:space="preserve" font-family="YanoneKaffeesatz-Regular,Yanone Kaffeesatz" font-size="72.0" fill="#787878" transform="matrix(1.00, 0.00, -0.00, -1.00, 128.0, 334.5)">a</text><text xml:space="preserve" font-family="YanoneKaffeesatz-Regular,Yanone Kaffeesatz" font-size="72.0" fill="#787878" transform="matrix(1.00, 0.00, -0.00, -1.00, 153.5, 334.5)">r</text><text xml:space="preserve" font-family="YanoneKaffeesatz-Regular,Yanone Kaffeesatz" font-size="72.0" fill="#787878" transform="matrix(1.00, 0.00, -0.00, -1.00, 172.4, 334.5)"> </text><text xml:space="preserve" font-family="YanoneKaffeesatz-Regular,Yanone Kaffeesatz" font-size="72.0" fill="#787878" transform="matrix(1.00, 0.00, -0.00, -1.00, 183.7, 334.5)">a</text><text xml:space="preserve" font-family="YanoneKaffeesatz-Regular,Yanone Kaffeesatz" font-size="72.0" fill="#787878" transform="matrix(1.00, 0.00, -0.00, -1.00, 209.2, 334.5)">n</text><text xml:space="preserve" font-family="YanoneKaffeesatz-Regular,Yanone Kaffeesatz" font-size="72.0" fill="#787878" transform="matrix(1.00, 0.00, -0.00, -1.00, 236.7, 334.5)">s</text><text xml:space="preserve" font-family="YanoneKaffeesatz-Regular,Yanone Kaffeesatz" font-size="72.0" fill="#787878" transform="matrix(1.00, 0.00, -0.00, -1.00, 261.5, 334.5)">w</text><text xml:space="preserve" font-family="YanoneKaffeesatz-Regular,Yanone Kaffeesatz" font-size="72.0" fill="#787878" transform="matrix(1.00, 0.00, -0.00, -1.00, 298.7, 334.5)">e</text><text xml:space="preserve" font-family="YanoneKaffeesatz-Regular,Yanone Kaffeesatz" font-size="72.0" fill="#787878" transform="matrix(1.00, 0.00, -0.00, -1.00, 324.7, 334.5)">r</text><text xml:space="preserve" font-family="YanoneKaffeesatz-Regular,Yanone Kaffeesatz" font-size="72.0" fill="#787878" transform="matrix(1.00, 0.00, -0.00, -1.00, 343.6, 334.5)"> </text><text xml:space="preserve" font-family="YanoneKaffeesatz-Regular,Yanone Kaffeesatz" font-size="72.0" fill="#787878" transform="matrix(1.00, 0.00, -0.00, -1.00, 354.9, 334.5)">=</text><text xml:space="preserve" font-family="YanoneKaffeesatz-Regular,Yanone Kaffeesatz" font-size="72.0" fill="#787878" transform="matrix(1.00, 0.00, -0.00, -1.00, 384.9, 334.5)"> </text><text xml:space="preserve" font-family="YanoneKaffeesatz-Regular,Yanone Kaffeesatz" font-size="72.0" fill="#787878" transform="matrix(1.00, 0.00, -0.00, -1.00, 396.2, 334.5)">4</text><text xml:space="preserve" font-family="YanoneKaffeesatz-Regular,Yanone Kaffeesatz" font-size="72.0" fill="#787878" transform="matrix(1.00, 0.00, -0.00, -1.00, 426.3, 334.5)">2</text><text xml:space="preserve" font-family="YanoneKaffeesatz-Regular,Yanone Kaffeesatz" font-size="72.0" fill="#787878" transform="matrix(1.00, 0.00, -0.00, -1.00, 456.3, 334.5)">;</text><text xml:space="preserve" font-family="YanoneKaffeesatz-Regular,Yanone Kaffeesatz" font-size="72.0" fill="#787878" transform="matrix(1.00, 0.00, -0.00, -1.00, 469.5, 334.5)"> </text><text xml:space="preserve" font-family="YanoneKaffeesatz-Regular,Yanone Kaffeesatz" font-size="72.0" fill="#787878" transform="matrix(1.00, 0.00, -0.00, -1.00, 104.0, 249.5)">v</text><text xml:space="preserve" font-family="YanoneKaffeesatz-Regular,Yanone Kaffeesatz" font-size="72.0" fill="#787878" transform="matrix(1.00, 0.00, -0.00, -1.00, 128.0, 249.5)">a</text><text xml:space="preserve" font-family="YanoneKaffeesatz-Regular,Yanone Kaffeesatz" font-size="72.0" fill="#787878" transform="matrix(1.00, 0.00, -0.00, -1.00, 153.5, 249.5)">r</text><text xml:space="preserve" font-family="YanoneKaffeesatz-Regular,Yanone Kaffeesatz" font-size="72.0" fill="#787878" transform="matrix(1.00, 0.00, -0.00, -1.00, 172.4, 249.5)"> </text><text xml:space="preserve" font-family="YanoneKaffeesatz-Regular,Yanone Kaffeesatz" font-size="72.0" fill="#787878" transform="matrix(1.00, 0.00, -0.00, -1.00, 183.7, 249.5)">r</text><text xml:space="preserve" font-family="YanoneKaffeesatz-Regular,Yanone Kaffeesatz" font-size="72.0" fill="#787878" transform="matrix(1.00, 0.00, -0.00, -1.00, 202.6, 249.5)">u</text><text xml:space="preserve" font-family="YanoneKaffeesatz-Regular,Yanone Kaffeesatz" font-size="72.0" fill="#787878" transform="matrix(1.00, 0.00, -0.00, -1.00, 230.7, 249.5)">n</text><text xml:space="preserve" font-family="YanoneKaffeesatz-Regular,Yanone Kaffeesatz" font-size="72.0" fill="#787878" transform="matrix(1.00, 0.00, -0.00, -1.00, 258.2, 249.5)"> </text><text xml:space="preserve" font-family="YanoneKaffeesatz-Regular,Yanone Kaffeesatz" font-size="72.0" fill="#787878" transform="matrix(1.00, 0.00, -0.00, -1.00, 269.5, 249.5)">=</text><text xml:space="preserve" font-family="YanoneKaffeesatz-Regular,Yanone Kaffeesatz" font-size="72.0" fill="#787878" transform="matrix(1.00, 0.00, -0.00, -1.00, 299.6, 249.5)"> </text><text xml:space="preserve" font-family="YanoneKaffeesatz-Regular,Yanone Kaffeesatz" font-size="72.0" fill="#787878" transform="matrix(1.00, 0.00, -0.00, -1.00, 310.9, 249.5)">t</text><text xml:space="preserve" font-family="YanoneKaffeesatz-Regular,Yanone Kaffeesatz" font-size="72.0" fill="#787878" transform="matrix(1.00, 0.00, -0.00, -1.00, 331.8, 249.5)">r</text><text xml:space="preserve" font-family="YanoneKaffeesatz-Regular,Yanone Kaffeesatz" font-size="72.0" fill="#787878" transform="matrix(1.00, 0.00, -0.00, -1.00, 350.7, 249.5)">u</text><text xml:space="preserve" font-family="YanoneKaffeesatz-Regular,Yanone Kaffeesatz" font-size="72.0" fill="#787878" transform="matrix(1.00, 0.00, -0.00, -1.00, 378.8, 249.5)">e</text><text xml:space="preserve" font-family="YanoneKaffeesatz-Regular,Yanone Kaffeesatz" font-size="72.0" fill="#787878" transform="matrix(1.00, 0.00, -0.00, -1.00, 404.8, 249.5)">;</text></g></svg>