<?xml version="1.0" encoding="UTF-8" standalone="no"?><svg xmlns="http://www.w3.org/2000/svg" xmlns:xlink="http://www.w3.org/1999/xlink" clip-rule="evenodd" stroke-miterlimit="10" viewBox="0 0 241 58"><desc>SVG generated by Keynote</desc><defs></defs><g transform="matrix(1.00, 0.00, -0.00, -1.00, 0.0, 58.0)"><g><clipPath id="clip0x6080008b90e0"><path d="M 143.7 -8.3 L 247.8 -8.3 L 247.8 65.0 L 143.7 65.0 Z M 143.7 -8.3 "></path></clipPath><g clip-path="url(#clip0x6080008b90e0)"><text xml:space="preserve" font-family="YanoneKaffeesatz-Regular,Yanone Kaffeesatz" font-size="42.0" fill="#FC4438" transform="matrix(1.00, 0.00, -0.00, -1.00, 156.4, 13.5)">O</text><text xml:space="preserve" font-family="YanoneKaffeesatz-Regular,Yanone Kaffeesatz" font-size="42.0" fill="#FC4438" transform="matrix(1.00, 0.00, -0.00, -1.00, 174.4, 13.5)">r</text><text xml:space="preserve" font-family="YanoneKaffeesatz-Regular,Yanone Kaffeesatz" font-size="42.0" fill="#FC4438" transform="matrix(1.00, 0.00, -0.00, -1.00, 185.4, 13.5)"> </text><text xml:space="preserve" font-family="YanoneKaffeesatz-Regular,Yanone Kaffeesatz" font-size="42.0" fill="#FC4438" transform="matrix(1.00, 0.00, -0.00, -1.00, 192.0, 13.5)">n</text><text xml:space="preserve" font-family="YanoneKaffeesatz-Regular,Yanone Kaffeesatz" font-size="42.0" fill="#FC4438" transform="matrix(1.00, 0.00, -0.00, -1.00, 208.0, 13.5)">o</text><text xml:space="preserve" font-family="YanoneKaffeesatz-Regular,Yanone Kaffeesatz" font-size="42.0" fill="#FC4438" transform="matrix(1.00, 0.00, -0.00, -1.00, 222.9, 13.5)">t</text></g></g><g><clipPath id="clip0x6080008b9740"><path d="M 0.9 8.1 L 143.7 8.1 L 143.7 25.1 L 0.9 25.1 Z M 0.9 8.1 "></path></clipPath><g clip-path="url(#clip0x6080008b9740)"><path d="M 12.0 7.1 L 13.2 7.1 L 140.7 0.0 " fill="none" stroke="#FC4438" stroke-width="3.00" transform="matrix(1.00, 0.00, 0.00, -1.00, 2.0, 22.6)"></path><path d="M 15.1 22.2 L 2.3 14.9 L 15.9 9.0 Z M 15.1 22.2 " fill="#FC4438"></path></g></g></g></svg>