<?xml version="1.0" encoding="UTF-8" standalone="no"?><svg xmlns="http://www.w3.org/2000/svg" xmlns:xlink="http://www.w3.org/1999/xlink" clip-rule="evenodd" stroke-miterlimit="10" viewBox="0 0 1024 768"><desc>SVG generated by Keynote</desc><defs></defs><g transform="matrix(1.00, 0.00, -0.00, -1.00, 0.0, 768.0)"><path d="M 0.0 768.0 L 1024.0 768.0 L 1024.0 0.0 L 0.0 0.0 Z M 0.0 768.0 " fill="#F1F2EC"></path><text xml:space="preserve" font-family="YanoneKaffeesatz-Regular,Yanone Kaffeesatz" font-size="64.0" fill="#787878" transform="matrix(1.00, 0.00, -0.00, -1.00, 48.0, 360.2)">v</text><text xml:space="preserve" font-family="YanoneKaffeesatz-Regular,Yanone Kaffeesatz" font-size="64.0" fill="#787878" transform="matrix(1.00, 0.00, -0.00, -1.00, 69.3, 360.2)">a</text><text xml:space="preserve" font-family="YanoneKaffeesatz-Regular,Yanone Kaffeesatz" font-size="64.0" fill="#787878" transform="matrix(1.00, 0.00, -0.00, -1.00, 92.0, 360.2)">r</text><text xml:space="preserve" font-family="YanoneKaffeesatz-Regular,Yanone Kaffeesatz" font-size="64.0" fill="#787878" transform="matrix(1.00, 0.00, -0.00, -1.00, 108.8, 360.2)"> </text><text xml:space="preserve" font-family="YanoneKaffeesatz-Regular,Yanone Kaffeesatz" font-size="64.0" fill="#787878" transform="matrix(1.00, 0.00, -0.00, -1.00, 118.8, 360.2)">c</text><text xml:space="preserve" font-family="YanoneKaffeesatz-Regular,Yanone Kaffeesatz" font-size="64.0" fill="#787878" transform="matrix(1.00, 0.00, -0.00, -1.00, 138.9, 360.2)">a</text><text xml:space="preserve" font-family="YanoneKaffeesatz-Regular,Yanone Kaffeesatz" font-size="64.0" fill="#787878" transform="matrix(1.00, 0.00, -0.00, -1.00, 160.4, 360.2)">t</text><text xml:space="preserve" font-family="YanoneKaffeesatz-Regular,Yanone Kaffeesatz" font-size="64.0" fill="#787878" transform="matrix(1.00, 0.00, -0.00, -1.00, 179.1, 360.2)"> </text><text xml:space="preserve" font-family="YanoneKaffeesatz-Regular,Yanone Kaffeesatz" font-size="64.0" fill="#787878" transform="matrix(1.00, 0.00, -0.00, -1.00, 189.1, 360.2)">=</text><text xml:space="preserve" font-family="YanoneKaffeesatz-Regular,Yanone Kaffeesatz" font-size="64.0" fill="#787878" transform="matrix(1.00, 0.00, -0.00, -1.00, 215.8, 360.2)"> </text><text xml:space="preserve" font-family="YanoneKaffeesatz-Regular,Yanone Kaffeesatz" font-size="64.0" fill="#787878" transform="matrix(1.00, 0.00, -0.00, -1.00, 225.9, 360.2)">{</text><text xml:space="preserve" font-family="YanoneKaffeesatz-Regular,Yanone Kaffeesatz" font-size="64.0" fill="#787878" transform="matrix(1.00, 0.00, -0.00, -1.00, 243.5, 360.2)">c</text><text xml:space="preserve" font-family="YanoneKaffeesatz-Regular,Yanone Kaffeesatz" font-size="64.0" fill="#787878" transform="matrix(1.00, 0.00, -0.00, -1.00, 262.8, 360.2)">o</text><text xml:space="preserve" font-family="YanoneKaffeesatz-Regular,Yanone Kaffeesatz" font-size="64.0" fill="#787878" transform="matrix(1.00, 0.00, -0.00, -1.00, 286.3, 360.2)">l</text><text xml:space="preserve" font-family="YanoneKaffeesatz-Regular,Yanone Kaffeesatz" font-size="64.0" fill="#787878" transform="matrix(1.00, 0.00, -0.00, -1.00, 297.4, 360.2)">o</text><text xml:space="preserve" font-family="YanoneKaffeesatz-Regular,Yanone Kaffeesatz" font-size="64.0" fill="#787878" transform="matrix(1.00, 0.00, -0.00, -1.00, 321.0, 360.2)">u</text><text xml:space="preserve" font-family="YanoneKaffeesatz-Regular,Yanone Kaffeesatz" font-size="64.0" fill="#787878" transform="matrix(1.00, 0.00, -0.00, -1.00, 345.9, 360.2)">r</text><text xml:space="preserve" font-family="YanoneKaffeesatz-Regular,Yanone Kaffeesatz" font-size="64.0" fill="#787878" transform="matrix(1.00, 0.00, -0.00, -1.00, 362.8, 360.2)">:</text><text xml:space="preserve" font-family="YanoneKaffeesatz-Regular,Yanone Kaffeesatz" font-size="64.0" fill="#787878" transform="matrix(1.00, 0.00, -0.00, -1.00, 374.5, 360.2)"> </text><text xml:space="preserve" font-family="YanoneKaffeesatz-Regular,Yanone Kaffeesatz" font-size="64.0" fill="#787878" transform="matrix(1.00, 0.00, -0.00, -1.00, 384.5, 360.2)">"</text><text xml:space="preserve" font-family="YanoneKaffeesatz-Regular,Yanone Kaffeesatz" font-size="64.0" fill="#787878" transform="matrix(1.00, 0.00, -0.00, -1.00, 394.6, 360.2)">g</text><text xml:space="preserve" font-family="YanoneKaffeesatz-Regular,Yanone Kaffeesatz" font-size="64.0" fill="#787878" transform="matrix(1.00, 0.00, -0.00, -1.00, 419.7, 360.2)">r</text><text xml:space="preserve" font-family="YanoneKaffeesatz-Regular,Yanone Kaffeesatz" font-size="64.0" fill="#787878" transform="matrix(1.00, 0.00, -0.00, -1.00, 435.2, 360.2)">e</text><text xml:space="preserve" font-family="YanoneKaffeesatz-Regular,Yanone Kaffeesatz" font-size="64.0" fill="#787878" transform="matrix(1.00, 0.00, -0.00, -1.00, 458.3, 360.2)">y</text><text xml:space="preserve" font-family="YanoneKaffeesatz-Regular,Yanone Kaffeesatz" font-size="64.0" fill="#787878" transform="matrix(1.00, 0.00, -0.00, -1.00, 477.1, 360.2)">"</text><text xml:space="preserve" font-family="YanoneKaffeesatz-Regular,Yanone Kaffeesatz" font-size="64.0" fill="#787878" transform="matrix(1.00, 0.00, -0.00, -1.00, 494.0, 360.2)">,</text><text xml:space="preserve" font-family="YanoneKaffeesatz-Regular,Yanone Kaffeesatz" font-size="64.0" fill="#787878" transform="matrix(1.00, 0.00, -0.00, -1.00, 505.7, 360.2)"> </text><text xml:space="preserve" font-family="YanoneKaffeesatz-Regular,Yanone Kaffeesatz" font-size="64.0" fill="#787878" transform="matrix(1.00, 0.00, -0.00, -1.00, 515.8, 360.2)">n</text><text xml:space="preserve" font-family="YanoneKaffeesatz-Regular,Yanone Kaffeesatz" font-size="64.0" fill="#787878" transform="matrix(1.00, 0.00, -0.00, -1.00, 540.2, 360.2)">a</text><text xml:space="preserve" font-family="YanoneKaffeesatz-Regular,Yanone Kaffeesatz" font-size="64.0" fill="#787878" transform="matrix(1.00, 0.00, -0.00, -1.00, 562.9, 360.2)">m</text><text xml:space="preserve" font-family="YanoneKaffeesatz-Regular,Yanone Kaffeesatz" font-size="64.0" fill="#787878" transform="matrix(1.00, 0.00, -0.00, -1.00, 598.9, 360.2)">e</text><text xml:space="preserve" font-family="YanoneKaffeesatz-Regular,Yanone Kaffeesatz" font-size="64.0" fill="#787878" transform="matrix(1.00, 0.00, -0.00, -1.00, 622.0, 360.2)">:</text><text xml:space="preserve" font-family="YanoneKaffeesatz-Regular,Yanone Kaffeesatz" font-size="64.0" fill="#787878" transform="matrix(1.00, 0.00, -0.00, -1.00, 633.7, 360.2)"> </text><text xml:space="preserve" font-family="YanoneKaffeesatz-Regular,Yanone Kaffeesatz" font-size="64.0" fill="#787878" transform="matrix(1.00, 0.00, -0.00, -1.00, 643.8, 360.2)">"</text><text xml:space="preserve" font-family="YanoneKaffeesatz-Regular,Yanone Kaffeesatz" font-size="64.0" fill="#787878" transform="matrix(1.00, 0.00, -0.00, -1.00, 660.7, 360.2)">S</text><text xml:space="preserve" font-family="YanoneKaffeesatz-Regular,Yanone Kaffeesatz" font-size="64.0" fill="#787878" transform="matrix(1.00, 0.00, -0.00, -1.00, 683.6, 360.2)">p</text><text xml:space="preserve" font-family="YanoneKaffeesatz-Regular,Yanone Kaffeesatz" font-size="64.0" fill="#787878" transform="matrix(1.00, 0.00, -0.00, -1.00, 708.1, 360.2)">o</text><text xml:space="preserve" font-family="YanoneKaffeesatz-Regular,Yanone Kaffeesatz" font-size="64.0" fill="#787878" transform="matrix(1.00, 0.00, -0.00, -1.00, 730.8, 360.2)">t</text><text xml:space="preserve" font-family="YanoneKaffeesatz-Regular,Yanone Kaffeesatz" font-size="64.0" fill="#787878" transform="matrix(1.00, 0.00, -0.00, -1.00, 747.2, 360.2)">"</text><text xml:space="preserve" font-family="YanoneKaffeesatz-Regular,Yanone Kaffeesatz" font-size="64.0" fill="#787878" transform="matrix(1.00, 0.00, -0.00, -1.00, 764.1, 360.2)">,</text><text xml:space="preserve" font-family="YanoneKaffeesatz-Regular,Yanone Kaffeesatz" font-size="64.0" fill="#787878" transform="matrix(1.00, 0.00, -0.00, -1.00, 775.8, 360.2)"> </text><text xml:space="preserve" font-family="YanoneKaffeesatz-Regular,Yanone Kaffeesatz" font-size="64.0" fill="#787878" transform="matrix(1.00, 0.00, -0.00, -1.00, 785.9, 360.2)">s</text><text xml:space="preserve" font-family="YanoneKaffeesatz-Regular,Yanone Kaffeesatz" font-size="64.0" fill="#787878" transform="matrix(1.00, 0.00, -0.00, -1.00, 807.9, 360.2)">i</text><text xml:space="preserve" font-family="YanoneKaffeesatz-Regular,Yanone Kaffeesatz" font-size="64.0" fill="#787878" transform="matrix(1.00, 0.00, -0.00, -1.00, 819.1, 360.2)">z</text><text xml:space="preserve" font-family="YanoneKaffeesatz-Regular,Yanone Kaffeesatz" font-size="64.0" fill="#787878" transform="matrix(1.00, 0.00, -0.00, -1.00, 839.5, 360.2)">e</text><text xml:space="preserve" font-family="YanoneKaffeesatz-Regular,Yanone Kaffeesatz" font-size="64.0" fill="#787878" transform="matrix(1.00, 0.00, -0.00, -1.00, 862.6, 360.2)">:</text><text xml:space="preserve" font-family="YanoneKaffeesatz-Regular,Yanone Kaffeesatz" font-size="64.0" fill="#787878" transform="matrix(1.00, 0.00, -0.00, -1.00, 874.3, 360.2)"> </text><text xml:space="preserve" font-family="YanoneKaffeesatz-Regular,Yanone Kaffeesatz" font-size="64.0" fill="#787878" transform="matrix(1.00, 0.00, -0.00, -1.00, 884.4, 360.2)">4</text><text xml:space="preserve" font-family="YanoneKaffeesatz-Regular,Yanone Kaffeesatz" font-size="64.0" fill="#787878" transform="matrix(1.00, 0.00, -0.00, -1.00, 911.0, 360.2)">6</text><text xml:space="preserve" font-family="YanoneKaffeesatz-Regular,Yanone Kaffeesatz" font-size="64.0" fill="#787878" transform="matrix(1.00, 0.00, -0.00, -1.00, 937.7, 360.2)">}</text><text xml:space="preserve" font-family="YanoneKaffeesatz-Regular,Yanone Kaffeesatz" font-size="64.0" fill="#787878" transform="matrix(1.00, 0.00, -0.00, -1.00, 955.4, 360.2)">;</text></g></svg>