<?xml version="1.0" encoding="UTF-8" standalone="no"?><svg xmlns="http://www.w3.org/2000/svg" xmlns:xlink="http://www.w3.org/1999/xlink" clip-rule="evenodd" stroke-miterlimit="10" viewBox="0 0 449 126"><desc>SVG generated by Keynote</desc><defs></defs><g transform="matrix(1.00, 0.00, -0.00, -1.00, 0.0, 126.0)"><g><clipPath id="clip0x600000aa0ea0"><path d="M 0.8 68.2 L 403.5 68.2 L 403.5 125.8 L 0.8 125.8 Z M 0.8 68.2 "></path></clipPath><g clip-path="url(#clip0x600000aa0ea0)"><path d="M 397.2 16.0 C 371.7 44.5 117.7 80.1 16.0 12.7 L 14.0 11.1 " fill="none" stroke="#787878" stroke-width="5.00" transform="matrix(1.00, 0.00, 0.00, -1.00, 3.5, 123.0)"></path><path d="M 25.8 118.3 L 3.5 123.0 L 13.2 102.3 Z M 25.8 118.3 " fill="#787878"></path></g></g><g><clipPath id="clip0x600000aa1500"><path d="M 46.5 -8.3 L 455.8 -8.3 L 455.8 65.0 L 46.5 65.0 Z M 46.5 -8.3 "></path></clipPath><g clip-path="url(#clip0x600000aa1500)"><text xml:space="preserve" font-family="YanoneKaffeesatz-Regular,Yanone Kaffeesatz" font-size="42.0" fill="#787878" transform="matrix(1.00, 0.00, -0.00, -1.00, 66.9, 13.5)">H</text><text xml:space="preserve" font-family="YanoneKaffeesatz-Regular,Yanone Kaffeesatz" font-size="42.0" fill="#787878" transform="matrix(1.00, 0.00, -0.00, -1.00, 84.1, 13.5)">T</text><text xml:space="preserve" font-family="YanoneKaffeesatz-Regular,Yanone Kaffeesatz" font-size="42.0" fill="#787878" transform="matrix(1.00, 0.00, -0.00, -1.00, 99.8, 13.5)">M</text><text xml:space="preserve" font-family="YanoneKaffeesatz-Regular,Yanone Kaffeesatz" font-size="42.0" fill="#787878" transform="matrix(1.00, 0.00, -0.00, -1.00, 120.3, 13.5)">L</text><text xml:space="preserve" font-family="YanoneKaffeesatz-Regular,Yanone Kaffeesatz" font-size="42.0" fill="#787878" transform="matrix(1.00, 0.00, -0.00, -1.00, 133.6, 13.5)"> </text><text xml:space="preserve" font-family="YanoneKaffeesatz-Regular,Yanone Kaffeesatz" font-size="42.0" fill="#787878" transform="matrix(1.00, 0.00, -0.00, -1.00, 140.2, 13.5)">C</text><text xml:space="preserve" font-family="YanoneKaffeesatz-Regular,Yanone Kaffeesatz" font-size="42.0" fill="#787878" transform="matrix(1.00, 0.00, -0.00, -1.00, 154.2, 13.5)">S</text><text xml:space="preserve" font-family="YanoneKaffeesatz-Regular,Yanone Kaffeesatz" font-size="42.0" fill="#787878" transform="matrix(1.00, 0.00, -0.00, -1.00, 169.2, 13.5)">S</text><text xml:space="preserve" font-family="YanoneKaffeesatz-Regular,Yanone Kaffeesatz" font-size="42.0" fill="#787878" transform="matrix(1.00, 0.00, -0.00, -1.00, 184.3, 13.5)"> </text><text xml:space="preserve" font-family="YanoneKaffeesatz-Regular,Yanone Kaffeesatz" font-size="42.0" fill="#787878" transform="matrix(1.00, 0.00, -0.00, -1.00, 190.9, 13.5)">J</text><text xml:space="preserve" font-family="YanoneKaffeesatz-Regular,Yanone Kaffeesatz" font-size="42.0" fill="#787878" transform="matrix(1.00, 0.00, -0.00, -1.00, 203.7, 13.5)">a</text><text xml:space="preserve" font-family="YanoneKaffeesatz-Regular,Yanone Kaffeesatz" font-size="42.0" fill="#787878" transform="matrix(1.00, 0.00, -0.00, -1.00, 218.6, 13.5)">v</text><text xml:space="preserve" font-family="YanoneKaffeesatz-Regular,Yanone Kaffeesatz" font-size="42.0" fill="#787878" transform="matrix(1.00, 0.00, -0.00, -1.00, 232.6, 13.5)">a</text><text xml:space="preserve" font-family="YanoneKaffeesatz-Regular,Yanone Kaffeesatz" font-size="42.0" fill="#787878" transform="matrix(1.00, 0.00, -0.00, -1.00, 247.4, 13.5)">S</text><text xml:space="preserve" font-family="YanoneKaffeesatz-Regular,Yanone Kaffeesatz" font-size="42.0" fill="#787878" transform="matrix(1.00, 0.00, -0.00, -1.00, 262.5, 13.5)">c</text><text xml:space="preserve" font-family="YanoneKaffeesatz-Regular,Yanone Kaffeesatz" font-size="42.0" fill="#787878" transform="matrix(1.00, 0.00, -0.00, -1.00, 275.6, 13.5)">r</text><text xml:space="preserve" font-family="YanoneKaffeesatz-Regular,Yanone Kaffeesatz" font-size="42.0" fill="#787878" transform="matrix(1.00, 0.00, -0.00, -1.00, 286.7, 13.5)">i</text><text xml:space="preserve" font-family="YanoneKaffeesatz-Regular,Yanone Kaffeesatz" font-size="42.0" fill="#787878" transform="matrix(1.00, 0.00, -0.00, -1.00, 294.0, 13.5)">p</text><text xml:space="preserve" font-family="YanoneKaffeesatz-Regular,Yanone Kaffeesatz" font-size="42.0" fill="#787878" transform="matrix(1.00, 0.00, -0.00, -1.00, 309.7, 13.5)">t</text><text xml:space="preserve" font-family="YanoneKaffeesatz-Regular,Yanone Kaffeesatz" font-size="42.0" fill="#787878" transform="matrix(1.00, 0.00, -0.00, -1.00, 321.9, 13.5)"> </text><text xml:space="preserve" font-family="YanoneKaffeesatz-Regular,Yanone Kaffeesatz" font-size="42.0" fill="#787878" transform="matrix(1.00, 0.00, -0.00, -1.00, 328.5, 13.5)">I</text><text xml:space="preserve" font-family="YanoneKaffeesatz-Regular,Yanone Kaffeesatz" font-size="42.0" fill="#787878" transform="matrix(1.00, 0.00, -0.00, -1.00, 335.6, 13.5)">m</text><text xml:space="preserve" font-family="YanoneKaffeesatz-Regular,Yanone Kaffeesatz" font-size="42.0" fill="#787878" transform="matrix(1.00, 0.00, -0.00, -1.00, 359.2, 13.5)">a</text><text xml:space="preserve" font-family="YanoneKaffeesatz-Regular,Yanone Kaffeesatz" font-size="42.0" fill="#787878" transform="matrix(1.00, 0.00, -0.00, -1.00, 374.1, 13.5)">g</text><text xml:space="preserve" font-family="YanoneKaffeesatz-Regular,Yanone Kaffeesatz" font-size="42.0" fill="#787878" transform="matrix(1.00, 0.00, -0.00, -1.00, 390.4, 13.5)">e</text><text xml:space="preserve" font-family="YanoneKaffeesatz-Regular,Yanone Kaffeesatz" font-size="42.0" fill="#787878" transform="matrix(1.00, 0.00, -0.00, -1.00, 405.5, 13.5)">s</text><text xml:space="preserve" font-family="YanoneKaffeesatz-Regular,Yanone Kaffeesatz" font-size="42.0" fill="#787878" transform="matrix(1.00, 0.00, -0.00, -1.00, 420.0, 13.5)">.</text><text xml:space="preserve" font-family="YanoneKaffeesatz-Regular,Yanone Kaffeesatz" font-size="42.0" fill="#787878" transform="matrix(1.00, 0.00, -0.00, -1.00, 427.7, 13.5)">.</text></g></g></g></svg>