<?xml version="1.0" encoding="UTF-8" standalone="no"?><svg xmlns="http://www.w3.org/2000/svg" xmlns:xlink="http://www.w3.org/1999/xlink" clip-rule="evenodd" stroke-miterlimit="10" viewBox="0 0 1024 768"><desc>SVG generated by Keynote</desc><defs></defs><g transform="matrix(1.00, 0.00, -0.00, -1.00, 0.0, 768.0)"><path d="M 0.0 768.0 L 1024.0 768.0 L 1024.0 0.0 L 0.0 0.0 Z M 0.0 768.0 " fill="#F1F2EC"></path><image xlink:href="../../92122406-8A69-4925-A051-15373B465270/assets/803EF2A0379F817EAF85DDD10A155512.png" width="256.00" height="256.00" transform="matrix(0.69, 0.00, -0.00, -0.69, 97.0, 472.0)"></image><g><clipPath id="clip0x600000aa2a60"><path d="M 219.0 468.2 L 594.0 468.2 L 594.0 518.9 L 219.0 518.9 Z M 219.0 468.2 "></path></clipPath><g clip-path="url(#clip0x600000aa2a60)"><path d="M 0.0 42.0 C 44.7 9.5 265.5 -28.1 354.0 31.4 L 355.9 33.0 " fill="none" stroke="#787878" stroke-width="5.00" transform="matrix(1.00, 0.00, 0.00, -1.00, 221.5, 515.3)"></path><path d="M 569.0 476.1 L 591.2 470.9 L 582.0 491.8 Z M 569.0 476.1 " fill="#787878"></path></g></g><g><clipPath id="clip0x600000aa2dc0"><path d="M 283.8 508.2 L 535.4 508.2 L 535.4 581.5 L 283.8 581.5 Z M 283.8 508.2 "></path></clipPath><g clip-path="url(#clip0x600000aa2dc0)"><text xml:space="preserve" font-family="YanoneKaffeesatz-Regular,Yanone Kaffeesatz" font-size="42.0" fill="#787878" transform="matrix(1.00, 0.00, -0.00, -1.00, 296.4, 530.0)">w</text><text xml:space="preserve" font-family="YanoneKaffeesatz-Regular,Yanone Kaffeesatz" font-size="42.0" fill="#787878" transform="matrix(1.00, 0.00, -0.00, -1.00, 319.1, 530.0)">w</text><text xml:space="preserve" font-family="YanoneKaffeesatz-Regular,Yanone Kaffeesatz" font-size="42.0" fill="#787878" transform="matrix(1.00, 0.00, -0.00, -1.00, 341.8, 530.0)">w</text><text xml:space="preserve" font-family="YanoneKaffeesatz-Regular,Yanone Kaffeesatz" font-size="42.0" fill="#787878" transform="matrix(1.00, 0.00, -0.00, -1.00, 362.8, 530.0)">.</text><text xml:space="preserve" font-family="YanoneKaffeesatz-Regular,Yanone Kaffeesatz" font-size="42.0" fill="#787878" transform="matrix(1.00, 0.00, -0.00, -1.00, 370.5, 530.0)">g</text><text xml:space="preserve" font-family="YanoneKaffeesatz-Regular,Yanone Kaffeesatz" font-size="42.0" fill="#787878" transform="matrix(1.00, 0.00, -0.00, -1.00, 387.0, 530.0)">r</text><text xml:space="preserve" font-family="YanoneKaffeesatz-Regular,Yanone Kaffeesatz" font-size="42.0" fill="#787878" transform="matrix(1.00, 0.00, -0.00, -1.00, 397.2, 530.0)">o</text><text xml:space="preserve" font-family="YanoneKaffeesatz-Regular,Yanone Kaffeesatz" font-size="42.0" fill="#787878" transform="matrix(1.00, 0.00, -0.00, -1.00, 412.7, 530.0)">u</text><text xml:space="preserve" font-family="YanoneKaffeesatz-Regular,Yanone Kaffeesatz" font-size="42.0" fill="#787878" transform="matrix(1.00, 0.00, -0.00, -1.00, 429.1, 530.0)">p</text><text xml:space="preserve" font-family="YanoneKaffeesatz-Regular,Yanone Kaffeesatz" font-size="42.0" fill="#787878" transform="matrix(1.00, 0.00, -0.00, -1.00, 445.2, 530.0)">o</text><text xml:space="preserve" font-family="YanoneKaffeesatz-Regular,Yanone Kaffeesatz" font-size="42.0" fill="#787878" transform="matrix(1.00, 0.00, -0.00, -1.00, 460.6, 530.0)">n</text><text xml:space="preserve" font-family="YanoneKaffeesatz-Regular,Yanone Kaffeesatz" font-size="42.0" fill="#787878" transform="matrix(1.00, 0.00, -0.00, -1.00, 476.7, 530.0)">.</text><text xml:space="preserve" font-family="YanoneKaffeesatz-Regular,Yanone Kaffeesatz" font-size="42.0" fill="#787878" transform="matrix(1.00, 0.00, -0.00, -1.00, 484.3, 530.0)">m</text><text xml:space="preserve" font-family="YanoneKaffeesatz-Regular,Yanone Kaffeesatz" font-size="42.0" fill="#787878" transform="matrix(1.00, 0.00, -0.00, -1.00, 507.8, 530.0)">y</text></g></g><g><clipPath id="clip0x600000aa34e0"><path d="M 221.8 248.2 L 624.5 248.2 L 624.5 305.8 L 221.8 305.8 Z M 221.8 248.2 "></path></clipPath><g clip-path="url(#clip0x600000aa34e0)"><path d="M 397.2 16.0 C 371.7 44.5 117.7 80.1 16.0 12.7 L 14.0 11.1 " fill="none" stroke="#787878" stroke-width="5.00" transform="matrix(1.00, 0.00, 0.00, -1.00, 224.5, 303.0)"></path><path d="M 246.8 298.3 L 224.5 303.0 L 234.2 282.3 Z M 246.8 298.3 " fill="#787878"></path></g></g><g><clipPath id="clip0x600000aa37e0"><path d="M 267.5 171.7 L 676.8 171.7 L 676.8 245.0 L 267.5 245.0 Z M 267.5 171.7 "></path></clipPath><g clip-path="url(#clip0x600000aa37e0)"><text xml:space="preserve" font-family="YanoneKaffeesatz-Regular,Yanone Kaffeesatz" font-size="42.0" fill="#787878" transform="matrix(1.00, 0.00, -0.00, -1.00, 287.9, 193.5)">H</text><text xml:space="preserve" font-family="YanoneKaffeesatz-Regular,Yanone Kaffeesatz" font-size="42.0" fill="#787878" transform="matrix(1.00, 0.00, -0.00, -1.00, 305.1, 193.5)">T</text><text xml:space="preserve" font-family="YanoneKaffeesatz-Regular,Yanone Kaffeesatz" font-size="42.0" fill="#787878" transform="matrix(1.00, 0.00, -0.00, -1.00, 320.8, 193.5)">M</text><text xml:space="preserve" font-family="YanoneKaffeesatz-Regular,Yanone Kaffeesatz" font-size="42.0" fill="#787878" transform="matrix(1.00, 0.00, -0.00, -1.00, 341.3, 193.5)">L</text><text xml:space="preserve" font-family="YanoneKaffeesatz-Regular,Yanone Kaffeesatz" font-size="42.0" fill="#787878" transform="matrix(1.00, 0.00, -0.00, -1.00, 354.6, 193.5)"> </text><text xml:space="preserve" font-family="YanoneKaffeesatz-Regular,Yanone Kaffeesatz" font-size="42.0" fill="#787878" transform="matrix(1.00, 0.00, -0.00, -1.00, 361.2, 193.5)">C</text><text xml:space="preserve" font-family="YanoneKaffeesatz-Regular,Yanone Kaffeesatz" font-size="42.0" fill="#787878" transform="matrix(1.00, 0.00, -0.00, -1.00, 375.2, 193.5)">S</text><text xml:space="preserve" font-family="YanoneKaffeesatz-Regular,Yanone Kaffeesatz" font-size="42.0" fill="#787878" transform="matrix(1.00, 0.00, -0.00, -1.00, 390.2, 193.5)">S</text><text xml:space="preserve" font-family="YanoneKaffeesatz-Regular,Yanone Kaffeesatz" font-size="42.0" fill="#787878" transform="matrix(1.00, 0.00, -0.00, -1.00, 405.3, 193.5)"> </text><text xml:space="preserve" font-family="YanoneKaffeesatz-Regular,Yanone Kaffeesatz" font-size="42.0" fill="#787878" transform="matrix(1.00, 0.00, -0.00, -1.00, 411.9, 193.5)">J</text><text xml:space="preserve" font-family="YanoneKaffeesatz-Regular,Yanone Kaffeesatz" font-size="42.0" fill="#787878" transform="matrix(1.00, 0.00, -0.00, -1.00, 424.7, 193.5)">a</text><text xml:space="preserve" font-family="YanoneKaffeesatz-Regular,Yanone Kaffeesatz" font-size="42.0" fill="#787878" transform="matrix(1.00, 0.00, -0.00, -1.00, 439.6, 193.5)">v</text><text xml:space="preserve" font-family="YanoneKaffeesatz-Regular,Yanone Kaffeesatz" font-size="42.0" fill="#787878" transform="matrix(1.00, 0.00, -0.00, -1.00, 453.6, 193.5)">a</text><text xml:space="preserve" font-family="YanoneKaffeesatz-Regular,Yanone Kaffeesatz" font-size="42.0" fill="#787878" transform="matrix(1.00, 0.00, -0.00, -1.00, 468.4, 193.5)">S</text><text xml:space="preserve" font-family="YanoneKaffeesatz-Regular,Yanone Kaffeesatz" font-size="42.0" fill="#787878" transform="matrix(1.00, 0.00, -0.00, -1.00, 483.5, 193.5)">c</text><text xml:space="preserve" font-family="YanoneKaffeesatz-Regular,Yanone Kaffeesatz" font-size="42.0" fill="#787878" transform="matrix(1.00, 0.00, -0.00, -1.00, 496.6, 193.5)">r</text><text xml:space="preserve" font-family="YanoneKaffeesatz-Regular,Yanone Kaffeesatz" font-size="42.0" fill="#787878" transform="matrix(1.00, 0.00, -0.00, -1.00, 507.7, 193.5)">i</text><text xml:space="preserve" font-family="YanoneKaffeesatz-Regular,Yanone Kaffeesatz" font-size="42.0" fill="#787878" transform="matrix(1.00, 0.00, -0.00, -1.00, 515.0, 193.5)">p</text><text xml:space="preserve" font-family="YanoneKaffeesatz-Regular,Yanone Kaffeesatz" font-size="42.0" fill="#787878" transform="matrix(1.00, 0.00, -0.00, -1.00, 530.7, 193.5)">t</text><text xml:space="preserve" font-family="YanoneKaffeesatz-Regular,Yanone Kaffeesatz" font-size="42.0" fill="#787878" transform="matrix(1.00, 0.00, -0.00, -1.00, 542.9, 193.5)"> </text><text xml:space="preserve" font-family="YanoneKaffeesatz-Regular,Yanone Kaffeesatz" font-size="42.0" fill="#787878" transform="matrix(1.00, 0.00, -0.00, -1.00, 549.5, 193.5)">I</text><text xml:space="preserve" font-family="YanoneKaffeesatz-Regular,Yanone Kaffeesatz" font-size="42.0" fill="#787878" transform="matrix(1.00, 0.00, -0.00, -1.00, 556.6, 193.5)">m</text><text xml:space="preserve" font-family="YanoneKaffeesatz-Regular,Yanone Kaffeesatz" font-size="42.0" fill="#787878" transform="matrix(1.00, 0.00, -0.00, -1.00, 580.2, 193.5)">a</text><text xml:space="preserve" font-family="YanoneKaffeesatz-Regular,Yanone Kaffeesatz" font-size="42.0" fill="#787878" transform="matrix(1.00, 0.00, -0.00, -1.00, 595.1, 193.5)">g</text><text xml:space="preserve" font-family="YanoneKaffeesatz-Regular,Yanone Kaffeesatz" font-size="42.0" fill="#787878" transform="matrix(1.00, 0.00, -0.00, -1.00, 611.4, 193.5)">e</text><text xml:space="preserve" font-family="YanoneKaffeesatz-Regular,Yanone Kaffeesatz" font-size="42.0" fill="#787878" transform="matrix(1.00, 0.00, -0.00, -1.00, 626.5, 193.5)">s</text><text xml:space="preserve" font-family="YanoneKaffeesatz-Regular,Yanone Kaffeesatz" font-size="42.0" fill="#787878" transform="matrix(1.00, 0.00, -0.00, -1.00, 641.0, 193.5)">.</text><text xml:space="preserve" font-family="YanoneKaffeesatz-Regular,Yanone Kaffeesatz" font-size="42.0" fill="#787878" transform="matrix(1.00, 0.00, -0.00, -1.00, 648.7, 193.5)">.</text></g></g><image xlink:href="../../92122406-8A69-4925-A051-15373B465270/assets/3AD050671270653D3119662F7A81C57D.png" width="600.00" height="264.00" transform="matrix(0.62, 0.00, -0.00, -0.62, 591.0, 466.0)"></image><image xlink:href="../../D3A48AE3-264E-4F7B-B88F-EDBEF995801E/assets/0DDE37CC7CE0C99962D9EAC408842662.png" width="1153.00" height="768.00" transform="matrix(0.21, 0.00, -0.00, -0.21, 11.8, 269.0)"></image></g></svg>